%TF.GenerationSoftware,KiCad,Pcbnew,9.0.7*%
%TF.CreationDate,2026-02-16T10:45:38-05:00*%
%TF.ProjectId,mmdvm_hs-hat,6d6d6476-6d5f-4687-932d-6861742e6b69,1.6*%
%TF.SameCoordinates,Original*%
%TF.FileFunction,Copper,L2,Bot*%
%TF.FilePolarity,Positive*%
%FSLAX46Y46*%
G04 Gerber Fmt 4.6, Leading zero omitted, Abs format (unit mm)*
G04 Created by KiCad (PCBNEW 9.0.7) date 2026-02-16 10:45:38*
%MOMM*%
%LPD*%
G01*
G04 APERTURE LIST*
%TA.AperFunction,ComponentPad*%
%ADD10C,2.050000*%
%TD*%
%TA.AperFunction,ComponentPad*%
%ADD11C,2.250000*%
%TD*%
%TA.AperFunction,ComponentPad*%
%ADD12R,1.778000X1.778000*%
%TD*%
%TA.AperFunction,ComponentPad*%
%ADD13C,1.778000*%
%TD*%
%TA.AperFunction,ComponentPad*%
%ADD14R,1.700000X1.700000*%
%TD*%
%TA.AperFunction,ComponentPad*%
%ADD15C,1.700000*%
%TD*%
%TA.AperFunction,ViaPad*%
%ADD16C,0.600000*%
%TD*%
%TA.AperFunction,Conductor*%
%ADD17C,0.250000*%
%TD*%
%TA.AperFunction,Conductor*%
%ADD18C,0.400000*%
%TD*%
G04 APERTURE END LIST*
D10*
%TO.P,P3,1,In*%
%TO.N,Net-(P3-In)*%
X166500000Y-131250000D03*
D11*
%TO.P,P3,2,Ext*%
%TO.N,GND*%
X163960000Y-128710000D03*
X163960000Y-133790000D03*
X169040000Y-128710000D03*
X169040000Y-133790000D03*
%TD*%
D12*
%TO.P,PI1,1,3V3*%
%TO.N,+3.3V*%
X163830000Y-110507121D03*
D13*
%TO.P,PI1,2,5V*%
%TO.N,+5V*%
X163830000Y-107967121D03*
%TO.P,PI1,3,SDA/GPIO2*%
%TO.N,SDA*%
X166370000Y-110507121D03*
%TO.P,PI1,4,5V*%
%TO.N,+5V*%
X166370000Y-107967121D03*
%TO.P,PI1,5,SCL/GPIO3*%
%TO.N,SCL*%
X168910000Y-110507121D03*
%TO.P,PI1,6,GND*%
%TO.N,GND*%
X168910000Y-107967121D03*
%TO.P,PI1,7,GCLK0/GPIO4*%
%TO.N,unconnected-(PI1-GCLK0{slash}GPIO4-Pad7)*%
X171450000Y-110507121D03*
%TO.P,PI1,8,GPIO14/TXD*%
%TO.N,RXD*%
X171450000Y-107967121D03*
%TO.P,PI1,9,GND*%
%TO.N,GND*%
X173990000Y-110507121D03*
%TO.P,PI1,10,GPIO15/RXD*%
%TO.N,TXD*%
X173990000Y-107967121D03*
%TO.P,PI1,11,GPIO17*%
%TO.N,unconnected-(PI1-GPIO17-Pad11)*%
X176530000Y-110507121D03*
%TO.P,PI1,12,GPIO18/PWM0*%
%TO.N,unconnected-(PI1-GPIO18{slash}PWM0-Pad12)*%
X176530000Y-107967121D03*
%TO.P,PI1,13,GPIO27*%
%TO.N,unconnected-(PI1-GPIO27-Pad13)*%
X179070000Y-110507121D03*
%TO.P,PI1,14,GND*%
%TO.N,GND*%
X179070000Y-107967121D03*
%TO.P,PI1,15,GPIO22*%
%TO.N,unconnected-(PI1-GPIO22-Pad15)*%
X181610000Y-110507121D03*
%TO.P,PI1,16,GPIO23*%
%TO.N,unconnected-(PI1-GPIO23-Pad16)*%
X181610000Y-107967121D03*
%TO.P,PI1,17,3V3*%
%TO.N,+3.3V*%
X184150000Y-110507121D03*
%TO.P,PI1,18,GPIO24*%
%TO.N,unconnected-(PI1-GPIO24-Pad18)*%
X184150000Y-107967121D03*
%TO.P,PI1,19,MOSI0/GPIO10*%
%TO.N,unconnected-(PI1-MOSI0{slash}GPIO10-Pad19)*%
X186690000Y-110507121D03*
%TO.P,PI1,20,GND*%
%TO.N,GND*%
X186690000Y-107967121D03*
%TO.P,PI1,21,MISO0/GPIO9*%
%TO.N,unconnected-(PI1-MISO0{slash}GPIO9-Pad21)*%
X189230000Y-110507121D03*
%TO.P,PI1,22,GPIO25*%
%TO.N,unconnected-(PI1-GPIO25-Pad22)*%
X189230000Y-107967121D03*
%TO.P,PI1,23,SCLK0/GPIO11*%
%TO.N,unconnected-(PI1-SCLK0{slash}GPIO11-Pad23)*%
X191770000Y-110507121D03*
%TO.P,PI1,24,~{CE0}/GPIO8*%
%TO.N,unconnected-(PI1-~{CE0}{slash}GPIO8-Pad24)*%
X191770000Y-107967121D03*
%TO.P,PI1,25,GND*%
%TO.N,GND*%
X194310000Y-110507121D03*
%TO.P,PI1,26,~{CE1}/GPIO7*%
%TO.N,unconnected-(PI1-~{CE1}{slash}GPIO7-Pad26)*%
X194310000Y-107967121D03*
%TO.P,PI1,27,ID_SD/GPIO0*%
%TO.N,unconnected-(PI1-ID_SD{slash}GPIO0-Pad27)*%
X196850000Y-110507121D03*
%TO.P,PI1,28,ID_SC/GPIO1*%
%TO.N,unconnected-(PI1-ID_SC{slash}GPIO1-Pad28)*%
X196850000Y-107967121D03*
%TO.P,PI1,29,GCLK1/GPIO5*%
%TO.N,unconnected-(PI1-GCLK1{slash}GPIO5-Pad29)*%
X199390000Y-110507121D03*
%TO.P,PI1,30,GND*%
%TO.N,GND*%
X199390000Y-107967121D03*
%TO.P,PI1,31,GCLK2/GPIO6*%
%TO.N,unconnected-(PI1-GCLK2{slash}GPIO6-Pad31)*%
X201930000Y-110507121D03*
%TO.P,PI1,32,PWM0/GPIO12*%
%TO.N,unconnected-(PI1-PWM0{slash}GPIO12-Pad32)*%
X201930000Y-107967121D03*
%TO.P,PI1,33,PWM1/GPIO13*%
%TO.N,unconnected-(PI1-PWM1{slash}GPIO13-Pad33)*%
X204470000Y-110507121D03*
%TO.P,PI1,34,GND*%
%TO.N,GND*%
X204470000Y-107967121D03*
%TO.P,PI1,35,GPIO19/MISO1*%
%TO.N,unconnected-(PI1-GPIO19{slash}MISO1-Pad35)*%
X207010000Y-110507121D03*
%TO.P,PI1,36,GPIO16*%
%TO.N,unconnected-(PI1-GPIO16-Pad36)*%
X207010000Y-107967121D03*
%TO.P,PI1,37,GPIO26*%
%TO.N,unconnected-(PI1-GPIO26-Pad37)*%
X209550000Y-110507121D03*
%TO.P,PI1,38,GPIO20/MOSI1*%
%TO.N,Net-(PI1-GPIO20{slash}MOSI1)*%
X209550000Y-107967121D03*
%TO.P,PI1,39,GND*%
%TO.N,GND*%
X212090000Y-110507121D03*
%TO.P,PI1,40,GPIO21/SCLK1*%
%TO.N,NRST*%
X212090000Y-107967121D03*
%TD*%
D14*
%TO.P,P1,1,P1*%
%TO.N,VDD*%
X210420000Y-124418600D03*
D15*
%TO.P,P1,2,P2*%
%TO.N,GND*%
X212960000Y-124418600D03*
%TO.P,P1,3,P3*%
%TO.N,SCL*%
X215500000Y-124418600D03*
%TO.P,P1,4,P4*%
%TO.N,SDA*%
X218040000Y-124418600D03*
%TD*%
D14*
%TO.P,P2,1,P1*%
%TO.N,+5V*%
X210420000Y-128000000D03*
D15*
%TO.P,P2,2,P2*%
%TO.N,DISP_RXD*%
X212960000Y-128000000D03*
%TO.P,P2,3,P3*%
%TO.N,DISP_TXD*%
X215500000Y-128000000D03*
%TO.P,P2,4,P4*%
%TO.N,GND*%
X218040000Y-128000000D03*
%TD*%
D14*
%TO.P,P4,1,P1*%
%TO.N,VDD*%
X205638400Y-114503200D03*
D15*
%TO.P,P4,2,P2*%
%TO.N,SWDIO*%
X203098400Y-114503200D03*
%TO.P,P4,3,P3*%
%TO.N,SWCLK*%
X200558400Y-114503200D03*
%TO.P,P4,4,P4*%
%TO.N,GND*%
X198018400Y-114503200D03*
%TD*%
D16*
%TO.N,GND*%
X195000000Y-131500000D03*
X181406800Y-125386800D03*
X181406800Y-122986800D03*
X163000000Y-126500000D03*
X190450000Y-112450000D03*
X197500000Y-123000000D03*
X171250000Y-134750000D03*
X195000000Y-135100000D03*
X163000000Y-122500000D03*
X168750000Y-125750000D03*
X163000000Y-120500000D03*
X180200000Y-123000000D03*
X181000000Y-130000000D03*
X180200000Y-126600000D03*
X171050000Y-122500000D03*
X213750000Y-134750000D03*
X163000000Y-112500000D03*
X171000000Y-124750000D03*
X185000000Y-112750000D03*
X166000000Y-122500000D03*
X164000000Y-125250000D03*
X171250000Y-131250000D03*
X207416400Y-114401600D03*
X163000000Y-118500000D03*
X179000000Y-125400000D03*
X194000000Y-118500000D03*
X175100000Y-122750000D03*
X165500000Y-124750000D03*
X179000000Y-126600000D03*
X201050000Y-117750000D03*
X182600000Y-126600000D03*
X175750000Y-127750000D03*
X179000000Y-124200000D03*
X191500000Y-129000000D03*
X177250000Y-116250000D03*
X163000000Y-114500000D03*
X185250000Y-118250000D03*
X167600000Y-113000000D03*
X195500000Y-129000000D03*
X168750000Y-122500000D03*
X179000000Y-123000000D03*
X182600000Y-125400000D03*
X181406800Y-124186800D03*
X218750000Y-117500000D03*
X204750000Y-135000000D03*
X182600000Y-124200000D03*
X182600000Y-123000000D03*
X180200000Y-125400000D03*
X202500000Y-127250000D03*
X181406800Y-126586800D03*
X188750000Y-127750000D03*
X197104000Y-127500000D03*
X167500000Y-124750000D03*
X188087000Y-125000000D03*
X210000000Y-130500000D03*
X184500000Y-120250000D03*
X174750000Y-114500000D03*
X180200000Y-124200000D03*
X171000000Y-126250000D03*
X185000000Y-129750000D03*
X218750000Y-119500000D03*
X163000000Y-116500000D03*
X202500000Y-123000000D03*
%TO.N,NRST*%
X213800000Y-111000000D03*
X212077300Y-130594100D03*
%TO.N,DMR_LED*%
X204700000Y-118825000D03*
X207100000Y-119825000D03*
%TO.N,SWDIO*%
X198602600Y-118922800D03*
%TO.N,SDATA*%
X187452000Y-127762000D03*
X188750000Y-126238000D03*
%TO.N,SWCLK*%
X194627500Y-119303800D03*
%TO.N,+5V*%
X206490000Y-127695000D03*
%TO.N,SERVICE*%
X218000000Y-115000000D03*
X197700000Y-126200000D03*
%TO.N,SCL*%
X192024000Y-122072400D03*
X188925200Y-119380000D03*
%TO.N,SDA*%
X187960000Y-118719600D03*
X192125600Y-121259600D03*
%TO.N,VDD*%
X193750000Y-129750000D03*
X206959200Y-120853200D03*
X180492400Y-120142000D03*
X207190000Y-130800000D03*
X174300000Y-128400000D03*
X206100000Y-123000000D03*
X169125000Y-117100000D03*
X189750000Y-116350000D03*
X183850000Y-118250000D03*
X207190000Y-128610000D03*
X188500000Y-123750000D03*
%TO.N,NXDN_LED*%
X207416400Y-115550000D03*
X208794421Y-121601351D03*
%TO.N,Net-(U1-VCOIN)*%
X177100000Y-120400000D03*
X177350000Y-118550000D03*
%TO.N,Net-(PI1-GPIO20{slash}MOSI1)*%
X192405000Y-119761000D03*
X192506600Y-117043200D03*
X191566800Y-126060200D03*
%TD*%
D17*
%TO.N,NRST*%
X213705900Y-130594100D02*
X214600000Y-129700000D01*
X214600000Y-129700000D02*
X219300000Y-129700000D01*
X219300000Y-129700000D02*
X219760800Y-129239200D01*
X219760800Y-115062000D02*
X218800000Y-114101200D01*
X217300000Y-112600000D02*
X215400000Y-112600000D01*
X219760800Y-129239200D02*
X219760800Y-115062000D01*
X218800000Y-114101200D02*
X218800000Y-114100000D01*
X218800000Y-114100000D02*
X217300000Y-112600000D01*
X212077300Y-130594100D02*
X213705900Y-130594100D01*
X215400000Y-112600000D02*
X213800000Y-111000000D01*
%TO.N,DMR_LED*%
X207100000Y-119825000D02*
X205700000Y-119825000D01*
X205700000Y-119825000D02*
X204700000Y-118825000D01*
%TO.N,SWDIO*%
X198602600Y-118922800D02*
X200710800Y-116814600D01*
X200710800Y-116814600D02*
X202260200Y-116814600D01*
X202260200Y-116814600D02*
X203098400Y-115976400D01*
X203098400Y-115976400D02*
X203098400Y-114503200D01*
%TO.N,SDATA*%
X187452000Y-127762000D02*
X187452000Y-127536000D01*
X187452000Y-127536000D02*
X188750000Y-126238000D01*
%TO.N,SWCLK*%
X197650100Y-116281200D02*
X194627500Y-119303800D01*
X199898000Y-116281200D02*
X200558400Y-115620800D01*
X200558400Y-115620800D02*
X200558400Y-114503200D01*
X197650100Y-116281200D02*
X199898000Y-116281200D01*
%TO.N,+5V*%
X167584001Y-106753120D02*
X182192721Y-106753120D01*
X190375001Y-119708677D02*
X190250000Y-119833678D01*
X185364001Y-109924400D02*
X185364001Y-111038999D01*
X185364001Y-111038999D02*
X190375001Y-116049999D01*
X190250000Y-125000000D02*
X190249991Y-125000009D01*
D18*
X163830000Y-107967121D02*
X166370000Y-107967121D01*
D17*
X206124999Y-128125001D02*
X206490000Y-127695000D01*
X182192721Y-106753120D02*
X182824001Y-107384400D01*
X190249991Y-126786401D02*
X191588591Y-128125001D01*
X190375001Y-116049999D02*
X190375001Y-119708677D01*
X166370000Y-107967121D02*
X167584001Y-106753120D01*
X183572409Y-109293120D02*
X184732721Y-109293120D01*
X191588591Y-128125001D02*
X206124999Y-128125001D01*
X190250000Y-119833678D02*
X190250000Y-125000000D01*
X182824001Y-107384400D02*
X182824001Y-108544712D01*
X190249991Y-125000009D02*
X190249991Y-126786401D01*
X182824001Y-108544712D02*
X183572409Y-109293120D01*
X184732721Y-109293120D02*
X185364001Y-109924400D01*
%TO.N,SERVICE*%
X214200001Y-114700001D02*
X211600000Y-112100000D01*
X192314799Y-126685201D02*
X192800000Y-126200000D01*
X211600000Y-112100000D02*
X197272000Y-112100000D01*
X218000000Y-115000000D02*
X217700001Y-114700001D01*
X192800000Y-126200000D02*
X197700000Y-126200000D01*
X197272000Y-112100000D02*
X195935600Y-113436400D01*
X195935600Y-115314400D02*
X190824690Y-120425310D01*
X217700001Y-114700001D02*
X214200001Y-114700001D01*
X191266799Y-126685201D02*
X192314799Y-126685201D01*
X190824690Y-120425310D02*
X190824690Y-126243092D01*
X195935600Y-113436400D02*
X195935600Y-115314400D01*
X190824690Y-126243092D02*
X191266799Y-126685201D01*
%TO.N,SCL*%
X188925200Y-119380000D02*
X188772800Y-119227600D01*
X188772800Y-119227600D02*
X188772800Y-118618000D01*
X188772800Y-118618000D02*
X182727600Y-112572800D01*
X170975679Y-112572800D02*
X168910000Y-110507121D01*
X206722400Y-122072400D02*
X207700000Y-123050000D01*
X207700000Y-123050000D02*
X214131400Y-123050000D01*
X214131400Y-123050000D02*
X215500000Y-124418600D01*
X170975679Y-112572800D02*
X182727600Y-112572800D01*
X192024000Y-122072400D02*
X206722400Y-122072400D01*
%TO.N,SDA*%
X192481200Y-121615200D02*
X192125600Y-121259600D01*
X187960000Y-118719600D02*
X182321200Y-113080800D01*
X168943679Y-113080800D02*
X166370000Y-110507121D01*
X206965200Y-121615200D02*
X207949998Y-122599998D01*
X207949998Y-122599998D02*
X216221398Y-122599998D01*
X216221398Y-122599998D02*
X218040000Y-124418600D01*
X192481200Y-121615200D02*
X206965200Y-121615200D01*
X168943679Y-113080800D02*
X182321200Y-113080800D01*
%TO.N,VDD*%
X207500000Y-124400000D02*
X210401400Y-124400000D01*
X210401400Y-124400000D02*
X210420000Y-124418600D01*
D18*
X183850000Y-118250000D02*
X178500000Y-118250000D01*
X185680001Y-120080001D02*
X188500000Y-120080001D01*
D17*
X176874999Y-129124999D02*
X190125001Y-129124999D01*
D18*
X183850000Y-118250000D02*
X185680001Y-120080001D01*
X190250000Y-129000000D02*
X191000000Y-129750000D01*
X189724981Y-125399245D02*
X189724981Y-128474981D01*
D17*
X174300000Y-128400000D02*
X176150000Y-128400000D01*
D18*
X206050000Y-129750000D02*
X207190000Y-128610000D01*
X189750000Y-119591202D02*
X189750000Y-116350000D01*
D17*
X207190000Y-130800000D02*
X207190000Y-128610000D01*
X207999990Y-117018888D02*
X207999990Y-119812410D01*
D18*
X169775000Y-117750000D02*
X169125000Y-117100000D01*
X207500000Y-128300000D02*
X207500000Y-124400000D01*
X188500000Y-120080001D02*
X189261201Y-120080001D01*
X178500000Y-118250000D02*
X178000000Y-117750000D01*
X188500000Y-124174264D02*
X189724981Y-125399245D01*
X188500000Y-123750000D02*
X188500000Y-120080001D01*
X193750000Y-129750000D02*
X206050000Y-129750000D01*
X188500000Y-123750000D02*
X188500000Y-124174264D01*
X180400000Y-120150000D02*
X178000000Y-117750000D01*
X169775000Y-117750000D02*
X178000000Y-117750000D01*
D17*
X205638400Y-114503200D02*
X205638400Y-114657298D01*
X176150000Y-128400000D02*
X176874999Y-129124999D01*
D18*
X189261201Y-120080001D02*
X189750000Y-119591202D01*
X207190000Y-128610000D02*
X207500000Y-128300000D01*
D17*
X206100000Y-123000000D02*
X207500000Y-124400000D01*
D18*
X189724981Y-128474981D02*
X190250000Y-129000000D01*
X191000000Y-129750000D02*
X193750000Y-129750000D01*
D17*
X205638400Y-114657298D02*
X207999990Y-117018888D01*
X190125001Y-129124999D02*
X190250000Y-129000000D01*
X207999990Y-119812410D02*
X206959200Y-120853200D01*
%TO.N,NXDN_LED*%
X207650000Y-115550000D02*
X208450000Y-116350000D01*
X208450000Y-116350000D02*
X208450000Y-121100000D01*
X208450000Y-121100000D02*
X209000000Y-121650000D01*
X207416400Y-115550000D02*
X207650000Y-115550000D01*
%TO.N,Net-(U1-VCOIN)*%
X177350000Y-118550000D02*
X177350000Y-120150000D01*
X177350000Y-120150000D02*
X177100000Y-120400000D01*
%TO.N,+3.3V*%
X163830000Y-109368121D02*
X163830000Y-110507121D01*
X182824001Y-109181122D02*
X164016999Y-109181122D01*
X164016999Y-109181122D02*
X163830000Y-109368121D01*
X184150000Y-110507121D02*
X182824001Y-109181122D01*
%TO.N,Net-(PI1-GPIO20{slash}MOSI1)*%
X191566800Y-126060200D02*
X191274700Y-125768100D01*
X191274700Y-125768100D02*
X191274700Y-120891300D01*
X191274700Y-120891300D02*
X192405000Y-119761000D01*
X193294000Y-113245900D02*
X193294000Y-116255800D01*
X194818000Y-112306100D02*
X194233800Y-112306100D01*
X196267279Y-109293120D02*
X195605400Y-109954999D01*
X209550000Y-107967121D02*
X208224001Y-109293120D01*
X194233800Y-112306100D02*
X193294000Y-113245900D01*
X195605400Y-111518700D02*
X194818000Y-112306100D01*
X208224001Y-109293120D02*
X196267279Y-109293120D01*
X195605400Y-109954999D02*
X195605400Y-111518700D01*
X193294000Y-116255800D02*
X192506600Y-117043200D01*
%TD*%
%TA.AperFunction,Conductor*%
%TO.N,GND*%
G36*
X163206740Y-134192626D02*
G01*
X163299762Y-134331844D01*
X163418156Y-134450238D01*
X163557374Y-134543260D01*
X163563437Y-134545771D01*
X162998953Y-135110255D01*
X162998953Y-135110256D01*
X163104121Y-135186666D01*
X163333143Y-135303359D01*
X163333149Y-135303362D01*
X163577600Y-135382789D01*
X163836369Y-135423774D01*
X163836142Y-135425205D01*
X163896407Y-135448175D01*
X163938546Y-135505313D01*
X163943104Y-135576163D01*
X163908634Y-135638231D01*
X163846080Y-135671809D01*
X163820178Y-135674500D01*
X162726000Y-135674500D01*
X162657879Y-135654498D01*
X162611386Y-135600842D01*
X162600000Y-135548500D01*
X162600000Y-134842979D01*
X162620002Y-134774858D01*
X162636905Y-134753884D01*
X163204227Y-134186561D01*
X163206740Y-134192626D01*
G37*
%TD.AperFunction*%
%TA.AperFunction,Conductor*%
G36*
X217503525Y-105675697D02*
G01*
X217820377Y-105693492D01*
X217834415Y-105695074D01*
X218143790Y-105747638D01*
X218157552Y-105750779D01*
X218459105Y-105837655D01*
X218472436Y-105842320D01*
X218762366Y-105962413D01*
X218775076Y-105968534D01*
X219049733Y-106120331D01*
X219061692Y-106127845D01*
X219317626Y-106309440D01*
X219328673Y-106318250D01*
X219562657Y-106527351D01*
X219572648Y-106537342D01*
X219781749Y-106771326D01*
X219790559Y-106782373D01*
X219972154Y-107038307D01*
X219979671Y-107050271D01*
X220083379Y-107237918D01*
X220131458Y-107324909D01*
X220137589Y-107337640D01*
X220257678Y-107627560D01*
X220262345Y-107640897D01*
X220349218Y-107942439D01*
X220352362Y-107956215D01*
X220404925Y-108265585D01*
X220406507Y-108279625D01*
X220424302Y-108596474D01*
X220424500Y-108603539D01*
X220424500Y-132892326D01*
X220424004Y-132903497D01*
X220397176Y-133204897D01*
X220395196Y-133218580D01*
X220335679Y-133514385D01*
X220332213Y-133527769D01*
X220240642Y-133815282D01*
X220235730Y-133828205D01*
X220113211Y-134103955D01*
X220106913Y-134116262D01*
X219954919Y-134376932D01*
X219947310Y-134388475D01*
X219767675Y-134630920D01*
X219758847Y-134641560D01*
X219553735Y-134862861D01*
X219543795Y-134872470D01*
X219315667Y-135069971D01*
X219304734Y-135078433D01*
X219056342Y-135249752D01*
X219044548Y-135256965D01*
X218778883Y-135400038D01*
X218766369Y-135405916D01*
X218486625Y-135519023D01*
X218473543Y-135523494D01*
X218183104Y-135605268D01*
X218169611Y-135608280D01*
X217871936Y-135657746D01*
X217858194Y-135659260D01*
X217584286Y-135674310D01*
X217577373Y-135674500D01*
X169179822Y-135674500D01*
X169111701Y-135654498D01*
X169065208Y-135600842D01*
X169055104Y-135530568D01*
X169084598Y-135465988D01*
X169144324Y-135427604D01*
X169163673Y-135424041D01*
X169163631Y-135423774D01*
X169422399Y-135382789D01*
X169666850Y-135303362D01*
X169666856Y-135303359D01*
X169895877Y-135186667D01*
X170001046Y-135110256D01*
X169436562Y-134545771D01*
X169442626Y-134543260D01*
X169581844Y-134450238D01*
X169700238Y-134331844D01*
X169793260Y-134192626D01*
X169795771Y-134186561D01*
X170360256Y-134751046D01*
X170436667Y-134645877D01*
X170553359Y-134416856D01*
X170553362Y-134416850D01*
X170632789Y-134172399D01*
X170673000Y-133918517D01*
X170673000Y-133661482D01*
X170632789Y-133407600D01*
X170553362Y-133163149D01*
X170553359Y-133163143D01*
X170436666Y-132934121D01*
X170360256Y-132828953D01*
X170360255Y-132828953D01*
X169795771Y-133393437D01*
X169793260Y-133387374D01*
X169700238Y-133248156D01*
X169581844Y-133129762D01*
X169442626Y-133036740D01*
X169436561Y-133034227D01*
X170001045Y-132469743D01*
X170001045Y-132469742D01*
X169895878Y-132393333D01*
X169666856Y-132276640D01*
X169666850Y-132276637D01*
X169512177Y-132226381D01*
X169512176Y-132226381D01*
X169422397Y-132197209D01*
X169168518Y-132157000D01*
X168911482Y-132157000D01*
X168657600Y-132197210D01*
X168413149Y-132276637D01*
X168413143Y-132276640D01*
X168184117Y-132393335D01*
X168078953Y-132469741D01*
X168078953Y-132469743D01*
X168643438Y-133034228D01*
X168637374Y-133036740D01*
X168498156Y-133129762D01*
X168379762Y-133248156D01*
X168286740Y-133387374D01*
X168284228Y-133393438D01*
X167719743Y-132828953D01*
X167719741Y-132828953D01*
X167643335Y-132934117D01*
X167526640Y-133163143D01*
X167526637Y-133163149D01*
X167447210Y-133407600D01*
X167407000Y-133661482D01*
X167407000Y-133918517D01*
X167447210Y-134172399D01*
X167526637Y-134416850D01*
X167526640Y-134416856D01*
X167643333Y-134645878D01*
X167719742Y-134751045D01*
X167719743Y-134751045D01*
X168284227Y-134186560D01*
X168286740Y-134192626D01*
X168379762Y-134331844D01*
X168498156Y-134450238D01*
X168637374Y-134543260D01*
X168643437Y-134545771D01*
X168078953Y-135110255D01*
X168078953Y-135110256D01*
X168184121Y-135186666D01*
X168413143Y-135303359D01*
X168413149Y-135303362D01*
X168657600Y-135382789D01*
X168916369Y-135423774D01*
X168916142Y-135425205D01*
X168976407Y-135448175D01*
X169018546Y-135505313D01*
X169023104Y-135576163D01*
X168988634Y-135638231D01*
X168926080Y-135671809D01*
X168900178Y-135674500D01*
X164099822Y-135674500D01*
X164031701Y-135654498D01*
X163985208Y-135600842D01*
X163975104Y-135530568D01*
X164004598Y-135465988D01*
X164064324Y-135427604D01*
X164083673Y-135424041D01*
X164083631Y-135423774D01*
X164342399Y-135382789D01*
X164586850Y-135303362D01*
X164586856Y-135303359D01*
X164815877Y-135186667D01*
X164921046Y-135110256D01*
X164356562Y-134545771D01*
X164362626Y-134543260D01*
X164501844Y-134450238D01*
X164620238Y-134331844D01*
X164713260Y-134192626D01*
X164715771Y-134186561D01*
X165280256Y-134751046D01*
X165356667Y-134645877D01*
X165473359Y-134416856D01*
X165473362Y-134416850D01*
X165552789Y-134172399D01*
X165593000Y-133918517D01*
X165593000Y-133661482D01*
X165552789Y-133407600D01*
X165473362Y-133163149D01*
X165473359Y-133163143D01*
X165356666Y-132934121D01*
X165280256Y-132828953D01*
X165280255Y-132828953D01*
X164715771Y-133393437D01*
X164713260Y-133387374D01*
X164620238Y-133248156D01*
X164501844Y-133129762D01*
X164362626Y-133036740D01*
X164356561Y-133034227D01*
X164921045Y-132469743D01*
X164921045Y-132469742D01*
X164815878Y-132393333D01*
X164586856Y-132276640D01*
X164586850Y-132276637D01*
X164342399Y-132197210D01*
X164088518Y-132157000D01*
X163831482Y-132157000D01*
X163577600Y-132197210D01*
X163333149Y-132276637D01*
X163333143Y-132276640D01*
X163104117Y-132393335D01*
X162998953Y-132469741D01*
X162998953Y-132469743D01*
X163563438Y-133034228D01*
X163557374Y-133036740D01*
X163418156Y-133129762D01*
X163299762Y-133248156D01*
X163206740Y-133387374D01*
X163204228Y-133393438D01*
X162636905Y-132826115D01*
X162621960Y-132798746D01*
X162605104Y-132772518D01*
X162604198Y-132766219D01*
X162602879Y-132763803D01*
X162600000Y-132737020D01*
X162600000Y-131149301D01*
X165220500Y-131149301D01*
X165220500Y-131350699D01*
X165252006Y-131549617D01*
X165314241Y-131741157D01*
X165405674Y-131920604D01*
X165524052Y-132083538D01*
X165524054Y-132083540D01*
X165524056Y-132083543D01*
X165666456Y-132225943D01*
X165666459Y-132225945D01*
X165666462Y-132225948D01*
X165829396Y-132344326D01*
X166008843Y-132435759D01*
X166200383Y-132497994D01*
X166399301Y-132529500D01*
X166399304Y-132529500D01*
X166600696Y-132529500D01*
X166600699Y-132529500D01*
X166799617Y-132497994D01*
X166991157Y-132435759D01*
X167170604Y-132344326D01*
X167333538Y-132225948D01*
X167447987Y-132111499D01*
X215334540Y-132111499D01*
X215334540Y-132367223D01*
X215350778Y-132469743D01*
X215374545Y-132619804D01*
X215441580Y-132826115D01*
X215453567Y-132863006D01*
X215569663Y-133090858D01*
X215719974Y-133297743D01*
X215719976Y-133297745D01*
X215719978Y-133297748D01*
X215900792Y-133478562D01*
X215900795Y-133478564D01*
X215900798Y-133478567D01*
X216107683Y-133628878D01*
X216335535Y-133744974D01*
X216578742Y-133823997D01*
X216831318Y-133864001D01*
X216831321Y-133864001D01*
X217087039Y-133864001D01*
X217087042Y-133864001D01*
X217339618Y-133823997D01*
X217582825Y-133744974D01*
X217810677Y-133628878D01*
X218017562Y-133478567D01*
X218198386Y-133297743D01*
X218348697Y-133090858D01*
X218464793Y-132863006D01*
X218543816Y-132619799D01*
X218583820Y-132367223D01*
X218583820Y-132111499D01*
X218543816Y-131858923D01*
X218464793Y-131615716D01*
X218348697Y-131387864D01*
X218198386Y-131180979D01*
X218198383Y-131180976D01*
X218198381Y-131180973D01*
X218017567Y-131000159D01*
X218017564Y-131000157D01*
X218017562Y-131000155D01*
X217810677Y-130849844D01*
X217582825Y-130733748D01*
X217582822Y-130733747D01*
X217582820Y-130733746D01*
X217339623Y-130654726D01*
X217339619Y-130654725D01*
X217339618Y-130654725D01*
X217087042Y-130614721D01*
X216831318Y-130614721D01*
X216578742Y-130654725D01*
X216578736Y-130654726D01*
X216335539Y-130733746D01*
X216335533Y-130733749D01*
X216107679Y-130849846D01*
X215900795Y-131000157D01*
X215900792Y-131000159D01*
X215719978Y-131180973D01*
X215719976Y-131180976D01*
X215569665Y-131387860D01*
X215453568Y-131615714D01*
X215453565Y-131615720D01*
X215374545Y-131858917D01*
X215374544Y-131858922D01*
X215374544Y-131858923D01*
X215334540Y-132111499D01*
X167447987Y-132111499D01*
X167475948Y-132083538D01*
X167594326Y-131920604D01*
X167685759Y-131741157D01*
X167747994Y-131549617D01*
X167779500Y-131350699D01*
X167779500Y-131149301D01*
X167747994Y-130950383D01*
X167685759Y-130758843D01*
X167594326Y-130579396D01*
X167475948Y-130416462D01*
X167475945Y-130416459D01*
X167475943Y-130416456D01*
X167333543Y-130274056D01*
X167333540Y-130274054D01*
X167333538Y-130274052D01*
X167170604Y-130155674D01*
X166991157Y-130064241D01*
X166991154Y-130064240D01*
X166991152Y-130064239D01*
X166799621Y-130002007D01*
X166799619Y-130002006D01*
X166799617Y-130002006D01*
X166600699Y-129970500D01*
X166399301Y-129970500D01*
X166200383Y-130002006D01*
X166200381Y-130002006D01*
X166200378Y-130002007D01*
X166008847Y-130064239D01*
X166008841Y-130064242D01*
X165829392Y-130155676D01*
X165666459Y-130274054D01*
X165666456Y-130274056D01*
X165524056Y-130416456D01*
X165524054Y-130416459D01*
X165405676Y-130579392D01*
X165314242Y-130758841D01*
X165314239Y-130758847D01*
X165252007Y-130950378D01*
X165252006Y-130950381D01*
X165252006Y-130950383D01*
X165220500Y-131149301D01*
X162600000Y-131149301D01*
X162600000Y-129762979D01*
X162620002Y-129694858D01*
X162636905Y-129673884D01*
X163204227Y-129106561D01*
X163206740Y-129112626D01*
X163299762Y-129251844D01*
X163418156Y-129370238D01*
X163557374Y-129463260D01*
X163563437Y-129465771D01*
X162998953Y-130030255D01*
X162998953Y-130030256D01*
X163104121Y-130106666D01*
X163333143Y-130223359D01*
X163333149Y-130223362D01*
X163577600Y-130302789D01*
X163831482Y-130343000D01*
X164088518Y-130343000D01*
X164342399Y-130302789D01*
X164586850Y-130223362D01*
X164586856Y-130223359D01*
X164815877Y-130106667D01*
X164921046Y-130030256D01*
X164356562Y-129465771D01*
X164362626Y-129463260D01*
X164501844Y-129370238D01*
X164620238Y-129251844D01*
X164713260Y-129112626D01*
X164715771Y-129106561D01*
X165280256Y-129671046D01*
X165356667Y-129565877D01*
X165473359Y-129336856D01*
X165473362Y-129336850D01*
X165552789Y-129092399D01*
X165593000Y-128838517D01*
X165593000Y-128581482D01*
X167407000Y-128581482D01*
X167407000Y-128838517D01*
X167447210Y-129092399D01*
X167526637Y-129336850D01*
X167526640Y-129336856D01*
X167643333Y-129565878D01*
X167719742Y-129671045D01*
X167719743Y-129671045D01*
X168284227Y-129106560D01*
X168286740Y-129112626D01*
X168379762Y-129251844D01*
X168498156Y-129370238D01*
X168637374Y-129463260D01*
X168643437Y-129465771D01*
X168078953Y-130030255D01*
X168078953Y-130030256D01*
X168184121Y-130106666D01*
X168413143Y-130223359D01*
X168413149Y-130223362D01*
X168657600Y-130302789D01*
X168911482Y-130343000D01*
X169168518Y-130343000D01*
X169422399Y-130302789D01*
X169666850Y-130223362D01*
X169666856Y-130223359D01*
X169895877Y-130106667D01*
X170001046Y-130030256D01*
X169436562Y-129465771D01*
X169442626Y-129463260D01*
X169581844Y-129370238D01*
X169700238Y-129251844D01*
X169793260Y-129112626D01*
X169795771Y-129106561D01*
X170360256Y-129671046D01*
X170436667Y-129565877D01*
X170553359Y-129336856D01*
X170553362Y-129336850D01*
X170632789Y-129092399D01*
X170673000Y-128838517D01*
X170673000Y-128581482D01*
X170632789Y-128327600D01*
X170553362Y-128083149D01*
X170553359Y-128083143D01*
X170436666Y-127854121D01*
X170360256Y-127748953D01*
X170360255Y-127748953D01*
X169795771Y-128313437D01*
X169793260Y-128307374D01*
X169700238Y-128168156D01*
X169581844Y-128049762D01*
X169442626Y-127956740D01*
X169436561Y-127954227D01*
X170001045Y-127389743D01*
X170001045Y-127389742D01*
X169895878Y-127313333D01*
X169666856Y-127196640D01*
X169666850Y-127196637D01*
X169422399Y-127117210D01*
X169168518Y-127077000D01*
X168911482Y-127077000D01*
X168657600Y-127117210D01*
X168413149Y-127196637D01*
X168413143Y-127196640D01*
X168184117Y-127313335D01*
X168078953Y-127389741D01*
X168078953Y-127389743D01*
X168643438Y-127954228D01*
X168637374Y-127956740D01*
X168498156Y-128049762D01*
X168379762Y-128168156D01*
X168286740Y-128307374D01*
X168284228Y-128313438D01*
X167719743Y-127748953D01*
X167719741Y-127748953D01*
X167643335Y-127854117D01*
X167526640Y-128083143D01*
X167526637Y-128083149D01*
X167447210Y-128327600D01*
X167407000Y-128581482D01*
X165593000Y-128581482D01*
X165552789Y-128327600D01*
X165473362Y-128083149D01*
X165473359Y-128083143D01*
X165356666Y-127854121D01*
X165280256Y-127748953D01*
X165280255Y-127748953D01*
X164715771Y-128313437D01*
X164713260Y-128307374D01*
X164620238Y-128168156D01*
X164501844Y-128049762D01*
X164362626Y-127956740D01*
X164356561Y-127954227D01*
X164921045Y-127389743D01*
X164921045Y-127389742D01*
X164815878Y-127313333D01*
X164586856Y-127196640D01*
X164586850Y-127196637D01*
X164342399Y-127117210D01*
X164088518Y-127077000D01*
X163831482Y-127077000D01*
X163577600Y-127117210D01*
X163333149Y-127196637D01*
X163333143Y-127196640D01*
X163104117Y-127313335D01*
X162998953Y-127389741D01*
X162998953Y-127389743D01*
X163563438Y-127954228D01*
X163557374Y-127956740D01*
X163418156Y-128049762D01*
X163299762Y-128168156D01*
X163206740Y-128307374D01*
X163204228Y-128313438D01*
X162636905Y-127746115D01*
X162621960Y-127718746D01*
X162605104Y-127692518D01*
X162604198Y-127686219D01*
X162602879Y-127683803D01*
X162600000Y-127657020D01*
X162600000Y-111710086D01*
X162620002Y-111641965D01*
X162673658Y-111595472D01*
X162743932Y-111585368D01*
X162796003Y-111605322D01*
X162841697Y-111635854D01*
X162841699Y-111635855D01*
X162915933Y-111650621D01*
X164744066Y-111650620D01*
X164744069Y-111650619D01*
X164744073Y-111650619D01*
X164793326Y-111640822D01*
X164818301Y-111635855D01*
X164902484Y-111579605D01*
X164958734Y-111495422D01*
X164973500Y-111421188D01*
X164973499Y-109686621D01*
X164993501Y-109618501D01*
X165047157Y-109572008D01*
X165099499Y-109560622D01*
X165396940Y-109560622D01*
X165465061Y-109580624D01*
X165511554Y-109634280D01*
X165521658Y-109704554D01*
X165498876Y-109760684D01*
X165497791Y-109762176D01*
X165497787Y-109762181D01*
X165426160Y-109860767D01*
X165391991Y-109907796D01*
X165310278Y-110068167D01*
X165310275Y-110068173D01*
X165254658Y-110239345D01*
X165254657Y-110239350D01*
X165254657Y-110239351D01*
X165226500Y-110417126D01*
X165226500Y-110597116D01*
X165249564Y-110742734D01*
X165254658Y-110774896D01*
X165307036Y-110936098D01*
X165310277Y-110946073D01*
X165374950Y-111073001D01*
X165391993Y-111106449D01*
X165497788Y-111252063D01*
X165625057Y-111379332D01*
X165687512Y-111424708D01*
X165770675Y-111485130D01*
X165931048Y-111566844D01*
X166102224Y-111622462D01*
X166102225Y-111622462D01*
X166102230Y-111622464D01*
X166280005Y-111650621D01*
X166280008Y-111650621D01*
X166459992Y-111650621D01*
X166459995Y-111650621D01*
X166637770Y-111622464D01*
X166798977Y-111570084D01*
X166869945Y-111568058D01*
X166927008Y-111600823D01*
X168635592Y-113309407D01*
X168635613Y-113309430D01*
X168710653Y-113384470D01*
X168710658Y-113384474D01*
X168710660Y-113384476D01*
X168710661Y-113384477D01*
X168710663Y-113384478D01*
X168797193Y-113434436D01*
X168797197Y-113434438D01*
X168817594Y-113439903D01*
X168893717Y-113460301D01*
X168993641Y-113460301D01*
X168993645Y-113460300D01*
X182111816Y-113460300D01*
X182179937Y-113480302D01*
X182200911Y-113497205D01*
X187368595Y-118664889D01*
X187402621Y-118727201D01*
X187405500Y-118753984D01*
X187405500Y-118792601D01*
X187423583Y-118860089D01*
X187443289Y-118933633D01*
X187516286Y-119060067D01*
X187516294Y-119060077D01*
X187619522Y-119163305D01*
X187619527Y-119163309D01*
X187619529Y-119163311D01*
X187619530Y-119163312D01*
X187619532Y-119163313D01*
X187745966Y-119236310D01*
X187745968Y-119236310D01*
X187745971Y-119236312D01*
X187886999Y-119274100D01*
X187887001Y-119274100D01*
X188032999Y-119274100D01*
X188033001Y-119274100D01*
X188174029Y-119236312D01*
X188181695Y-119231885D01*
X188184529Y-119231198D01*
X188186636Y-119229178D01*
X188218818Y-119222877D01*
X188250689Y-119215144D01*
X188253447Y-119216098D01*
X188256310Y-119215538D01*
X188286788Y-119227636D01*
X188317782Y-119238362D01*
X188319585Y-119240655D01*
X188322298Y-119241732D01*
X188341401Y-119268393D01*
X188361672Y-119294167D01*
X188362466Y-119297792D01*
X188363649Y-119299443D01*
X188366467Y-119316054D01*
X188370539Y-119334639D01*
X188370700Y-119337822D01*
X188370700Y-119453001D01*
X188377879Y-119479794D01*
X188378554Y-119493138D01*
X188373271Y-119515192D01*
X188372732Y-119537866D01*
X188365163Y-119549048D01*
X188362018Y-119562182D01*
X188345648Y-119577881D01*
X188332938Y-119596662D01*
X188320525Y-119601977D01*
X188310779Y-119611325D01*
X188288522Y-119615682D01*
X188267674Y-119624610D01*
X188252715Y-119625501D01*
X185920451Y-119625501D01*
X185852330Y-119605499D01*
X185831356Y-119588596D01*
X184422788Y-118180028D01*
X184390176Y-118123544D01*
X184366712Y-118035971D01*
X184366710Y-118035968D01*
X184366710Y-118035966D01*
X184293713Y-117909532D01*
X184293705Y-117909522D01*
X184190477Y-117806294D01*
X184190467Y-117806286D01*
X184064033Y-117733289D01*
X184047372Y-117728824D01*
X183923001Y-117695500D01*
X183776999Y-117695500D01*
X183635971Y-117733288D01*
X183635970Y-117733288D01*
X183635968Y-117733289D01*
X183593434Y-117757846D01*
X183557453Y-117778619D01*
X183494455Y-117795500D01*
X178740450Y-117795500D01*
X178672329Y-117775498D01*
X178651355Y-117758595D01*
X178370879Y-117478119D01*
X178370867Y-117478105D01*
X178279076Y-117386314D01*
X178279066Y-117386306D01*
X178175431Y-117326473D01*
X178160019Y-117322343D01*
X178160017Y-117322342D01*
X178151002Y-117319927D01*
X178059836Y-117295499D01*
X177940164Y-117295499D01*
X177940160Y-117295500D01*
X170015450Y-117295500D01*
X169947329Y-117275498D01*
X169926355Y-117258595D01*
X169697788Y-117030028D01*
X169665176Y-116973544D01*
X169664280Y-116970199D01*
X169641712Y-116885971D01*
X169641710Y-116885968D01*
X169641710Y-116885966D01*
X169568713Y-116759532D01*
X169568705Y-116759522D01*
X169465477Y-116656294D01*
X169465467Y-116656286D01*
X169339033Y-116583289D01*
X169288847Y-116569842D01*
X169198001Y-116545500D01*
X169051999Y-116545500D01*
X168965686Y-116568627D01*
X168910966Y-116583289D01*
X168784532Y-116656286D01*
X168784522Y-116656294D01*
X168681294Y-116759522D01*
X168681286Y-116759532D01*
X168608289Y-116885966D01*
X168608288Y-116885971D01*
X168570500Y-117026999D01*
X168570500Y-117173001D01*
X168585310Y-117228272D01*
X168608289Y-117314033D01*
X168681286Y-117440467D01*
X168681294Y-117440477D01*
X168784522Y-117543705D01*
X168784527Y-117543709D01*
X168784529Y-117543711D01*
X168784530Y-117543712D01*
X168784532Y-117543713D01*
X168910966Y-117616710D01*
X168910968Y-117616710D01*
X168910971Y-117616712D01*
X168998545Y-117640176D01*
X169055028Y-117672788D01*
X169406898Y-118024658D01*
X169406919Y-118024681D01*
X169495923Y-118113685D01*
X169495928Y-118113689D01*
X169495930Y-118113691D01*
X169495931Y-118113692D01*
X169495933Y-118113693D01*
X169599565Y-118173525D01*
X169599566Y-118173525D01*
X169599569Y-118173527D01*
X169612527Y-118176999D01*
X169715164Y-118204501D01*
X169715165Y-118204501D01*
X169842554Y-118204501D01*
X169842570Y-118204500D01*
X176704309Y-118204500D01*
X176772430Y-118224502D01*
X176818923Y-118278158D01*
X176829027Y-118348432D01*
X176826016Y-118363109D01*
X176795500Y-118476999D01*
X176795500Y-118623001D01*
X176828570Y-118746421D01*
X176833289Y-118764033D01*
X176906286Y-118890467D01*
X176906288Y-118890470D01*
X176906289Y-118890471D01*
X176933595Y-118917777D01*
X176967620Y-118980087D01*
X176970500Y-119006872D01*
X176970500Y-119764084D01*
X176950498Y-119832205D01*
X176896842Y-119878698D01*
X176892724Y-119880490D01*
X176885974Y-119883286D01*
X176759532Y-119956286D01*
X176759522Y-119956294D01*
X176656294Y-120059522D01*
X176656286Y-120059532D01*
X176583289Y-120185966D01*
X176572964Y-120224502D01*
X176545500Y-120326999D01*
X176545500Y-120473001D01*
X176573455Y-120577332D01*
X176583289Y-120614033D01*
X176656286Y-120740467D01*
X176656294Y-120740477D01*
X176759522Y-120843705D01*
X176759527Y-120843709D01*
X176759529Y-120843711D01*
X176759530Y-120843712D01*
X176759532Y-120843713D01*
X176885966Y-120916710D01*
X176885968Y-120916710D01*
X176885971Y-120916712D01*
X177026999Y-120954500D01*
X177027001Y-120954500D01*
X177172999Y-120954500D01*
X177173001Y-120954500D01*
X177314029Y-120916712D01*
X177314032Y-120916710D01*
X177314033Y-120916710D01*
X177377250Y-120880211D01*
X177440471Y-120843711D01*
X177543711Y-120740471D01*
X177582719Y-120672907D01*
X177616710Y-120614033D01*
X177616710Y-120614032D01*
X177616712Y-120614029D01*
X177654500Y-120473001D01*
X177654500Y-120415352D01*
X177671381Y-120352352D01*
X177673644Y-120348432D01*
X177703638Y-120296482D01*
X177729500Y-120199962D01*
X177729500Y-119006872D01*
X177749502Y-118938751D01*
X177766401Y-118917780D01*
X177793711Y-118890471D01*
X177851362Y-118790616D01*
X177866710Y-118764033D01*
X177866710Y-118764032D01*
X177866712Y-118764029D01*
X177904500Y-118623001D01*
X177904500Y-118601450D01*
X177910838Y-118579862D01*
X177912444Y-118557418D01*
X177920645Y-118546461D01*
X177924502Y-118533329D01*
X177941507Y-118518593D01*
X177954991Y-118500582D01*
X177967813Y-118495799D01*
X177978158Y-118486836D01*
X178000430Y-118483633D01*
X178021511Y-118475771D01*
X178034883Y-118478679D01*
X178048432Y-118476732D01*
X178068898Y-118486079D01*
X178090885Y-118490862D01*
X178108898Y-118504347D01*
X178113012Y-118506226D01*
X178119595Y-118512355D01*
X178131898Y-118524658D01*
X178131919Y-118524681D01*
X178228105Y-118620867D01*
X178228119Y-118620879D01*
X179980921Y-120373681D01*
X180000945Y-120399776D01*
X180048686Y-120482467D01*
X180048694Y-120482477D01*
X180151922Y-120585705D01*
X180151927Y-120585709D01*
X180151929Y-120585711D01*
X180151930Y-120585712D01*
X180151932Y-120585713D01*
X180278366Y-120658710D01*
X180278368Y-120658710D01*
X180278371Y-120658712D01*
X180419399Y-120696500D01*
X180419401Y-120696500D01*
X180565399Y-120696500D01*
X180565401Y-120696500D01*
X180706429Y-120658712D01*
X180706432Y-120658710D01*
X180706433Y-120658710D01*
X180783816Y-120614033D01*
X180832871Y-120585711D01*
X180936111Y-120482471D01*
X181007356Y-120359071D01*
X181009110Y-120356033D01*
X181009110Y-120356032D01*
X181009112Y-120356029D01*
X181046900Y-120215001D01*
X181046900Y-120068999D01*
X181009112Y-119927971D01*
X181009110Y-119927968D01*
X181009110Y-119927966D01*
X180936113Y-119801532D01*
X180936105Y-119801522D01*
X180832877Y-119698294D01*
X180832867Y-119698286D01*
X180706433Y-119625289D01*
X180689772Y-119620824D01*
X180565401Y-119587500D01*
X180565399Y-119587500D01*
X180532450Y-119587500D01*
X180464329Y-119567498D01*
X180443355Y-119550595D01*
X179812355Y-118919595D01*
X179778329Y-118857283D01*
X179783394Y-118786468D01*
X179825941Y-118729632D01*
X179892461Y-118704821D01*
X179901450Y-118704500D01*
X183494455Y-118704500D01*
X183502764Y-118706152D01*
X183507923Y-118705222D01*
X183523293Y-118710236D01*
X183542673Y-118714091D01*
X183550300Y-118717250D01*
X183635971Y-118766712D01*
X183731522Y-118792314D01*
X183739151Y-118795474D01*
X183755401Y-118808569D01*
X183780028Y-118822788D01*
X185311899Y-120354659D01*
X185311920Y-120354682D01*
X185400924Y-120443686D01*
X185400929Y-120443690D01*
X185400931Y-120443692D01*
X185400932Y-120443693D01*
X185400934Y-120443694D01*
X185504565Y-120503526D01*
X185504567Y-120503526D01*
X185504570Y-120503528D01*
X185620165Y-120534501D01*
X185739837Y-120534501D01*
X187919500Y-120534501D01*
X187987621Y-120554503D01*
X188034114Y-120608159D01*
X188045500Y-120660501D01*
X188045500Y-123394454D01*
X188028619Y-123457454D01*
X187983289Y-123535966D01*
X187978323Y-123554500D01*
X187945500Y-123676999D01*
X187945500Y-123823001D01*
X187949978Y-123839712D01*
X187983287Y-123964026D01*
X187983290Y-123964033D01*
X188028619Y-124042544D01*
X188032836Y-124058283D01*
X188040396Y-124070046D01*
X188045500Y-124105544D01*
X188045500Y-124106693D01*
X188045499Y-124106711D01*
X188045499Y-124234103D01*
X188064362Y-124304498D01*
X188064362Y-124304499D01*
X188076470Y-124349687D01*
X188076475Y-124349699D01*
X188136306Y-124453330D01*
X188136314Y-124453340D01*
X188228105Y-124545131D01*
X188228119Y-124545143D01*
X189233576Y-125550600D01*
X189248520Y-125577968D01*
X189265377Y-125604197D01*
X189266282Y-125610495D01*
X189267602Y-125612912D01*
X189270481Y-125639695D01*
X189270481Y-125679979D01*
X189250479Y-125748100D01*
X189196823Y-125794593D01*
X189126549Y-125804697D01*
X189081481Y-125789098D01*
X188964033Y-125721289D01*
X188947372Y-125716824D01*
X188823001Y-125683500D01*
X188676999Y-125683500D01*
X188590686Y-125706627D01*
X188535966Y-125721289D01*
X188409532Y-125794286D01*
X188409522Y-125794294D01*
X188306294Y-125897522D01*
X188306286Y-125897532D01*
X188233289Y-126023966D01*
X188195500Y-126165000D01*
X188195500Y-126203615D01*
X188175498Y-126271736D01*
X188158595Y-126292710D01*
X187218980Y-127232325D01*
X187195885Y-127255418D01*
X187174094Y-127277208D01*
X187148005Y-127297228D01*
X187111532Y-127318287D01*
X187111521Y-127318295D01*
X187008294Y-127421522D01*
X187008286Y-127421532D01*
X186935289Y-127547966D01*
X186916922Y-127616514D01*
X186897500Y-127688999D01*
X186897500Y-127835001D01*
X186918420Y-127913077D01*
X186935289Y-127976033D01*
X187008286Y-128102467D01*
X187008294Y-128102477D01*
X187111522Y-128205705D01*
X187111527Y-128205709D01*
X187111529Y-128205711D01*
X187111530Y-128205712D01*
X187111532Y-128205713D01*
X187237966Y-128278710D01*
X187237968Y-128278710D01*
X187237971Y-128278712D01*
X187378999Y-128316500D01*
X187379001Y-128316500D01*
X187524999Y-128316500D01*
X187525001Y-128316500D01*
X187666029Y-128278712D01*
X187666032Y-128278710D01*
X187666033Y-128278710D01*
X187758557Y-128225291D01*
X187792471Y-128205711D01*
X187895711Y-128102471D01*
X187968712Y-127976029D01*
X188006500Y-127835001D01*
X188006500Y-127688999D01*
X187989232Y-127624554D01*
X187990922Y-127553578D01*
X188021842Y-127502850D01*
X188695290Y-126829404D01*
X188757602Y-126795379D01*
X188784385Y-126792500D01*
X188822999Y-126792500D01*
X188823001Y-126792500D01*
X188964029Y-126754712D01*
X189081482Y-126686900D01*
X189150476Y-126670163D01*
X189217568Y-126693383D01*
X189261455Y-126749190D01*
X189270481Y-126796020D01*
X189270481Y-128415141D01*
X189270480Y-128415145D01*
X189270480Y-128534817D01*
X189281363Y-128575431D01*
X189284408Y-128586797D01*
X189284409Y-128586802D01*
X189284432Y-128586887D01*
X189284428Y-128587050D01*
X189285297Y-128598538D01*
X189284745Y-128601124D01*
X189285656Y-128608041D01*
X189285656Y-128608042D01*
X189283929Y-128608042D01*
X189282743Y-128657863D01*
X189242950Y-128716659D01*
X189177686Y-128744608D01*
X189162726Y-128745499D01*
X177084383Y-128745499D01*
X177016262Y-128725497D01*
X176995288Y-128708594D01*
X176460864Y-128174170D01*
X176460852Y-128174156D01*
X176383025Y-128096329D01*
X176383015Y-128096321D01*
X176296480Y-128046361D01*
X176285121Y-128043317D01*
X176285116Y-128043316D01*
X176276084Y-128040896D01*
X176199962Y-128020499D01*
X176100038Y-128020499D01*
X176100034Y-128020500D01*
X174756873Y-128020500D01*
X174688752Y-128000498D01*
X174667778Y-127983595D01*
X174640477Y-127956294D01*
X174640467Y-127956286D01*
X174514033Y-127883289D01*
X174497372Y-127878824D01*
X174373001Y-127845500D01*
X174226999Y-127845500D01*
X174140686Y-127868627D01*
X174085966Y-127883289D01*
X173959532Y-127956286D01*
X173959522Y-127956294D01*
X173856294Y-128059522D01*
X173856286Y-128059532D01*
X173783289Y-128185966D01*
X173768768Y-128240160D01*
X173745500Y-128326999D01*
X173745500Y-128473001D01*
X173774567Y-128581482D01*
X173783289Y-128614033D01*
X173856286Y-128740467D01*
X173856294Y-128740477D01*
X173959522Y-128843705D01*
X173959527Y-128843709D01*
X173959529Y-128843711D01*
X173959530Y-128843712D01*
X173959532Y-128843713D01*
X174085966Y-128916710D01*
X174085968Y-128916710D01*
X174085971Y-128916712D01*
X174226999Y-128954500D01*
X174227001Y-128954500D01*
X174372999Y-128954500D01*
X174373001Y-128954500D01*
X174514029Y-128916712D01*
X174514032Y-128916710D01*
X174514033Y-128916710D01*
X174586157Y-128875069D01*
X174640471Y-128843711D01*
X174645665Y-128838517D01*
X174667778Y-128816405D01*
X174730090Y-128782379D01*
X174756873Y-128779500D01*
X175940616Y-128779500D01*
X176008737Y-128799502D01*
X176029711Y-128816405D01*
X176566912Y-129353606D01*
X176566933Y-129353629D01*
X176641973Y-129428669D01*
X176641978Y-129428673D01*
X176641980Y-129428675D01*
X176708330Y-129466982D01*
X176728517Y-129478637D01*
X176825037Y-129504499D01*
X176924961Y-129504499D01*
X190059549Y-129504499D01*
X190127670Y-129524501D01*
X190148644Y-129541404D01*
X190631898Y-130024658D01*
X190631919Y-130024681D01*
X190720923Y-130113685D01*
X190720928Y-130113689D01*
X190720930Y-130113691D01*
X190720931Y-130113692D01*
X190720933Y-130113693D01*
X190824565Y-130173525D01*
X190824566Y-130173525D01*
X190824569Y-130173527D01*
X190848997Y-130180072D01*
X190940164Y-130204501D01*
X191059836Y-130204501D01*
X191059840Y-130204500D01*
X193394455Y-130204500D01*
X193457453Y-130221380D01*
X193535971Y-130266712D01*
X193676999Y-130304500D01*
X193677001Y-130304500D01*
X193822999Y-130304500D01*
X193823001Y-130304500D01*
X193964029Y-130266712D01*
X194042546Y-130221380D01*
X194105545Y-130204500D01*
X205990160Y-130204500D01*
X205990164Y-130204501D01*
X206109836Y-130204501D01*
X206201002Y-130180072D01*
X206210022Y-130177655D01*
X206210024Y-130177655D01*
X206212683Y-130176942D01*
X206225431Y-130173527D01*
X206329070Y-130113691D01*
X206413691Y-130029070D01*
X206424056Y-130018705D01*
X206424063Y-130018695D01*
X206595406Y-129847353D01*
X206657717Y-129813329D01*
X206728533Y-129818394D01*
X206785368Y-129860941D01*
X206810179Y-129927462D01*
X206810500Y-129936450D01*
X206810500Y-130343127D01*
X206790498Y-130411248D01*
X206773595Y-130432222D01*
X206746294Y-130459522D01*
X206746286Y-130459532D01*
X206673289Y-130585966D01*
X206654866Y-130654725D01*
X206635500Y-130726999D01*
X206635500Y-130873001D01*
X206663227Y-130976479D01*
X206673289Y-131014033D01*
X206746286Y-131140467D01*
X206746294Y-131140477D01*
X206849522Y-131243705D01*
X206849527Y-131243709D01*
X206849529Y-131243711D01*
X206849530Y-131243712D01*
X206849532Y-131243713D01*
X206975966Y-131316710D01*
X206975968Y-131316710D01*
X206975971Y-131316712D01*
X207116999Y-131354500D01*
X207117001Y-131354500D01*
X207262999Y-131354500D01*
X207263001Y-131354500D01*
X207404029Y-131316712D01*
X207404032Y-131316710D01*
X207404033Y-131316710D01*
X207467250Y-131280211D01*
X207530471Y-131243711D01*
X207633711Y-131140471D01*
X207670211Y-131077250D01*
X207706710Y-131014033D01*
X207706710Y-131014032D01*
X207706712Y-131014029D01*
X207744500Y-130873001D01*
X207744500Y-130726999D01*
X207706712Y-130585971D01*
X207706710Y-130585968D01*
X207706710Y-130585966D01*
X207633713Y-130459532D01*
X207633705Y-130459522D01*
X207606405Y-130432222D01*
X207572379Y-130369910D01*
X207569500Y-130343127D01*
X207569500Y-129066872D01*
X207589502Y-128998751D01*
X207606401Y-128977780D01*
X207633711Y-128950471D01*
X207690557Y-128852011D01*
X207706710Y-128824033D01*
X207706713Y-128824026D01*
X207729100Y-128740471D01*
X207730176Y-128736455D01*
X207738322Y-128722346D01*
X207741295Y-128708680D01*
X207762785Y-128679973D01*
X207768693Y-128674065D01*
X207768703Y-128674058D01*
X207863685Y-128579076D01*
X207863691Y-128579070D01*
X207923527Y-128475431D01*
X207930351Y-128449962D01*
X207954501Y-128359836D01*
X207954501Y-128240164D01*
X207954500Y-128240160D01*
X207954500Y-127124930D01*
X209315500Y-127124930D01*
X209315500Y-128875063D01*
X209315501Y-128875073D01*
X209330265Y-128949300D01*
X209386516Y-129033484D01*
X209470697Y-129089733D01*
X209470699Y-129089734D01*
X209544933Y-129104500D01*
X211295066Y-129104499D01*
X211295069Y-129104498D01*
X211295073Y-129104498D01*
X211355902Y-129092399D01*
X211369301Y-129089734D01*
X211453484Y-129033484D01*
X211509734Y-128949301D01*
X211524500Y-128875067D01*
X211524499Y-127913074D01*
X211855500Y-127913074D01*
X211855500Y-128086926D01*
X211879771Y-128240164D01*
X211882698Y-128258642D01*
X211936369Y-128423826D01*
X211936420Y-128423981D01*
X211992894Y-128534817D01*
X212015349Y-128578887D01*
X212117536Y-128719535D01*
X212240464Y-128842463D01*
X212285342Y-128875069D01*
X212381116Y-128944653D01*
X212536019Y-129023580D01*
X212701362Y-129077303D01*
X212873074Y-129104500D01*
X212873077Y-129104500D01*
X213046923Y-129104500D01*
X213046926Y-129104500D01*
X213218638Y-129077303D01*
X213383981Y-129023580D01*
X213538884Y-128944653D01*
X213679533Y-128842465D01*
X213802465Y-128719533D01*
X213904653Y-128578884D01*
X213983580Y-128423981D01*
X214037303Y-128258638D01*
X214064500Y-128086926D01*
X214064500Y-127913074D01*
X214037303Y-127741362D01*
X213983580Y-127576019D01*
X213904653Y-127421116D01*
X213856277Y-127354532D01*
X213802463Y-127280464D01*
X213679535Y-127157536D01*
X213538887Y-127055349D01*
X213538886Y-127055348D01*
X213538884Y-127055347D01*
X213383981Y-126976420D01*
X213383978Y-126976419D01*
X213383976Y-126976418D01*
X213218642Y-126922698D01*
X213218640Y-126922697D01*
X213218638Y-126922697D01*
X213046926Y-126895500D01*
X212873074Y-126895500D01*
X212701362Y-126922697D01*
X212701360Y-126922697D01*
X212701357Y-126922698D01*
X212536023Y-126976418D01*
X212536017Y-126976421D01*
X212381112Y-127055349D01*
X212240464Y-127157536D01*
X212117536Y-127280464D01*
X212015349Y-127421112D01*
X211936421Y-127576017D01*
X211936418Y-127576023D01*
X211882698Y-127741357D01*
X211882697Y-127741360D01*
X211882697Y-127741362D01*
X211855500Y-127913074D01*
X211524499Y-127913074D01*
X211524499Y-127124934D01*
X211524498Y-127124930D01*
X211524498Y-127124926D01*
X211509734Y-127050699D01*
X211487700Y-127017723D01*
X211453484Y-126966516D01*
X211387907Y-126922698D01*
X211369302Y-126910266D01*
X211295067Y-126895500D01*
X209544936Y-126895500D01*
X209544926Y-126895501D01*
X209470699Y-126910265D01*
X209386515Y-126966516D01*
X209330266Y-127050697D01*
X209315500Y-127124930D01*
X207954500Y-127124930D01*
X207954500Y-124905500D01*
X207974502Y-124837379D01*
X208028158Y-124790886D01*
X208080500Y-124779500D01*
X209189501Y-124779500D01*
X209257622Y-124799502D01*
X209304115Y-124853158D01*
X209315501Y-124905500D01*
X209315501Y-125293672D01*
X209330265Y-125367900D01*
X209386516Y-125452084D01*
X209470697Y-125508333D01*
X209470699Y-125508334D01*
X209544933Y-125523100D01*
X211295066Y-125523099D01*
X211295069Y-125523098D01*
X211295073Y-125523098D01*
X211344326Y-125513301D01*
X211369301Y-125508334D01*
X211453484Y-125452084D01*
X211509734Y-125367901D01*
X211524500Y-125293667D01*
X211524499Y-125117349D01*
X211544501Y-125049232D01*
X211598156Y-125002739D01*
X211668430Y-124992634D01*
X211733011Y-125022127D01*
X211762765Y-125060148D01*
X211798532Y-125130343D01*
X211798536Y-125130350D01*
X211836620Y-125182767D01*
X211836621Y-125182768D01*
X212475841Y-124543547D01*
X212494075Y-124611593D01*
X212559901Y-124725607D01*
X212652993Y-124818699D01*
X212767007Y-124884525D01*
X212835051Y-124902757D01*
X212195831Y-125541978D01*
X212248249Y-125580063D01*
X212248251Y-125580064D01*
X212438707Y-125677106D01*
X212438713Y-125677109D01*
X212641996Y-125743159D01*
X212853126Y-125776600D01*
X213066874Y-125776600D01*
X213278003Y-125743159D01*
X213481286Y-125677109D01*
X213481292Y-125677106D01*
X213671750Y-125580063D01*
X213724167Y-125541978D01*
X213724167Y-125541976D01*
X213084948Y-124902757D01*
X213152993Y-124884525D01*
X213267007Y-124818699D01*
X213360099Y-124725607D01*
X213425925Y-124611593D01*
X213444158Y-124543547D01*
X214083377Y-125182767D01*
X214083378Y-125182767D01*
X214121463Y-125130350D01*
X214218506Y-124939892D01*
X214218509Y-124939886D01*
X214244241Y-124860692D01*
X214284314Y-124802086D01*
X214349711Y-124774449D01*
X214419668Y-124786556D01*
X214471974Y-124834562D01*
X214476341Y-124842425D01*
X214476418Y-124842576D01*
X214476420Y-124842581D01*
X214552876Y-124992634D01*
X214555349Y-124997487D01*
X214657536Y-125138135D01*
X214780464Y-125261063D01*
X214825342Y-125293669D01*
X214921116Y-125363253D01*
X215076019Y-125442180D01*
X215241362Y-125495903D01*
X215413074Y-125523100D01*
X215413077Y-125523100D01*
X215586923Y-125523100D01*
X215586926Y-125523100D01*
X215758638Y-125495903D01*
X215923981Y-125442180D01*
X216078884Y-125363253D01*
X216219533Y-125261065D01*
X216342465Y-125138133D01*
X216444653Y-124997484D01*
X216523580Y-124842581D01*
X216577303Y-124677238D01*
X216604500Y-124505526D01*
X216604500Y-124331674D01*
X216577303Y-124159962D01*
X216523580Y-123994619D01*
X216444653Y-123839716D01*
X216342465Y-123699067D01*
X216342463Y-123699064D01*
X216219535Y-123576136D01*
X216078887Y-123473949D01*
X216078886Y-123473948D01*
X216078884Y-123473947D01*
X215923981Y-123395020D01*
X215923978Y-123395019D01*
X215923976Y-123395018D01*
X215758642Y-123341298D01*
X215758640Y-123341297D01*
X215758638Y-123341297D01*
X215586926Y-123314100D01*
X215413074Y-123314100D01*
X215273327Y-123336234D01*
X215241355Y-123341298D01*
X215101972Y-123386586D01*
X215031005Y-123388613D01*
X214973942Y-123355848D01*
X214812687Y-123194593D01*
X214778661Y-123132281D01*
X214783726Y-123061466D01*
X214826273Y-123004630D01*
X214892793Y-122979819D01*
X214901782Y-122979498D01*
X216012014Y-122979498D01*
X216080135Y-122999500D01*
X216101109Y-123016403D01*
X216977248Y-123892542D01*
X217011274Y-123954854D01*
X217007986Y-124020572D01*
X216962698Y-124159955D01*
X216962697Y-124159962D01*
X216935500Y-124331674D01*
X216935500Y-124505526D01*
X216952300Y-124611593D01*
X216962698Y-124677242D01*
X217014729Y-124837379D01*
X217016420Y-124842581D01*
X217092876Y-124992634D01*
X217095349Y-124997487D01*
X217197536Y-125138135D01*
X217320464Y-125261063D01*
X217365342Y-125293669D01*
X217461116Y-125363253D01*
X217616019Y-125442180D01*
X217781362Y-125495903D01*
X217953074Y-125523100D01*
X217953077Y-125523100D01*
X218126923Y-125523100D01*
X218126926Y-125523100D01*
X218298638Y-125495903D01*
X218463981Y-125442180D01*
X218618884Y-125363253D01*
X218759533Y-125261065D01*
X218882465Y-125138133D01*
X218984653Y-124997484D01*
X219063580Y-124842581D01*
X219117303Y-124677238D01*
X219130851Y-124591695D01*
X219161264Y-124527544D01*
X219221532Y-124490017D01*
X219292521Y-124491031D01*
X219351693Y-124530264D01*
X219380261Y-124595259D01*
X219381300Y-124611408D01*
X219381300Y-127147987D01*
X219361298Y-127216108D01*
X219307642Y-127262601D01*
X219237368Y-127272705D01*
X219172788Y-127243211D01*
X219166219Y-127236054D01*
X219163378Y-127235831D01*
X218524157Y-127875051D01*
X218505925Y-127807007D01*
X218440099Y-127692993D01*
X218347007Y-127599901D01*
X218232993Y-127534075D01*
X218164947Y-127515841D01*
X218804168Y-126876621D01*
X218804167Y-126876620D01*
X218751750Y-126838536D01*
X218751748Y-126838535D01*
X218561292Y-126741493D01*
X218561286Y-126741490D01*
X218358003Y-126675440D01*
X218146874Y-126642000D01*
X217933126Y-126642000D01*
X217721996Y-126675440D01*
X217518713Y-126741490D01*
X217518707Y-126741493D01*
X217328253Y-126838534D01*
X217275831Y-126876621D01*
X217275831Y-126876622D01*
X217915051Y-127515842D01*
X217847007Y-127534075D01*
X217732993Y-127599901D01*
X217639901Y-127692993D01*
X217574075Y-127807007D01*
X217555842Y-127875051D01*
X216916622Y-127235831D01*
X216916621Y-127235831D01*
X216878534Y-127288253D01*
X216781493Y-127478707D01*
X216755758Y-127557909D01*
X216715683Y-127616514D01*
X216650286Y-127644150D01*
X216580330Y-127632042D01*
X216528024Y-127584036D01*
X216523658Y-127576174D01*
X216523581Y-127576023D01*
X216523580Y-127576019D01*
X216444653Y-127421116D01*
X216396277Y-127354532D01*
X216342463Y-127280464D01*
X216219535Y-127157536D01*
X216078884Y-127055347D01*
X216042699Y-127036910D01*
X215923981Y-126976420D01*
X215923978Y-126976419D01*
X215923976Y-126976418D01*
X215758642Y-126922698D01*
X215758640Y-126922697D01*
X215758638Y-126922697D01*
X215586926Y-126895500D01*
X215413074Y-126895500D01*
X215241362Y-126922697D01*
X215241360Y-126922697D01*
X215241357Y-126922698D01*
X215076023Y-126976418D01*
X215076017Y-126976421D01*
X214921112Y-127055349D01*
X214780464Y-127157536D01*
X214657536Y-127280464D01*
X214555349Y-127421112D01*
X214476421Y-127576017D01*
X214476418Y-127576023D01*
X214422698Y-127741357D01*
X214422697Y-127741360D01*
X214422697Y-127741362D01*
X214395500Y-127913074D01*
X214395500Y-128086926D01*
X214419771Y-128240164D01*
X214422698Y-128258642D01*
X214476369Y-128423826D01*
X214476420Y-128423981D01*
X214532894Y-128534817D01*
X214555349Y-128578887D01*
X214657536Y-128719535D01*
X214780464Y-128842463D01*
X214825342Y-128875069D01*
X214921116Y-128944653D01*
X215076019Y-129023580D01*
X215144465Y-129045819D01*
X215233248Y-129074667D01*
X215291854Y-129114741D01*
X215319491Y-129180137D01*
X215307384Y-129250094D01*
X215259378Y-129302400D01*
X215194312Y-129320500D01*
X214550038Y-129320500D01*
X214490963Y-129336328D01*
X214453513Y-129346363D01*
X214366984Y-129396321D01*
X214366979Y-129396325D01*
X214334636Y-129428669D01*
X214296324Y-129466981D01*
X213585610Y-130177695D01*
X213523298Y-130211721D01*
X213496515Y-130214600D01*
X212534173Y-130214600D01*
X212466052Y-130194598D01*
X212445078Y-130177695D01*
X212417777Y-130150394D01*
X212417767Y-130150386D01*
X212291333Y-130077389D01*
X212274672Y-130072924D01*
X212150301Y-130039600D01*
X212004299Y-130039600D01*
X211931512Y-130059103D01*
X211863266Y-130077389D01*
X211736832Y-130150386D01*
X211736822Y-130150394D01*
X211633594Y-130253622D01*
X211633586Y-130253632D01*
X211560589Y-130380066D01*
X211552234Y-130411248D01*
X211522800Y-130521099D01*
X211522800Y-130667101D01*
X211547382Y-130758843D01*
X211560589Y-130808133D01*
X211633586Y-130934567D01*
X211633594Y-130934577D01*
X211736822Y-131037805D01*
X211736827Y-131037809D01*
X211736829Y-131037811D01*
X211736830Y-131037812D01*
X211736832Y-131037813D01*
X211863266Y-131110810D01*
X211863268Y-131110810D01*
X211863271Y-131110812D01*
X212004299Y-131148600D01*
X212004301Y-131148600D01*
X212150299Y-131148600D01*
X212150301Y-131148600D01*
X212291329Y-131110812D01*
X212291332Y-131110810D01*
X212291333Y-131110810D01*
X212354550Y-131074311D01*
X212417771Y-131037811D01*
X212417777Y-131037805D01*
X212445078Y-131010505D01*
X212507390Y-130976479D01*
X212534173Y-130973600D01*
X213655934Y-130973600D01*
X213655938Y-130973601D01*
X213755862Y-130973601D01*
X213831984Y-130953203D01*
X213852382Y-130947738D01*
X213938919Y-130897776D01*
X214009576Y-130827119D01*
X214019942Y-130816753D01*
X214019949Y-130816743D01*
X214720290Y-130116404D01*
X214782602Y-130082379D01*
X214809385Y-130079500D01*
X219250034Y-130079500D01*
X219250038Y-130079501D01*
X219349962Y-130079501D01*
X219426084Y-130059103D01*
X219446482Y-130053638D01*
X219533019Y-130003676D01*
X219603676Y-129933019D01*
X219614043Y-129922652D01*
X219614050Y-129922642D01*
X219993816Y-129542877D01*
X219993819Y-129542876D01*
X220064476Y-129472219D01*
X220100670Y-129409529D01*
X220114439Y-129385681D01*
X220140301Y-129289162D01*
X220140301Y-129189238D01*
X220140301Y-129181521D01*
X220140300Y-129181503D01*
X220140300Y-115012039D01*
X220138060Y-115003679D01*
X220114438Y-114915518D01*
X220114436Y-114915515D01*
X220114436Y-114915513D01*
X220064478Y-114828984D01*
X220064470Y-114828974D01*
X219989430Y-114753934D01*
X219989407Y-114753913D01*
X219113481Y-113877987D01*
X219112857Y-113877360D01*
X219105163Y-113869557D01*
X219103676Y-113866981D01*
X219033019Y-113796324D01*
X219033016Y-113796322D01*
X217610864Y-112374170D01*
X217610852Y-112374156D01*
X217533025Y-112296329D01*
X217533015Y-112296321D01*
X217446480Y-112246361D01*
X217435121Y-112243317D01*
X217435116Y-112243316D01*
X217426084Y-112240896D01*
X217349962Y-112220499D01*
X217250038Y-112220499D01*
X217250034Y-112220500D01*
X215609384Y-112220500D01*
X215541263Y-112200498D01*
X215520289Y-112183595D01*
X214391405Y-111054711D01*
X214357379Y-110992399D01*
X214354500Y-110965616D01*
X214354500Y-110927000D01*
X214354500Y-110926999D01*
X214316712Y-110785971D01*
X214316710Y-110785968D01*
X214316710Y-110785966D01*
X214243713Y-110659532D01*
X214243705Y-110659522D01*
X214140477Y-110556294D01*
X214140467Y-110556286D01*
X214014033Y-110483289D01*
X213988031Y-110476322D01*
X213873001Y-110445500D01*
X213726999Y-110445500D01*
X213639280Y-110469003D01*
X213568304Y-110467314D01*
X213509509Y-110427520D01*
X213482221Y-110367008D01*
X213452599Y-110179983D01*
X213384652Y-109970863D01*
X213384649Y-109970857D01*
X213284819Y-109774929D01*
X213241300Y-109715030D01*
X213241299Y-109715030D01*
X212573431Y-110382898D01*
X212555097Y-110314472D01*
X212489388Y-110200660D01*
X212396461Y-110107733D01*
X212282649Y-110042024D01*
X212214221Y-110023689D01*
X212882089Y-109355820D01*
X212882089Y-109355819D01*
X212822191Y-109312301D01*
X212635816Y-109217338D01*
X212618186Y-109208942D01*
X212594062Y-109187350D01*
X212568859Y-109167038D01*
X212567794Y-109163840D01*
X212565284Y-109161593D01*
X212556663Y-109130388D01*
X212549633Y-109109259D01*
X215334540Y-109109259D01*
X215334540Y-109364983D01*
X215371256Y-109596798D01*
X215374545Y-109617564D01*
X215442863Y-109827824D01*
X215453567Y-109860766D01*
X215569663Y-110088618D01*
X215719974Y-110295503D01*
X215719976Y-110295505D01*
X215719978Y-110295508D01*
X215900792Y-110476322D01*
X215900795Y-110476324D01*
X215900798Y-110476327D01*
X216107683Y-110626638D01*
X216335535Y-110742734D01*
X216578742Y-110821757D01*
X216831318Y-110861761D01*
X216831321Y-110861761D01*
X217087039Y-110861761D01*
X217087042Y-110861761D01*
X217339618Y-110821757D01*
X217582825Y-110742734D01*
X217810677Y-110626638D01*
X218017562Y-110476327D01*
X218198386Y-110295503D01*
X218348697Y-110088618D01*
X218464793Y-109860766D01*
X218543816Y-109617559D01*
X218583820Y-109364983D01*
X218583820Y-109109259D01*
X218543816Y-108856683D01*
X218464793Y-108613476D01*
X218348697Y-108385624D01*
X218198386Y-108178739D01*
X218198383Y-108178736D01*
X218198381Y-108178733D01*
X218017567Y-107997919D01*
X218017564Y-107997917D01*
X218017562Y-107997915D01*
X217851315Y-107877129D01*
X217810680Y-107847606D01*
X217810679Y-107847605D01*
X217810677Y-107847604D01*
X217582825Y-107731508D01*
X217582822Y-107731507D01*
X217582820Y-107731506D01*
X217339623Y-107652486D01*
X217339619Y-107652485D01*
X217339618Y-107652485D01*
X217087042Y-107612481D01*
X216831318Y-107612481D01*
X216578742Y-107652485D01*
X216578736Y-107652486D01*
X216335539Y-107731506D01*
X216335533Y-107731509D01*
X216107679Y-107847606D01*
X215900795Y-107997917D01*
X215900792Y-107997919D01*
X215719978Y-108178733D01*
X215719976Y-108178736D01*
X215569665Y-108385620D01*
X215453568Y-108613474D01*
X215453565Y-108613480D01*
X215374545Y-108856677D01*
X215374544Y-108856682D01*
X215374544Y-108856683D01*
X215334540Y-109109259D01*
X212549633Y-109109259D01*
X212546443Y-109099673D01*
X212547276Y-109096408D01*
X212546379Y-109093159D01*
X212555997Y-109062246D01*
X212564005Y-109030883D01*
X212566479Y-109028563D01*
X212567473Y-109025369D01*
X212590350Y-109006180D01*
X212615157Y-108982920D01*
X212689325Y-108945130D01*
X212834940Y-108839334D01*
X212962213Y-108712061D01*
X213068009Y-108566446D01*
X213149723Y-108406073D01*
X213205343Y-108234891D01*
X213233500Y-108057116D01*
X213233500Y-107877126D01*
X213205343Y-107699351D01*
X213149723Y-107528169D01*
X213068009Y-107367796D01*
X212993915Y-107265815D01*
X212962211Y-107222178D01*
X212834942Y-107094909D01*
X212689328Y-106989114D01*
X212689327Y-106989113D01*
X212689325Y-106989112D01*
X212528952Y-106907398D01*
X212528949Y-106907397D01*
X212528947Y-106907396D01*
X212357773Y-106851779D01*
X212357777Y-106851779D01*
X212324677Y-106846536D01*
X212179995Y-106823621D01*
X212000005Y-106823621D01*
X211822230Y-106851778D01*
X211822224Y-106851779D01*
X211651052Y-106907396D01*
X211651046Y-106907399D01*
X211490671Y-106989114D01*
X211345057Y-107094909D01*
X211217788Y-107222178D01*
X211111993Y-107367792D01*
X211030278Y-107528167D01*
X211030275Y-107528173D01*
X210974658Y-107699345D01*
X210974657Y-107699350D01*
X210974657Y-107699351D01*
X210946500Y-107877126D01*
X210946500Y-108057116D01*
X210974657Y-108234891D01*
X210974658Y-108234896D01*
X211027035Y-108396096D01*
X211030277Y-108406073D01*
X211111991Y-108566446D01*
X211111993Y-108566449D01*
X211217788Y-108712063D01*
X211345057Y-108839332D01*
X211366328Y-108854786D01*
X211490675Y-108945130D01*
X211564840Y-108982918D01*
X211616453Y-109031664D01*
X211633520Y-109100579D01*
X211610620Y-109167781D01*
X211557981Y-109209896D01*
X211558148Y-109210223D01*
X211556564Y-109211029D01*
X211555868Y-109211587D01*
X211553742Y-109212467D01*
X211357813Y-109312297D01*
X211297909Y-109355819D01*
X211297909Y-109355821D01*
X211965777Y-110023689D01*
X211897351Y-110042024D01*
X211783539Y-110107733D01*
X211690612Y-110200660D01*
X211624903Y-110314472D01*
X211606568Y-110382898D01*
X210938700Y-109715030D01*
X210938698Y-109715030D01*
X210895176Y-109774934D01*
X210795346Y-109970863D01*
X210794466Y-109972989D01*
X210793916Y-109973671D01*
X210793102Y-109975269D01*
X210792766Y-109975097D01*
X210749912Y-110028264D01*
X210682546Y-110050677D01*
X210613756Y-110033111D01*
X210565797Y-109981961D01*
X210528009Y-109907796D01*
X210435659Y-109780688D01*
X210422211Y-109762178D01*
X210294942Y-109634909D01*
X210149328Y-109529114D01*
X210149327Y-109529113D01*
X210149325Y-109529112D01*
X209988952Y-109447398D01*
X209988949Y-109447397D01*
X209988947Y-109447396D01*
X209817773Y-109391779D01*
X209817777Y-109391779D01*
X209784677Y-109386536D01*
X209639995Y-109363621D01*
X209460005Y-109363621D01*
X209282230Y-109391778D01*
X209282224Y-109391779D01*
X209111052Y-109447396D01*
X209111046Y-109447399D01*
X208950671Y-109529114D01*
X208805057Y-109634909D01*
X208677788Y-109762178D01*
X208571993Y-109907792D01*
X208490278Y-110068167D01*
X208490275Y-110068173D01*
X208434658Y-110239345D01*
X208434657Y-110239350D01*
X208434657Y-110239351D01*
X208406500Y-110417126D01*
X208406500Y-110597116D01*
X208429564Y-110742734D01*
X208434658Y-110774896D01*
X208487036Y-110936098D01*
X208490277Y-110946073D01*
X208554950Y-111073001D01*
X208571993Y-111106449D01*
X208677788Y-111252063D01*
X208805057Y-111379332D01*
X208867512Y-111424708D01*
X208950675Y-111485130D01*
X208950685Y-111485135D01*
X208953834Y-111487065D01*
X209001467Y-111539711D01*
X209013075Y-111609753D01*
X208984974Y-111674951D01*
X208926085Y-111714607D01*
X208888002Y-111720500D01*
X207671998Y-111720500D01*
X207603877Y-111700498D01*
X207557384Y-111646842D01*
X207547280Y-111576568D01*
X207576774Y-111511988D01*
X207606166Y-111487065D01*
X207609308Y-111485138D01*
X207609325Y-111485130D01*
X207754940Y-111379334D01*
X207882213Y-111252061D01*
X207988009Y-111106446D01*
X208069723Y-110946073D01*
X208125343Y-110774891D01*
X208153500Y-110597116D01*
X208153500Y-110417126D01*
X208125343Y-110239351D01*
X208069723Y-110068169D01*
X207988009Y-109907796D01*
X207988007Y-109907793D01*
X207988006Y-109907791D01*
X207962497Y-109872682D01*
X207958197Y-109860632D01*
X207949818Y-109850962D01*
X207946491Y-109827824D01*
X207938638Y-109805815D01*
X207941535Y-109793354D01*
X207939714Y-109780688D01*
X207949423Y-109759427D01*
X207954717Y-109736663D01*
X207963893Y-109727744D01*
X207969208Y-109716108D01*
X207988868Y-109703473D01*
X208005631Y-109687182D01*
X208019600Y-109683722D01*
X208028934Y-109677724D01*
X208064432Y-109672620D01*
X208166305Y-109672620D01*
X208166321Y-109672621D01*
X208174039Y-109672621D01*
X208273963Y-109672621D01*
X208353446Y-109651323D01*
X208370483Y-109646758D01*
X208457020Y-109596796D01*
X208527677Y-109526139D01*
X208538044Y-109515772D01*
X208538051Y-109515762D01*
X208992993Y-109060820D01*
X209055303Y-109026796D01*
X209121019Y-109030083D01*
X209282230Y-109082464D01*
X209460005Y-109110621D01*
X209460008Y-109110621D01*
X209639992Y-109110621D01*
X209639995Y-109110621D01*
X209817770Y-109082464D01*
X209988952Y-109026844D01*
X210149325Y-108945130D01*
X210294940Y-108839334D01*
X210422213Y-108712061D01*
X210528009Y-108566446D01*
X210609723Y-108406073D01*
X210665343Y-108234891D01*
X210693500Y-108057116D01*
X210693500Y-107877126D01*
X210665343Y-107699351D01*
X210609723Y-107528169D01*
X210528009Y-107367796D01*
X210453915Y-107265815D01*
X210422211Y-107222178D01*
X210294942Y-107094909D01*
X210149328Y-106989114D01*
X210149327Y-106989113D01*
X210149325Y-106989112D01*
X209988952Y-106907398D01*
X209988949Y-106907397D01*
X209988947Y-106907396D01*
X209817773Y-106851779D01*
X209817777Y-106851779D01*
X209784677Y-106846536D01*
X209639995Y-106823621D01*
X209460005Y-106823621D01*
X209282230Y-106851778D01*
X209282224Y-106851779D01*
X209111052Y-106907396D01*
X209111046Y-106907399D01*
X208950671Y-106989114D01*
X208805057Y-107094909D01*
X208677788Y-107222178D01*
X208571993Y-107367792D01*
X208490278Y-107528167D01*
X208490275Y-107528173D01*
X208434658Y-107699345D01*
X208434657Y-107699350D01*
X208434657Y-107699351D01*
X208406500Y-107877126D01*
X208406500Y-108057116D01*
X208434657Y-108234891D01*
X208434658Y-108234896D01*
X208487035Y-108396096D01*
X208489062Y-108467064D01*
X208456298Y-108524127D01*
X208103712Y-108876715D01*
X208076341Y-108891660D01*
X208050114Y-108908516D01*
X208043814Y-108909421D01*
X208041400Y-108910740D01*
X208014616Y-108913620D01*
X207983060Y-108913620D01*
X207914939Y-108893618D01*
X207868446Y-108839962D01*
X207858342Y-108769688D01*
X207881124Y-108713558D01*
X207882208Y-108712065D01*
X207882213Y-108712061D01*
X207988009Y-108566446D01*
X208069723Y-108406073D01*
X208125343Y-108234891D01*
X208153500Y-108057116D01*
X208153500Y-107877126D01*
X208125343Y-107699351D01*
X208069723Y-107528169D01*
X207988009Y-107367796D01*
X207913915Y-107265815D01*
X207882211Y-107222178D01*
X207754942Y-107094909D01*
X207609328Y-106989114D01*
X207609327Y-106989113D01*
X207609325Y-106989112D01*
X207448952Y-106907398D01*
X207448949Y-106907397D01*
X207448947Y-106907396D01*
X207277773Y-106851779D01*
X207277777Y-106851779D01*
X207244677Y-106846536D01*
X207099995Y-106823621D01*
X206920005Y-106823621D01*
X206742230Y-106851778D01*
X206742224Y-106851779D01*
X206571052Y-106907396D01*
X206571046Y-106907399D01*
X206410671Y-106989114D01*
X206265057Y-107094909D01*
X206137788Y-107222178D01*
X206031993Y-107367792D01*
X206031991Y-107367796D01*
X205994204Y-107441959D01*
X205994203Y-107441960D01*
X205945455Y-107493575D01*
X205876540Y-107510641D01*
X205809338Y-107487740D01*
X205767228Y-107435101D01*
X205766898Y-107435270D01*
X205766080Y-107433666D01*
X205765527Y-107432974D01*
X205764653Y-107430863D01*
X205664819Y-107234929D01*
X205621300Y-107175030D01*
X205621298Y-107175030D01*
X204953431Y-107842897D01*
X204935097Y-107774472D01*
X204869388Y-107660660D01*
X204776461Y-107567733D01*
X204662649Y-107502024D01*
X204594221Y-107483689D01*
X205262089Y-106815820D01*
X205262089Y-106815819D01*
X205202191Y-106772301D01*
X205006263Y-106672471D01*
X205006257Y-106672468D01*
X204797135Y-106604521D01*
X204797139Y-106604521D01*
X204579943Y-106570121D01*
X204360057Y-106570121D01*
X204142862Y-106604521D01*
X203933742Y-106672468D01*
X203933730Y-106672473D01*
X203737813Y-106772297D01*
X203677909Y-106815819D01*
X203677909Y-106815821D01*
X204345777Y-107483689D01*
X204277351Y-107502024D01*
X204163539Y-107567733D01*
X204070612Y-107660660D01*
X204004903Y-107774472D01*
X203986568Y-107842899D01*
X203318699Y-107175030D01*
X203318698Y-107175030D01*
X203275176Y-107234934D01*
X203175346Y-107430863D01*
X203174466Y-107432989D01*
X203173916Y-107433671D01*
X203173102Y-107435269D01*
X203172766Y-107435097D01*
X203129912Y-107488264D01*
X203062546Y-107510677D01*
X202993756Y-107493111D01*
X202945797Y-107441960D01*
X202908009Y-107367796D01*
X202833915Y-107265815D01*
X202802211Y-107222178D01*
X202674942Y-107094909D01*
X202529325Y-106989112D01*
X202503805Y-106976109D01*
X202368952Y-106907398D01*
X202368949Y-106907397D01*
X202368947Y-106907396D01*
X202197773Y-106851779D01*
X202197777Y-106851779D01*
X202164677Y-106846536D01*
X202019995Y-106823621D01*
X201840005Y-106823621D01*
X201662230Y-106851778D01*
X201662224Y-106851779D01*
X201491052Y-106907396D01*
X201491046Y-106907399D01*
X201330671Y-106989114D01*
X201185057Y-107094909D01*
X201057788Y-107222178D01*
X200951993Y-107367792D01*
X200951991Y-107367796D01*
X200914204Y-107441959D01*
X200914203Y-107441960D01*
X200865455Y-107493575D01*
X200796540Y-107510641D01*
X200729338Y-107487740D01*
X200687228Y-107435101D01*
X200686898Y-107435270D01*
X200686080Y-107433666D01*
X200685527Y-107432974D01*
X200684653Y-107430863D01*
X200584819Y-107234929D01*
X200541300Y-107175030D01*
X200541298Y-107175030D01*
X199873431Y-107842897D01*
X199855097Y-107774472D01*
X199789388Y-107660660D01*
X199696461Y-107567733D01*
X199582649Y-107502024D01*
X199514221Y-107483689D01*
X200182089Y-106815820D01*
X200182089Y-106815819D01*
X200122191Y-106772301D01*
X199926263Y-106672471D01*
X199926257Y-106672468D01*
X199717135Y-106604521D01*
X199717139Y-106604521D01*
X199499943Y-106570121D01*
X199280057Y-106570121D01*
X199062862Y-106604521D01*
X198853742Y-106672468D01*
X198853730Y-106672473D01*
X198657813Y-106772297D01*
X198597909Y-106815819D01*
X198597909Y-106815821D01*
X199265777Y-107483689D01*
X199197351Y-107502024D01*
X199083539Y-107567733D01*
X198990612Y-107660660D01*
X198924903Y-107774472D01*
X198906568Y-107842899D01*
X198238699Y-107175030D01*
X198238698Y-107175030D01*
X198195176Y-107234934D01*
X198095346Y-107430863D01*
X198094466Y-107432989D01*
X198093916Y-107433671D01*
X198093102Y-107435269D01*
X198092766Y-107435097D01*
X198049912Y-107488264D01*
X197982546Y-107510677D01*
X197913756Y-107493111D01*
X197865797Y-107441960D01*
X197828009Y-107367796D01*
X197753915Y-107265815D01*
X197722211Y-107222178D01*
X197594942Y-107094909D01*
X197449325Y-106989112D01*
X197423805Y-106976109D01*
X197288952Y-106907398D01*
X197288949Y-106907397D01*
X197288947Y-106907396D01*
X197117773Y-106851779D01*
X197117777Y-106851779D01*
X197084677Y-106846536D01*
X196939995Y-106823621D01*
X196760005Y-106823621D01*
X196582230Y-106851778D01*
X196582224Y-106851779D01*
X196411052Y-106907396D01*
X196411046Y-106907399D01*
X196250671Y-106989114D01*
X196105057Y-107094909D01*
X195977788Y-107222178D01*
X195871993Y-107367792D01*
X195790278Y-107528167D01*
X195790275Y-107528173D01*
X195734658Y-107699345D01*
X195734657Y-107699350D01*
X195734657Y-107699351D01*
X195706500Y-107877126D01*
X195706500Y-108057116D01*
X195734657Y-108234891D01*
X195734658Y-108234896D01*
X195787035Y-108396096D01*
X195790277Y-108406073D01*
X195871991Y-108566446D01*
X195871993Y-108566449D01*
X195977788Y-108712063D01*
X196058199Y-108792474D01*
X196092225Y-108854786D01*
X196087160Y-108925601D01*
X196055668Y-108973126D01*
X196044915Y-108983292D01*
X196034260Y-108989444D01*
X195963603Y-109060101D01*
X195963601Y-109060103D01*
X195962355Y-109061348D01*
X195962337Y-109061366D01*
X195665168Y-109358536D01*
X195372383Y-109651321D01*
X195372381Y-109651323D01*
X195351084Y-109672620D01*
X195301725Y-109721978D01*
X195301721Y-109721983D01*
X195251761Y-109808518D01*
X195247468Y-109824541D01*
X195225899Y-109905033D01*
X195224821Y-109913225D01*
X195221623Y-109912803D01*
X195205897Y-109966363D01*
X195188994Y-109987338D01*
X194793431Y-110382899D01*
X194775097Y-110314472D01*
X194709388Y-110200660D01*
X194616461Y-110107733D01*
X194502649Y-110042024D01*
X194434221Y-110023689D01*
X195102089Y-109355820D01*
X195102089Y-109355819D01*
X195042191Y-109312301D01*
X194846256Y-109212467D01*
X194844138Y-109211590D01*
X194843457Y-109211041D01*
X194841851Y-109210223D01*
X194842023Y-109209885D01*
X194788859Y-109167038D01*
X194766443Y-109099673D01*
X194784005Y-109030883D01*
X194835157Y-108982920D01*
X194909325Y-108945130D01*
X195054940Y-108839334D01*
X195182213Y-108712061D01*
X195288009Y-108566446D01*
X195369723Y-108406073D01*
X195425343Y-108234891D01*
X195453500Y-108057116D01*
X195453500Y-107877126D01*
X195425343Y-107699351D01*
X195369723Y-107528169D01*
X195288009Y-107367796D01*
X195213915Y-107265815D01*
X195182211Y-107222178D01*
X195054942Y-107094909D01*
X194909328Y-106989114D01*
X194909327Y-106989113D01*
X194909325Y-106989112D01*
X194748952Y-106907398D01*
X194748949Y-106907397D01*
X194748947Y-106907396D01*
X194577773Y-106851779D01*
X194577777Y-106851779D01*
X194544677Y-106846536D01*
X194399995Y-106823621D01*
X194220005Y-106823621D01*
X194042230Y-106851778D01*
X194042224Y-106851779D01*
X193871052Y-106907396D01*
X193871046Y-106907399D01*
X193710671Y-106989114D01*
X193565057Y-107094909D01*
X193437788Y-107222178D01*
X193331993Y-107367792D01*
X193250278Y-107528167D01*
X193250275Y-107528173D01*
X193194658Y-107699345D01*
X193194657Y-107699350D01*
X193194657Y-107699351D01*
X193166500Y-107877126D01*
X193166500Y-108057116D01*
X193194657Y-108234891D01*
X193194658Y-108234896D01*
X193247035Y-108396096D01*
X193250277Y-108406073D01*
X193331991Y-108566446D01*
X193331993Y-108566449D01*
X193437788Y-108712063D01*
X193565057Y-108839332D01*
X193586328Y-108854786D01*
X193710675Y-108945130D01*
X193784840Y-108982918D01*
X193836453Y-109031664D01*
X193853520Y-109100579D01*
X193830620Y-109167781D01*
X193777981Y-109209896D01*
X193778148Y-109210223D01*
X193776564Y-109211029D01*
X193775868Y-109211587D01*
X193773742Y-109212467D01*
X193577813Y-109312297D01*
X193517909Y-109355819D01*
X193517909Y-109355821D01*
X194185777Y-110023689D01*
X194117351Y-110042024D01*
X194003539Y-110107733D01*
X193910612Y-110200660D01*
X193844903Y-110314472D01*
X193826568Y-110382898D01*
X193158700Y-109715030D01*
X193158698Y-109715030D01*
X193115176Y-109774934D01*
X193015346Y-109970863D01*
X193014466Y-109972989D01*
X193013916Y-109973671D01*
X193013102Y-109975269D01*
X193012766Y-109975097D01*
X192969912Y-110028264D01*
X192902546Y-110050677D01*
X192833756Y-110033111D01*
X192785797Y-109981961D01*
X192748009Y-109907796D01*
X192655659Y-109780688D01*
X192642211Y-109762178D01*
X192514942Y-109634909D01*
X192369328Y-109529114D01*
X192369327Y-109529113D01*
X192369325Y-109529112D01*
X192208952Y-109447398D01*
X192208949Y-109447397D01*
X192208947Y-109447396D01*
X192037773Y-109391779D01*
X192037777Y-109391779D01*
X192004677Y-109386536D01*
X191859995Y-109363621D01*
X191680005Y-109363621D01*
X191502230Y-109391778D01*
X191502224Y-109391779D01*
X191331052Y-109447396D01*
X191331046Y-109447399D01*
X191170671Y-109529114D01*
X191025057Y-109634909D01*
X190897788Y-109762178D01*
X190791993Y-109907792D01*
X190710278Y-110068167D01*
X190710275Y-110068173D01*
X190654658Y-110239345D01*
X190654657Y-110239350D01*
X190654657Y-110239351D01*
X190626500Y-110417126D01*
X190626500Y-110597116D01*
X190649564Y-110742734D01*
X190654658Y-110774896D01*
X190707036Y-110936098D01*
X190710277Y-110946073D01*
X190774950Y-111073001D01*
X190791993Y-111106449D01*
X190897788Y-111252063D01*
X191025057Y-111379332D01*
X191087512Y-111424708D01*
X191170675Y-111485130D01*
X191331048Y-111566844D01*
X191502224Y-111622462D01*
X191502225Y-111622462D01*
X191502230Y-111622464D01*
X191680005Y-111650621D01*
X191680008Y-111650621D01*
X191859992Y-111650621D01*
X191859995Y-111650621D01*
X192037770Y-111622464D01*
X192208952Y-111566844D01*
X192369325Y-111485130D01*
X192514940Y-111379334D01*
X192642213Y-111252061D01*
X192748009Y-111106446D01*
X192785799Y-111032278D01*
X192834543Y-110980667D01*
X192903457Y-110963600D01*
X192970659Y-110986500D01*
X193012773Y-111039139D01*
X193013102Y-111038972D01*
X193013913Y-111040564D01*
X193014469Y-111041259D01*
X193015346Y-111043377D01*
X193115180Y-111239312D01*
X193158698Y-111299210D01*
X193158699Y-111299210D01*
X193826567Y-110631341D01*
X193844903Y-110699770D01*
X193910612Y-110813582D01*
X194003539Y-110906509D01*
X194117351Y-110972218D01*
X194185776Y-110990552D01*
X193517909Y-111658419D01*
X193517909Y-111658421D01*
X193577808Y-111701940D01*
X193773736Y-111801770D01*
X193773742Y-111801773D01*
X193900996Y-111843120D01*
X193903300Y-111844695D01*
X193906087Y-111844895D01*
X193932438Y-111864619D01*
X193959602Y-111883193D01*
X193960689Y-111885765D01*
X193962925Y-111887439D01*
X193974429Y-111918278D01*
X193987239Y-111948590D01*
X193986762Y-111951341D01*
X193987739Y-111953958D01*
X193980744Y-111986116D01*
X193975132Y-112018547D01*
X193973061Y-112021439D01*
X193972650Y-112023333D01*
X193951160Y-112052044D01*
X193940644Y-112062560D01*
X193930124Y-112073081D01*
X193930122Y-112073083D01*
X193060983Y-112942222D01*
X193060981Y-112942224D01*
X193025653Y-112977552D01*
X192990325Y-113012879D01*
X192990321Y-113012884D01*
X192940361Y-113099419D01*
X192936068Y-113115442D01*
X192914499Y-113195934D01*
X192914499Y-113306012D01*
X192914500Y-113306025D01*
X192914500Y-116046416D01*
X192894498Y-116114537D01*
X192877595Y-116135511D01*
X192561311Y-116451795D01*
X192498999Y-116485821D01*
X192472216Y-116488700D01*
X192433599Y-116488700D01*
X192364578Y-116507194D01*
X192292566Y-116526489D01*
X192166132Y-116599486D01*
X192166122Y-116599494D01*
X192062894Y-116702722D01*
X192062886Y-116702732D01*
X191989889Y-116829166D01*
X191986705Y-116841050D01*
X191952100Y-116970199D01*
X191952100Y-117116201D01*
X191968145Y-117176082D01*
X191989889Y-117257233D01*
X192062886Y-117383667D01*
X192062894Y-117383677D01*
X192166122Y-117486905D01*
X192166127Y-117486909D01*
X192166129Y-117486911D01*
X192166130Y-117486912D01*
X192166132Y-117486913D01*
X192292566Y-117559910D01*
X192292568Y-117559910D01*
X192292571Y-117559912D01*
X192433599Y-117597700D01*
X192433601Y-117597700D01*
X192579599Y-117597700D01*
X192579601Y-117597700D01*
X192720629Y-117559912D01*
X192720632Y-117559910D01*
X192720633Y-117559910D01*
X192783850Y-117523411D01*
X192847071Y-117486911D01*
X192950311Y-117383671D01*
X193001217Y-117295499D01*
X193023310Y-117257233D01*
X193023310Y-117257232D01*
X193023312Y-117257229D01*
X193061100Y-117116201D01*
X193061100Y-117077584D01*
X193081102Y-117009463D01*
X193098000Y-116988493D01*
X193516643Y-116569849D01*
X193516653Y-116569842D01*
X193597670Y-116488825D01*
X193597676Y-116488819D01*
X193647638Y-116402282D01*
X193660066Y-116355900D01*
X193673501Y-116305762D01*
X193673501Y-116205838D01*
X193673500Y-116205834D01*
X193673500Y-113455284D01*
X193693502Y-113387163D01*
X193710405Y-113366189D01*
X194354089Y-112722505D01*
X194416401Y-112688479D01*
X194443184Y-112685600D01*
X194768034Y-112685600D01*
X194768038Y-112685601D01*
X194867962Y-112685601D01*
X194944084Y-112665203D01*
X194964482Y-112659738D01*
X195051019Y-112609776D01*
X195121676Y-112539119D01*
X195132043Y-112528752D01*
X195132050Y-112528742D01*
X195828042Y-111832750D01*
X195828052Y-111832743D01*
X195909070Y-111751725D01*
X195909076Y-111751719D01*
X195959038Y-111665182D01*
X195970484Y-111622464D01*
X195984901Y-111568662D01*
X195984901Y-111529205D01*
X195986516Y-111519215D01*
X195997636Y-111495947D01*
X196004903Y-111471201D01*
X196012689Y-111464454D01*
X196017132Y-111455159D01*
X196039068Y-111441596D01*
X196058559Y-111424708D01*
X196068755Y-111423241D01*
X196077519Y-111417824D01*
X196103304Y-111418274D01*
X196128833Y-111414604D01*
X196139430Y-111418905D01*
X196148505Y-111419064D01*
X196161970Y-111428053D01*
X196184959Y-111437384D01*
X196250675Y-111485130D01*
X196411048Y-111566844D01*
X196582224Y-111622462D01*
X196582225Y-111622462D01*
X196582230Y-111622464D01*
X196760005Y-111650621D01*
X196760008Y-111650621D01*
X196880494Y-111650621D01*
X196948615Y-111670623D01*
X196995108Y-111724279D01*
X197005212Y-111794553D01*
X196975718Y-111859133D01*
X196969589Y-111865716D01*
X196968324Y-111866981D01*
X196968322Y-111866983D01*
X195702583Y-113132722D01*
X195702581Y-113132724D01*
X195667253Y-113168052D01*
X195631925Y-113203379D01*
X195631921Y-113203384D01*
X195581963Y-113289914D01*
X195581963Y-113289915D01*
X195581962Y-113289917D01*
X195581962Y-113289918D01*
X195576496Y-113310315D01*
X195556625Y-113384476D01*
X195556099Y-113386439D01*
X195556099Y-113496512D01*
X195556100Y-113496525D01*
X195556100Y-115105016D01*
X195536098Y-115173137D01*
X195519195Y-115194111D01*
X190969597Y-119743709D01*
X190949865Y-119754483D01*
X190932876Y-119769213D01*
X190919313Y-119771166D01*
X190907285Y-119777735D01*
X190884855Y-119776130D01*
X190862605Y-119779336D01*
X190850140Y-119773647D01*
X190836470Y-119772670D01*
X190818469Y-119759194D01*
X190798016Y-119749861D01*
X190790604Y-119738335D01*
X190779634Y-119730123D01*
X190771776Y-119709056D01*
X190759616Y-119690146D01*
X190756406Y-119667849D01*
X190755306Y-119664899D01*
X190755273Y-119664903D01*
X190755272Y-119664894D01*
X190755266Y-119664791D01*
X190754823Y-119663603D01*
X190754502Y-119654649D01*
X190754501Y-119651015D01*
X190754502Y-119651011D01*
X190754502Y-119650998D01*
X190754501Y-119650980D01*
X190754501Y-116110124D01*
X190754502Y-116110111D01*
X190754502Y-116000037D01*
X190754501Y-116000033D01*
X190728640Y-115903519D01*
X190728639Y-115903517D01*
X190721107Y-115890471D01*
X190678677Y-115816980D01*
X190608020Y-115746323D01*
X190608017Y-115746321D01*
X186723775Y-111862079D01*
X186689749Y-111799767D01*
X186694814Y-111728952D01*
X186737361Y-111672116D01*
X186793155Y-111648536D01*
X186957770Y-111622464D01*
X187128952Y-111566844D01*
X187289325Y-111485130D01*
X187434940Y-111379334D01*
X187562213Y-111252061D01*
X187668009Y-111106446D01*
X187749723Y-110946073D01*
X187805343Y-110774891D01*
X187833500Y-110597116D01*
X187833500Y-110417126D01*
X188086500Y-110417126D01*
X188086500Y-110597116D01*
X188109564Y-110742734D01*
X188114658Y-110774896D01*
X188167036Y-110936098D01*
X188170277Y-110946073D01*
X188234950Y-111073001D01*
X188251993Y-111106449D01*
X188357788Y-111252063D01*
X188485057Y-111379332D01*
X188547512Y-111424708D01*
X188630675Y-111485130D01*
X188791048Y-111566844D01*
X188962224Y-111622462D01*
X188962225Y-111622462D01*
X188962230Y-111622464D01*
X189140005Y-111650621D01*
X189140008Y-111650621D01*
X189319992Y-111650621D01*
X189319995Y-111650621D01*
X189497770Y-111622464D01*
X189668952Y-111566844D01*
X189829325Y-111485130D01*
X189974940Y-111379334D01*
X190102213Y-111252061D01*
X190208009Y-111106446D01*
X190289723Y-110946073D01*
X190345343Y-110774891D01*
X190373500Y-110597116D01*
X190373500Y-110417126D01*
X190345343Y-110239351D01*
X190289723Y-110068169D01*
X190208009Y-109907796D01*
X190115659Y-109780688D01*
X190102211Y-109762178D01*
X189974942Y-109634909D01*
X189829328Y-109529114D01*
X189829327Y-109529113D01*
X189829325Y-109529112D01*
X189668952Y-109447398D01*
X189668949Y-109447397D01*
X189668947Y-109447396D01*
X189497773Y-109391779D01*
X189497777Y-109391779D01*
X189464677Y-109386536D01*
X189319995Y-109363621D01*
X189140005Y-109363621D01*
X188962230Y-109391778D01*
X188962224Y-109391779D01*
X188791052Y-109447396D01*
X188791046Y-109447399D01*
X188630671Y-109529114D01*
X188485057Y-109634909D01*
X188357788Y-109762178D01*
X188251993Y-109907792D01*
X188170278Y-110068167D01*
X188170275Y-110068173D01*
X188114658Y-110239345D01*
X188114657Y-110239350D01*
X188114657Y-110239351D01*
X188086500Y-110417126D01*
X187833500Y-110417126D01*
X187805343Y-110239351D01*
X187749723Y-110068169D01*
X187668009Y-109907796D01*
X187575659Y-109780688D01*
X187562211Y-109762178D01*
X187434942Y-109634909D01*
X187289325Y-109529112D01*
X187269126Y-109518820D01*
X187215160Y-109491323D01*
X187163545Y-109442576D01*
X187146479Y-109373661D01*
X187169379Y-109306460D01*
X187222019Y-109264350D01*
X187221851Y-109264019D01*
X187223457Y-109263200D01*
X187224152Y-109262645D01*
X187226265Y-109261769D01*
X187422187Y-109161942D01*
X187482089Y-109118420D01*
X187482089Y-109118419D01*
X186814222Y-108450552D01*
X186882649Y-108432218D01*
X186996461Y-108366509D01*
X187089388Y-108273582D01*
X187155097Y-108159770D01*
X187173431Y-108091343D01*
X187841298Y-108759210D01*
X187841299Y-108759210D01*
X187884821Y-108699308D01*
X187984648Y-108503386D01*
X187985524Y-108501273D01*
X187986072Y-108500592D01*
X187986898Y-108498972D01*
X187987238Y-108499145D01*
X188030069Y-108445990D01*
X188097431Y-108423565D01*
X188166223Y-108441118D01*
X188214202Y-108492281D01*
X188251989Y-108566443D01*
X188251991Y-108566446D01*
X188357788Y-108712063D01*
X188485057Y-108839332D01*
X188506328Y-108854786D01*
X188630675Y-108945130D01*
X188791048Y-109026844D01*
X188962224Y-109082462D01*
X188962225Y-109082462D01*
X188962230Y-109082464D01*
X189140005Y-109110621D01*
X189140008Y-109110621D01*
X189319992Y-109110621D01*
X189319995Y-109110621D01*
X189497770Y-109082464D01*
X189668952Y-109026844D01*
X189829325Y-108945130D01*
X189974940Y-108839334D01*
X190102213Y-108712061D01*
X190208009Y-108566446D01*
X190289723Y-108406073D01*
X190345343Y-108234891D01*
X190373500Y-108057116D01*
X190373500Y-107877126D01*
X190626500Y-107877126D01*
X190626500Y-108057116D01*
X190654657Y-108234891D01*
X190654658Y-108234896D01*
X190707035Y-108396096D01*
X190710277Y-108406073D01*
X190791991Y-108566446D01*
X190791993Y-108566449D01*
X190897788Y-108712063D01*
X191025057Y-108839332D01*
X191046328Y-108854786D01*
X191170675Y-108945130D01*
X191331048Y-109026844D01*
X191502224Y-109082462D01*
X191502225Y-109082462D01*
X191502230Y-109082464D01*
X191680005Y-109110621D01*
X191680008Y-109110621D01*
X191859992Y-109110621D01*
X191859995Y-109110621D01*
X192037770Y-109082464D01*
X192208952Y-109026844D01*
X192369325Y-108945130D01*
X192514940Y-108839334D01*
X192642213Y-108712061D01*
X192748009Y-108566446D01*
X192829723Y-108406073D01*
X192885343Y-108234891D01*
X192913500Y-108057116D01*
X192913500Y-107877126D01*
X192885343Y-107699351D01*
X192829723Y-107528169D01*
X192748009Y-107367796D01*
X192673915Y-107265815D01*
X192642211Y-107222178D01*
X192514942Y-107094909D01*
X192369328Y-106989114D01*
X192369327Y-106989113D01*
X192369325Y-106989112D01*
X192208952Y-106907398D01*
X192208949Y-106907397D01*
X192208947Y-106907396D01*
X192037773Y-106851779D01*
X192037777Y-106851779D01*
X192004677Y-106846536D01*
X191859995Y-106823621D01*
X191680005Y-106823621D01*
X191502230Y-106851778D01*
X191502224Y-106851779D01*
X191331052Y-106907396D01*
X191331046Y-106907399D01*
X191170671Y-106989114D01*
X191025057Y-107094909D01*
X190897788Y-107222178D01*
X190791993Y-107367792D01*
X190710278Y-107528167D01*
X190710275Y-107528173D01*
X190654658Y-107699345D01*
X190654657Y-107699350D01*
X190654657Y-107699351D01*
X190626500Y-107877126D01*
X190373500Y-107877126D01*
X190345343Y-107699351D01*
X190289723Y-107528169D01*
X190208009Y-107367796D01*
X190133915Y-107265815D01*
X190102211Y-107222178D01*
X189974942Y-107094909D01*
X189829328Y-106989114D01*
X189829327Y-106989113D01*
X189829325Y-106989112D01*
X189668952Y-106907398D01*
X189668949Y-106907397D01*
X189668947Y-106907396D01*
X189497773Y-106851779D01*
X189497777Y-106851779D01*
X189464677Y-106846536D01*
X189319995Y-106823621D01*
X189140005Y-106823621D01*
X188962230Y-106851778D01*
X188962224Y-106851779D01*
X188791052Y-106907396D01*
X188791046Y-106907399D01*
X188630671Y-106989114D01*
X188485057Y-107094909D01*
X188357788Y-107222178D01*
X188251993Y-107367792D01*
X188251991Y-107367796D01*
X188214204Y-107441959D01*
X188214203Y-107441960D01*
X188165455Y-107493575D01*
X188096540Y-107510641D01*
X188029338Y-107487740D01*
X187987228Y-107435101D01*
X187986898Y-107435270D01*
X187986080Y-107433666D01*
X187985527Y-107432974D01*
X187984653Y-107430863D01*
X187884819Y-107234929D01*
X187841300Y-107175030D01*
X187841299Y-107175030D01*
X187173431Y-107842898D01*
X187155097Y-107774472D01*
X187089388Y-107660660D01*
X186996461Y-107567733D01*
X186882649Y-107502024D01*
X186814221Y-107483689D01*
X187482089Y-106815820D01*
X187482089Y-106815819D01*
X187422191Y-106772301D01*
X187226263Y-106672471D01*
X187226257Y-106672468D01*
X187017135Y-106604521D01*
X187017139Y-106604521D01*
X186799943Y-106570121D01*
X186580057Y-106570121D01*
X186362862Y-106604521D01*
X186153742Y-106672468D01*
X186153730Y-106672473D01*
X185957813Y-106772297D01*
X185897909Y-106815819D01*
X185897909Y-106815821D01*
X186565777Y-107483689D01*
X186497351Y-107502024D01*
X186383539Y-107567733D01*
X186290612Y-107660660D01*
X186224903Y-107774472D01*
X186206568Y-107842898D01*
X185538700Y-107175030D01*
X185538698Y-107175030D01*
X185495176Y-107234934D01*
X185395346Y-107430863D01*
X185394466Y-107432989D01*
X185393916Y-107433671D01*
X185393102Y-107435269D01*
X185392766Y-107435097D01*
X185349912Y-107488264D01*
X185282546Y-107510677D01*
X185213756Y-107493111D01*
X185165797Y-107441960D01*
X185128009Y-107367796D01*
X185053915Y-107265815D01*
X185022211Y-107222178D01*
X184894942Y-107094909D01*
X184749325Y-106989112D01*
X184723805Y-106976109D01*
X184588952Y-106907398D01*
X184588949Y-106907397D01*
X184588947Y-106907396D01*
X184417773Y-106851779D01*
X184417777Y-106851779D01*
X184384677Y-106846536D01*
X184239995Y-106823621D01*
X184060005Y-106823621D01*
X183882230Y-106851778D01*
X183882224Y-106851779D01*
X183711052Y-106907396D01*
X183711046Y-106907399D01*
X183550671Y-106989114D01*
X183405059Y-107094908D01*
X183324646Y-107175321D01*
X183262333Y-107209346D01*
X183191518Y-107204280D01*
X183144105Y-107172906D01*
X183133871Y-107162109D01*
X183127677Y-107151381D01*
X183057020Y-107080724D01*
X183057017Y-107080722D01*
X182503585Y-106527290D01*
X182503573Y-106527276D01*
X182425746Y-106449449D01*
X182425736Y-106449441D01*
X182355037Y-106408624D01*
X182339203Y-106399482D01*
X182339202Y-106399481D01*
X182339201Y-106399481D01*
X182327842Y-106396437D01*
X182327837Y-106396436D01*
X182318805Y-106394016D01*
X182242683Y-106373619D01*
X182142759Y-106373619D01*
X182142755Y-106373620D01*
X167641697Y-106373620D01*
X167641681Y-106373619D01*
X167633963Y-106373619D01*
X167534039Y-106373619D01*
X167501867Y-106382239D01*
X167457917Y-106394015D01*
X167457916Y-106394016D01*
X167437519Y-106399482D01*
X167437518Y-106399482D01*
X167437516Y-106399483D01*
X167437515Y-106399483D01*
X167350985Y-106449441D01*
X167350980Y-106449445D01*
X167315653Y-106484773D01*
X167280325Y-106520101D01*
X167280323Y-106520103D01*
X167029100Y-106771326D01*
X166927007Y-106873419D01*
X166864695Y-106907444D01*
X166798976Y-106904156D01*
X166637774Y-106851779D01*
X166637777Y-106851779D01*
X166604677Y-106846536D01*
X166459995Y-106823621D01*
X166280005Y-106823621D01*
X166102230Y-106851778D01*
X166102224Y-106851779D01*
X165931052Y-106907396D01*
X165931046Y-106907399D01*
X165770671Y-106989114D01*
X165625057Y-107094909D01*
X165497788Y-107222178D01*
X165391992Y-107367793D01*
X165383269Y-107384913D01*
X165357698Y-107435101D01*
X165353253Y-107443824D01*
X165304504Y-107495439D01*
X165240986Y-107512621D01*
X164959014Y-107512621D01*
X164890893Y-107492619D01*
X164846747Y-107443824D01*
X164845059Y-107440511D01*
X164808009Y-107367796D01*
X164808006Y-107367791D01*
X164702211Y-107222178D01*
X164574942Y-107094909D01*
X164429328Y-106989114D01*
X164429327Y-106989113D01*
X164429325Y-106989112D01*
X164268952Y-106907398D01*
X164268949Y-106907397D01*
X164268947Y-106907396D01*
X164097773Y-106851779D01*
X164097777Y-106851779D01*
X164064677Y-106846536D01*
X163919995Y-106823621D01*
X163740005Y-106823621D01*
X163562230Y-106851778D01*
X163562224Y-106851779D01*
X163391052Y-106907396D01*
X163391046Y-106907399D01*
X163230671Y-106989114D01*
X163085057Y-107094909D01*
X162957788Y-107222178D01*
X162851991Y-107367795D01*
X162838266Y-107394732D01*
X162789518Y-107446347D01*
X162720602Y-107463412D01*
X162653401Y-107440511D01*
X162609249Y-107384913D01*
X162600000Y-107337528D01*
X162600000Y-105801500D01*
X162620002Y-105733379D01*
X162673658Y-105686886D01*
X162726000Y-105675500D01*
X217475469Y-105675500D01*
X217496461Y-105675500D01*
X217503525Y-105675697D01*
G37*
%TD.AperFunction*%
%TA.AperFunction,Conductor*%
G36*
X217574075Y-128192993D02*
G01*
X217639901Y-128307007D01*
X217732993Y-128400099D01*
X217847007Y-128465925D01*
X217915051Y-128484157D01*
X217275831Y-129123378D01*
X217280388Y-129181285D01*
X217279570Y-129181349D01*
X217282848Y-129219527D01*
X217249714Y-129282317D01*
X217187893Y-129317227D01*
X217159359Y-129320500D01*
X215805688Y-129320500D01*
X215737567Y-129300498D01*
X215691074Y-129246842D01*
X215680970Y-129176568D01*
X215710464Y-129111988D01*
X215766752Y-129074667D01*
X215827066Y-129055069D01*
X215923981Y-129023580D01*
X216078884Y-128944653D01*
X216219533Y-128842465D01*
X216342465Y-128719533D01*
X216444653Y-128578884D01*
X216523580Y-128423981D01*
X216523581Y-128423975D01*
X216523658Y-128423826D01*
X216572406Y-128372210D01*
X216641321Y-128355144D01*
X216708522Y-128378044D01*
X216752675Y-128433642D01*
X216755758Y-128442091D01*
X216781492Y-128521289D01*
X216781493Y-128521292D01*
X216878535Y-128711748D01*
X216878536Y-128711750D01*
X216916620Y-128764167D01*
X216916621Y-128764168D01*
X217555841Y-128124947D01*
X217574075Y-128192993D01*
G37*
%TD.AperFunction*%
%TA.AperFunction,Conductor*%
G36*
X219163376Y-128764167D02*
G01*
X219172129Y-128763478D01*
X219178739Y-128758381D01*
X219202958Y-128737397D01*
X219206642Y-128736867D01*
X219209589Y-128734595D01*
X219241510Y-128731853D01*
X219273232Y-128727293D01*
X219276617Y-128728839D01*
X219280325Y-128728521D01*
X219308668Y-128743476D01*
X219337812Y-128756787D01*
X219339823Y-128759916D01*
X219343116Y-128761654D01*
X219358875Y-128789562D01*
X219376196Y-128816513D01*
X219376913Y-128821505D01*
X219378026Y-128823475D01*
X219381300Y-128852011D01*
X219381300Y-129029816D01*
X219361298Y-129097937D01*
X219344395Y-129118911D01*
X219179711Y-129283595D01*
X219117399Y-129317621D01*
X219090616Y-129320500D01*
X218920639Y-129320500D01*
X218852518Y-129300498D01*
X218806025Y-129246842D01*
X218795921Y-129176568D01*
X218800827Y-129165824D01*
X218804167Y-129123376D01*
X218164948Y-128484157D01*
X218232993Y-128465925D01*
X218347007Y-128400099D01*
X218440099Y-128307007D01*
X218505925Y-128192993D01*
X218524157Y-128124948D01*
X219163376Y-128764167D01*
G37*
%TD.AperFunction*%
%TA.AperFunction,Conductor*%
G36*
X190387993Y-127461551D02*
G01*
X190394576Y-127467680D01*
X191280504Y-128353608D01*
X191280525Y-128353631D01*
X191355565Y-128428671D01*
X191355570Y-128428675D01*
X191355572Y-128428677D01*
X191355573Y-128428678D01*
X191355575Y-128428679D01*
X191442104Y-128478637D01*
X191442106Y-128478637D01*
X191442109Y-128478639D01*
X191538629Y-128504501D01*
X206090705Y-128504501D01*
X206106128Y-128507311D01*
X206140495Y-128504501D01*
X206174961Y-128504501D01*
X206179088Y-128503394D01*
X206201443Y-128499517D01*
X206205720Y-128499168D01*
X206238185Y-128487560D01*
X206271481Y-128478639D01*
X206285051Y-128470804D01*
X206299811Y-128465527D01*
X206328162Y-128445913D01*
X206358018Y-128428677D01*
X206369102Y-128417592D01*
X206381989Y-128408678D01*
X206401003Y-128386276D01*
X206403760Y-128383138D01*
X206405782Y-128380911D01*
X206428675Y-128358020D01*
X206432332Y-128351684D01*
X206441426Y-128341674D01*
X206460629Y-128329959D01*
X206476903Y-128314429D01*
X206490345Y-128311831D01*
X206502035Y-128304701D01*
X206524524Y-128305228D01*
X206546611Y-128300961D01*
X206559324Y-128306044D01*
X206573012Y-128306365D01*
X206591645Y-128318966D01*
X206612533Y-128327318D01*
X206620480Y-128338467D01*
X206631822Y-128346138D01*
X206640684Y-128366813D01*
X206653742Y-128385132D01*
X206654399Y-128398807D01*
X206659794Y-128411392D01*
X206656071Y-128433576D01*
X206657152Y-128456046D01*
X206656397Y-128459007D01*
X206649823Y-128483542D01*
X206617212Y-128540026D01*
X205898645Y-129258595D01*
X205836332Y-129292620D01*
X205809549Y-129295500D01*
X194105545Y-129295500D01*
X194042546Y-129278619D01*
X193964029Y-129233288D01*
X193823001Y-129195500D01*
X193676999Y-129195500D01*
X193535971Y-129233288D01*
X193535970Y-129233288D01*
X193535968Y-129233289D01*
X193506862Y-129250094D01*
X193457453Y-129278619D01*
X193394455Y-129295500D01*
X191240450Y-129295500D01*
X191172329Y-129275498D01*
X191151355Y-129258595D01*
X190216386Y-128323626D01*
X190182360Y-128261314D01*
X190179481Y-128234531D01*
X190179481Y-127556775D01*
X190199483Y-127488654D01*
X190253139Y-127442161D01*
X190323413Y-127432057D01*
X190387993Y-127461551D01*
G37*
%TD.AperFunction*%
%TA.AperFunction,Conductor*%
G36*
X205573952Y-122455965D02*
G01*
X205588355Y-122455108D01*
X205607335Y-122465767D01*
X205628227Y-122471902D01*
X205637676Y-122482807D01*
X205650257Y-122489873D01*
X205660461Y-122509103D01*
X205674720Y-122525558D01*
X205676773Y-122539841D01*
X205683537Y-122552586D01*
X205681725Y-122574279D01*
X205684824Y-122595832D01*
X205678713Y-122610338D01*
X205677628Y-122623337D01*
X205660067Y-122654606D01*
X205656287Y-122659531D01*
X205583289Y-122785966D01*
X205583288Y-122785971D01*
X205545500Y-122926999D01*
X205545500Y-123073001D01*
X205561384Y-123132281D01*
X205583289Y-123214033D01*
X205656286Y-123340467D01*
X205656294Y-123340477D01*
X205759522Y-123443705D01*
X205759527Y-123443709D01*
X205759529Y-123443711D01*
X205759530Y-123443712D01*
X205759532Y-123443713D01*
X205885966Y-123516710D01*
X205885968Y-123516710D01*
X205885971Y-123516712D01*
X206026999Y-123554500D01*
X206065616Y-123554500D01*
X206133737Y-123574502D01*
X206154711Y-123591405D01*
X207008595Y-124445289D01*
X207042621Y-124507601D01*
X207045500Y-124534384D01*
X207045500Y-127162127D01*
X207025498Y-127230248D01*
X206971842Y-127276741D01*
X206901568Y-127286845D01*
X206836988Y-127257351D01*
X206830507Y-127251317D01*
X206830467Y-127251286D01*
X206704033Y-127178289D01*
X206687372Y-127173824D01*
X206563001Y-127140500D01*
X206416999Y-127140500D01*
X206336285Y-127162127D01*
X206275966Y-127178289D01*
X206149532Y-127251286D01*
X206149522Y-127251294D01*
X206046294Y-127354522D01*
X206046286Y-127354532D01*
X205973289Y-127480966D01*
X205935499Y-127622001D01*
X205934422Y-127630188D01*
X205932438Y-127629926D01*
X205915498Y-127687622D01*
X205861842Y-127734115D01*
X205809500Y-127745501D01*
X191797975Y-127745501D01*
X191729854Y-127725499D01*
X191708880Y-127708596D01*
X191280080Y-127279796D01*
X191246054Y-127217484D01*
X191251119Y-127146669D01*
X191293666Y-127089833D01*
X191360186Y-127065022D01*
X191369175Y-127064701D01*
X192264833Y-127064701D01*
X192264837Y-127064702D01*
X192364761Y-127064702D01*
X192440883Y-127044304D01*
X192461281Y-127038839D01*
X192547818Y-126988877D01*
X192618475Y-126918220D01*
X192628841Y-126907854D01*
X192628848Y-126907844D01*
X192920290Y-126616404D01*
X192982602Y-126582379D01*
X193009385Y-126579500D01*
X197243127Y-126579500D01*
X197311248Y-126599502D01*
X197332222Y-126616405D01*
X197359522Y-126643705D01*
X197359527Y-126643709D01*
X197359529Y-126643711D01*
X197359530Y-126643712D01*
X197359532Y-126643713D01*
X197485966Y-126716710D01*
X197485968Y-126716710D01*
X197485971Y-126716712D01*
X197626999Y-126754500D01*
X197627001Y-126754500D01*
X197772999Y-126754500D01*
X197773001Y-126754500D01*
X197914029Y-126716712D01*
X197914032Y-126716710D01*
X197914033Y-126716710D01*
X197977250Y-126680211D01*
X198040471Y-126643711D01*
X198143711Y-126540471D01*
X198194773Y-126452029D01*
X198216710Y-126414033D01*
X198216710Y-126414032D01*
X198216712Y-126414029D01*
X198254500Y-126273001D01*
X198254500Y-126126999D01*
X198216712Y-125985971D01*
X198216710Y-125985968D01*
X198216710Y-125985966D01*
X198143713Y-125859532D01*
X198143705Y-125859522D01*
X198040477Y-125756294D01*
X198040467Y-125756286D01*
X197914033Y-125683289D01*
X197890957Y-125677106D01*
X197773001Y-125645500D01*
X197626999Y-125645500D01*
X197540686Y-125668627D01*
X197485966Y-125683289D01*
X197359532Y-125756286D01*
X197359522Y-125756294D01*
X197332222Y-125783595D01*
X197269910Y-125817621D01*
X197243127Y-125820500D01*
X192857696Y-125820500D01*
X192857680Y-125820499D01*
X192849962Y-125820499D01*
X192750038Y-125820499D01*
X192717866Y-125829119D01*
X192673916Y-125840895D01*
X192673915Y-125840896D01*
X192653518Y-125846362D01*
X192653517Y-125846362D01*
X192653515Y-125846363D01*
X192653514Y-125846363D01*
X192566984Y-125896321D01*
X192566979Y-125896325D01*
X192531652Y-125931653D01*
X192496324Y-125966981D01*
X192496322Y-125966983D01*
X192387687Y-126075617D01*
X192336395Y-126126910D01*
X192274083Y-126160935D01*
X192203267Y-126155870D01*
X192146432Y-126113323D01*
X192121621Y-126046802D01*
X192121300Y-126037814D01*
X192121300Y-125987200D01*
X192120971Y-125985971D01*
X192083512Y-125846171D01*
X192083510Y-125846168D01*
X192083510Y-125846166D01*
X192010513Y-125719732D01*
X192010505Y-125719722D01*
X191907277Y-125616494D01*
X191907267Y-125616486D01*
X191780832Y-125543489D01*
X191780829Y-125543488D01*
X191772654Y-125541297D01*
X191747586Y-125534580D01*
X191686964Y-125497627D01*
X191655944Y-125433766D01*
X191654200Y-125412874D01*
X191654200Y-122711579D01*
X191674202Y-122643458D01*
X191727858Y-122596965D01*
X191798132Y-122586861D01*
X191812795Y-122589868D01*
X191950999Y-122626900D01*
X191951001Y-122626900D01*
X192096999Y-122626900D01*
X192097001Y-122626900D01*
X192238029Y-122589112D01*
X192238032Y-122589110D01*
X192238033Y-122589110D01*
X192348108Y-122525558D01*
X192364471Y-122516111D01*
X192371479Y-122509103D01*
X192391778Y-122488805D01*
X192454090Y-122454779D01*
X192480873Y-122451900D01*
X205560106Y-122451900D01*
X205573952Y-122455965D01*
G37*
%TD.AperFunction*%
%TA.AperFunction,Conductor*%
G36*
X199141776Y-115267367D02*
G01*
X199141778Y-115267367D01*
X199179863Y-115214950D01*
X199276906Y-115024492D01*
X199276909Y-115024486D01*
X199302641Y-114945292D01*
X199342714Y-114886686D01*
X199408111Y-114859049D01*
X199478068Y-114871156D01*
X199530374Y-114919162D01*
X199534741Y-114927025D01*
X199534818Y-114927176D01*
X199534820Y-114927181D01*
X199613747Y-115082084D01*
X199613749Y-115082087D01*
X199715936Y-115222735D01*
X199838864Y-115345663D01*
X199983521Y-115450763D01*
X199982331Y-115452400D01*
X200024241Y-115498689D01*
X200035875Y-115568726D01*
X200007797Y-115633934D01*
X199999892Y-115642612D01*
X199777711Y-115864795D01*
X199715399Y-115898820D01*
X199688615Y-115901700D01*
X198789769Y-115901700D01*
X198721648Y-115881698D01*
X198675155Y-115828042D01*
X198665051Y-115757768D01*
X198694545Y-115693188D01*
X198726500Y-115668179D01*
X198725931Y-115667250D01*
X198730143Y-115664668D01*
X198782567Y-115626578D01*
X198782567Y-115626576D01*
X198143348Y-114987357D01*
X198211393Y-114969125D01*
X198325407Y-114903299D01*
X198418499Y-114810207D01*
X198484325Y-114696193D01*
X198502557Y-114628148D01*
X199141776Y-115267367D01*
G37*
%TD.AperFunction*%
%TA.AperFunction,Conductor*%
G36*
X213241298Y-111299210D02*
G01*
X213251740Y-111298389D01*
X213321220Y-111312983D01*
X213350722Y-111334905D01*
X213459522Y-111443705D01*
X213459527Y-111443709D01*
X213459529Y-111443711D01*
X213459530Y-111443712D01*
X213459532Y-111443713D01*
X213585966Y-111516710D01*
X213585968Y-111516710D01*
X213585971Y-111516712D01*
X213726999Y-111554500D01*
X213765616Y-111554500D01*
X213833737Y-111574502D01*
X213854711Y-111591405D01*
X215091913Y-112828607D01*
X215091934Y-112828630D01*
X215166974Y-112903670D01*
X215166979Y-112903674D01*
X215166981Y-112903676D01*
X215166982Y-112903677D01*
X215166984Y-112903678D01*
X215253514Y-112953636D01*
X215253518Y-112953638D01*
X215273915Y-112959103D01*
X215350038Y-112979501D01*
X215449962Y-112979501D01*
X215449966Y-112979500D01*
X217090616Y-112979500D01*
X217158737Y-112999502D01*
X217179711Y-113016405D01*
X218486518Y-114323212D01*
X218495095Y-114332991D01*
X218574156Y-114412052D01*
X218574170Y-114412064D01*
X219344395Y-115182289D01*
X219378421Y-115244601D01*
X219381300Y-115271384D01*
X219381300Y-124225791D01*
X219361298Y-124293912D01*
X219307642Y-124340405D01*
X219237368Y-124350509D01*
X219172788Y-124321015D01*
X219134404Y-124261289D01*
X219130851Y-124245502D01*
X219117303Y-124159962D01*
X219063580Y-123994619D01*
X218984653Y-123839716D01*
X218882465Y-123699067D01*
X218882463Y-123699064D01*
X218759535Y-123576136D01*
X218618887Y-123473949D01*
X218618886Y-123473948D01*
X218618884Y-123473947D01*
X218463981Y-123395020D01*
X218463978Y-123395019D01*
X218463976Y-123395018D01*
X218298642Y-123341298D01*
X218298640Y-123341297D01*
X218298638Y-123341297D01*
X218126926Y-123314100D01*
X217953074Y-123314100D01*
X217813327Y-123336234D01*
X217781355Y-123341298D01*
X217641972Y-123386586D01*
X217571005Y-123388613D01*
X217513942Y-123355848D01*
X216532262Y-122374168D01*
X216532250Y-122374154D01*
X216454423Y-122296327D01*
X216454413Y-122296319D01*
X216367878Y-122246359D01*
X216356519Y-122243315D01*
X216356514Y-122243314D01*
X216347482Y-122240894D01*
X216271360Y-122220497D01*
X216171436Y-122220497D01*
X216171432Y-122220498D01*
X209263646Y-122220498D01*
X209195525Y-122200496D01*
X209149032Y-122146840D01*
X209138928Y-122076566D01*
X209168422Y-122011986D01*
X209174542Y-122005411D01*
X209205345Y-121974607D01*
X209231443Y-121954584D01*
X209233018Y-121953675D01*
X209303675Y-121883018D01*
X209353638Y-121796481D01*
X209379500Y-121699962D01*
X209379500Y-121600038D01*
X209353638Y-121503518D01*
X209340712Y-121481130D01*
X209328126Y-121450744D01*
X209311133Y-121387322D01*
X209311131Y-121387319D01*
X209311131Y-121387317D01*
X209238134Y-121260883D01*
X209238126Y-121260873D01*
X209134898Y-121157645D01*
X209134888Y-121157637D01*
X209008454Y-121084641D01*
X209008445Y-121084637D01*
X208990354Y-121079790D01*
X208976245Y-121071644D01*
X208962583Y-121068672D01*
X208933873Y-121047179D01*
X208866405Y-120979711D01*
X208832379Y-120917399D01*
X208829500Y-120890616D01*
X208829500Y-116410125D01*
X208829501Y-116410112D01*
X208829501Y-116300038D01*
X208829500Y-116300034D01*
X208805219Y-116209418D01*
X208805217Y-116209412D01*
X208804258Y-116205834D01*
X208803638Y-116203518D01*
X208753676Y-116116981D01*
X208753674Y-116116979D01*
X208753670Y-116116974D01*
X208678630Y-116041934D01*
X208678607Y-116041913D01*
X207960864Y-115324170D01*
X207953677Y-115316983D01*
X207953676Y-115316981D01*
X207890808Y-115254113D01*
X207890804Y-115254107D01*
X207870787Y-115228021D01*
X207860111Y-115209529D01*
X207860109Y-115209527D01*
X207860105Y-115209522D01*
X207756877Y-115106294D01*
X207756867Y-115106286D01*
X207630433Y-115033289D01*
X207613772Y-115028824D01*
X207489401Y-114995500D01*
X207343399Y-114995500D01*
X207257086Y-115018627D01*
X207202366Y-115033289D01*
X207075932Y-115106286D01*
X207075922Y-115106294D01*
X206972689Y-115209527D01*
X206968861Y-115214517D01*
X206911523Y-115256384D01*
X206840652Y-115260606D01*
X206778749Y-115225842D01*
X206745468Y-115163129D01*
X206742899Y-115137813D01*
X206742899Y-113628136D01*
X206742898Y-113628127D01*
X206728134Y-113553899D01*
X206689789Y-113496512D01*
X206671884Y-113469716D01*
X206657794Y-113460301D01*
X206587702Y-113413466D01*
X206513467Y-113398700D01*
X204763336Y-113398700D01*
X204763326Y-113398701D01*
X204689099Y-113413465D01*
X204604915Y-113469716D01*
X204548666Y-113553897D01*
X204533900Y-113628130D01*
X204533900Y-115378263D01*
X204533901Y-115378273D01*
X204548665Y-115452500D01*
X204604916Y-115536684D01*
X204689097Y-115592933D01*
X204689099Y-115592934D01*
X204763333Y-115607700D01*
X205999917Y-115607699D01*
X206068038Y-115627701D01*
X206089012Y-115644604D01*
X207583585Y-117139177D01*
X207617611Y-117201489D01*
X207620490Y-117228272D01*
X207620490Y-119266984D01*
X207600488Y-119335105D01*
X207546832Y-119381598D01*
X207476558Y-119391702D01*
X207431490Y-119376103D01*
X207314033Y-119308289D01*
X207297372Y-119303824D01*
X207173001Y-119270500D01*
X207026999Y-119270500D01*
X206940686Y-119293627D01*
X206885966Y-119308289D01*
X206759532Y-119381286D01*
X206759522Y-119381294D01*
X206732222Y-119408595D01*
X206669910Y-119442621D01*
X206643127Y-119445500D01*
X205909384Y-119445500D01*
X205841263Y-119425498D01*
X205820289Y-119408595D01*
X205291405Y-118879711D01*
X205257379Y-118817399D01*
X205254500Y-118790616D01*
X205254500Y-118752000D01*
X205247855Y-118727201D01*
X205216712Y-118610971D01*
X205216710Y-118610968D01*
X205216710Y-118610966D01*
X205143713Y-118484532D01*
X205143705Y-118484522D01*
X205040477Y-118381294D01*
X205040467Y-118381286D01*
X204914033Y-118308289D01*
X204882403Y-118299814D01*
X204773001Y-118270500D01*
X204626999Y-118270500D01*
X204540686Y-118293627D01*
X204485966Y-118308289D01*
X204359532Y-118381286D01*
X204359522Y-118381294D01*
X204256294Y-118484522D01*
X204256286Y-118484532D01*
X204183289Y-118610966D01*
X204168841Y-118664889D01*
X204145500Y-118751999D01*
X204145500Y-118898001D01*
X204163005Y-118963332D01*
X204183289Y-119039033D01*
X204256286Y-119165467D01*
X204256294Y-119165477D01*
X204359522Y-119268705D01*
X204359527Y-119268709D01*
X204359529Y-119268711D01*
X204359530Y-119268712D01*
X204359532Y-119268713D01*
X204485966Y-119341710D01*
X204485968Y-119341710D01*
X204485971Y-119341712D01*
X204626999Y-119379500D01*
X204665616Y-119379500D01*
X204733737Y-119399502D01*
X204754711Y-119416405D01*
X205396322Y-120058016D01*
X205396324Y-120058019D01*
X205466981Y-120128676D01*
X205516944Y-120157522D01*
X205525875Y-120162678D01*
X205525877Y-120162680D01*
X205547743Y-120175304D01*
X205553519Y-120178639D01*
X205650038Y-120204501D01*
X205650040Y-120204501D01*
X205757680Y-120204501D01*
X205757696Y-120204500D01*
X206519527Y-120204500D01*
X206587648Y-120224502D01*
X206634141Y-120278158D01*
X206644245Y-120348432D01*
X206614751Y-120413012D01*
X206608622Y-120419595D01*
X206515494Y-120512722D01*
X206515486Y-120512732D01*
X206442489Y-120639166D01*
X206422048Y-120715454D01*
X206404700Y-120780199D01*
X206404700Y-120926201D01*
X206442488Y-121067229D01*
X206442489Y-121067230D01*
X206444626Y-121075206D01*
X206441668Y-121075998D01*
X206447697Y-121132070D01*
X206415919Y-121195557D01*
X206354862Y-121231786D01*
X206323699Y-121235700D01*
X192789940Y-121235700D01*
X192721819Y-121215698D01*
X192675326Y-121162042D01*
X192668233Y-121142311D01*
X192665489Y-121132070D01*
X192642312Y-121045571D01*
X192642310Y-121045568D01*
X192642310Y-121045566D01*
X192569313Y-120919132D01*
X192569305Y-120919122D01*
X192466077Y-120815894D01*
X192466067Y-120815886D01*
X192339634Y-120742890D01*
X192339631Y-120742889D01*
X192339629Y-120742888D01*
X192250871Y-120719105D01*
X192245602Y-120715894D01*
X192239451Y-120715454D01*
X192215648Y-120697635D01*
X192190250Y-120682154D01*
X192187554Y-120676604D01*
X192182615Y-120672907D01*
X192172222Y-120645043D01*
X192159228Y-120618293D01*
X192159960Y-120612166D01*
X192157805Y-120606387D01*
X192164125Y-120577332D01*
X192167657Y-120547799D01*
X192171921Y-120541498D01*
X192172897Y-120537013D01*
X192194384Y-120508309D01*
X192350290Y-120352404D01*
X192412603Y-120318379D01*
X192439385Y-120315500D01*
X192477999Y-120315500D01*
X192478001Y-120315500D01*
X192619029Y-120277712D01*
X192619032Y-120277710D01*
X192619033Y-120277710D01*
X192727648Y-120215001D01*
X192745471Y-120204711D01*
X192848711Y-120101471D01*
X192921712Y-119975029D01*
X192959500Y-119834001D01*
X192959500Y-119687999D01*
X192921712Y-119546971D01*
X192921710Y-119546968D01*
X192921710Y-119546966D01*
X192848713Y-119420532D01*
X192848705Y-119420522D01*
X192749948Y-119321765D01*
X192749945Y-119321763D01*
X192745471Y-119317289D01*
X192710723Y-119297227D01*
X192708833Y-119296045D01*
X192686686Y-119271106D01*
X192663664Y-119246962D01*
X192663226Y-119244689D01*
X192661690Y-119242960D01*
X192659790Y-119230799D01*
X194073000Y-119230799D01*
X194073000Y-119376801D01*
X194091408Y-119445500D01*
X194110789Y-119517833D01*
X194183786Y-119644267D01*
X194183794Y-119644277D01*
X194287022Y-119747505D01*
X194287027Y-119747509D01*
X194287029Y-119747511D01*
X194287030Y-119747512D01*
X194287032Y-119747513D01*
X194413466Y-119820510D01*
X194413468Y-119820510D01*
X194413471Y-119820512D01*
X194554499Y-119858300D01*
X194554501Y-119858300D01*
X194700499Y-119858300D01*
X194700501Y-119858300D01*
X194841529Y-119820512D01*
X194841532Y-119820510D01*
X194841533Y-119820510D01*
X194930382Y-119769213D01*
X194967971Y-119747511D01*
X195071211Y-119644271D01*
X195144212Y-119517829D01*
X195182000Y-119376801D01*
X195182000Y-119338184D01*
X195202002Y-119270063D01*
X195218905Y-119249089D01*
X197770389Y-116697605D01*
X197832701Y-116663579D01*
X197859484Y-116660700D01*
X199848034Y-116660700D01*
X199848038Y-116660701D01*
X199947962Y-116660701D01*
X200022445Y-116640742D01*
X200032261Y-116639705D01*
X200057858Y-116644370D01*
X200083869Y-116644989D01*
X200092204Y-116650630D01*
X200102107Y-116652435D01*
X200121119Y-116670199D01*
X200142666Y-116684782D01*
X200146628Y-116694034D01*
X200153983Y-116700906D01*
X200160372Y-116726127D01*
X200170616Y-116750045D01*
X200168947Y-116759970D01*
X200171419Y-116769728D01*
X200163158Y-116794400D01*
X200158844Y-116820059D01*
X200150771Y-116831395D01*
X200148878Y-116837051D01*
X200143896Y-116841050D01*
X200134602Y-116854102D01*
X198657309Y-118331396D01*
X198594999Y-118365420D01*
X198568216Y-118368300D01*
X198529599Y-118368300D01*
X198452677Y-118388911D01*
X198388566Y-118406089D01*
X198262132Y-118479086D01*
X198262122Y-118479094D01*
X198158894Y-118582322D01*
X198158886Y-118582332D01*
X198085889Y-118708766D01*
X198080298Y-118729632D01*
X198048100Y-118849799D01*
X198048100Y-118995801D01*
X198059683Y-119039029D01*
X198085889Y-119136833D01*
X198158886Y-119263267D01*
X198158894Y-119263277D01*
X198262122Y-119366505D01*
X198262127Y-119366509D01*
X198262129Y-119366511D01*
X198262130Y-119366512D01*
X198262132Y-119366513D01*
X198388566Y-119439510D01*
X198388568Y-119439510D01*
X198388571Y-119439512D01*
X198529599Y-119477300D01*
X198529601Y-119477300D01*
X198675599Y-119477300D01*
X198675601Y-119477300D01*
X198816629Y-119439512D01*
X198816632Y-119439510D01*
X198816633Y-119439510D01*
X198917466Y-119381294D01*
X198943071Y-119366511D01*
X199046311Y-119263271D01*
X199119312Y-119136829D01*
X199157100Y-118995801D01*
X199157100Y-118957184D01*
X199177102Y-118889063D01*
X199194005Y-118868089D01*
X200831089Y-117231005D01*
X200893401Y-117196979D01*
X200920184Y-117194100D01*
X202210234Y-117194100D01*
X202210238Y-117194101D01*
X202310162Y-117194101D01*
X202388906Y-117173001D01*
X202406682Y-117168238D01*
X202493219Y-117118276D01*
X202563876Y-117047619D01*
X202574243Y-117037252D01*
X202574250Y-117037242D01*
X203321042Y-116290450D01*
X203321052Y-116290443D01*
X203402070Y-116209425D01*
X203402076Y-116209419D01*
X203452038Y-116122882D01*
X203458180Y-116099961D01*
X203477901Y-116026362D01*
X203477901Y-115926438D01*
X203477900Y-115926434D01*
X203477900Y-115626656D01*
X203497902Y-115558536D01*
X203546696Y-115514390D01*
X203677284Y-115447853D01*
X203817933Y-115345665D01*
X203940865Y-115222733D01*
X204043053Y-115082084D01*
X204121980Y-114927181D01*
X204175703Y-114761838D01*
X204202900Y-114590126D01*
X204202900Y-114416274D01*
X204175703Y-114244562D01*
X204121980Y-114079219D01*
X204043053Y-113924316D01*
X203950061Y-113796324D01*
X203940863Y-113783664D01*
X203817935Y-113660736D01*
X203677287Y-113558549D01*
X203677286Y-113558548D01*
X203677284Y-113558547D01*
X203522381Y-113479620D01*
X203522378Y-113479619D01*
X203522376Y-113479618D01*
X203357042Y-113425898D01*
X203357040Y-113425897D01*
X203357038Y-113425897D01*
X203185326Y-113398700D01*
X203011474Y-113398700D01*
X202839762Y-113425897D01*
X202839760Y-113425897D01*
X202839757Y-113425898D01*
X202674423Y-113479618D01*
X202674417Y-113479621D01*
X202519512Y-113558549D01*
X202378864Y-113660736D01*
X202255936Y-113783664D01*
X202153749Y-113924312D01*
X202074821Y-114079217D01*
X202074818Y-114079223D01*
X202021098Y-114244557D01*
X202021097Y-114244560D01*
X202021097Y-114244562D01*
X201993900Y-114416274D01*
X201993900Y-114590126D01*
X202021097Y-114761838D01*
X202021098Y-114761842D01*
X202074760Y-114926999D01*
X202074820Y-114927181D01*
X202153747Y-115082084D01*
X202153749Y-115082087D01*
X202255936Y-115222735D01*
X202378864Y-115345663D01*
X202378867Y-115345665D01*
X202519516Y-115447853D01*
X202650103Y-115514390D01*
X202661347Y-115525009D01*
X202675412Y-115531433D01*
X202686629Y-115548887D01*
X202701718Y-115563138D01*
X202706028Y-115579072D01*
X202713796Y-115591159D01*
X202718900Y-115626657D01*
X202718900Y-115767016D01*
X202698898Y-115835137D01*
X202681995Y-115856111D01*
X202139911Y-116398195D01*
X202077599Y-116432221D01*
X202050816Y-116435100D01*
X200768496Y-116435100D01*
X200768480Y-116435099D01*
X200760762Y-116435099D01*
X200660838Y-116435099D01*
X200660837Y-116435099D01*
X200595901Y-116452498D01*
X200524924Y-116450808D01*
X200466129Y-116411013D01*
X200438182Y-116345748D01*
X200449956Y-116275735D01*
X200474193Y-116241699D01*
X200791416Y-115924477D01*
X200791419Y-115924476D01*
X200862076Y-115853819D01*
X200895746Y-115795500D01*
X200912039Y-115767281D01*
X200937901Y-115670762D01*
X200937901Y-115626656D01*
X200957903Y-115558535D01*
X201006695Y-115514390D01*
X201137284Y-115447853D01*
X201277933Y-115345665D01*
X201400865Y-115222733D01*
X201503053Y-115082084D01*
X201581980Y-114927181D01*
X201635703Y-114761838D01*
X201662900Y-114590126D01*
X201662900Y-114416274D01*
X201635703Y-114244562D01*
X201581980Y-114079219D01*
X201503053Y-113924316D01*
X201410061Y-113796324D01*
X201400863Y-113783664D01*
X201277935Y-113660736D01*
X201137287Y-113558549D01*
X201137286Y-113558548D01*
X201137284Y-113558547D01*
X200982381Y-113479620D01*
X200982378Y-113479619D01*
X200982376Y-113479618D01*
X200817042Y-113425898D01*
X200817040Y-113425897D01*
X200817038Y-113425897D01*
X200645326Y-113398700D01*
X200471474Y-113398700D01*
X200299762Y-113425897D01*
X200299760Y-113425897D01*
X200299757Y-113425898D01*
X200134423Y-113479618D01*
X200134417Y-113479621D01*
X199979512Y-113558549D01*
X199838864Y-113660736D01*
X199715936Y-113783664D01*
X199613748Y-113924313D01*
X199534741Y-114079374D01*
X199485992Y-114130989D01*
X199417078Y-114148055D01*
X199349876Y-114125154D01*
X199305724Y-114069556D01*
X199302641Y-114061108D01*
X199276907Y-113981909D01*
X199276906Y-113981907D01*
X199179864Y-113791451D01*
X199179863Y-113791449D01*
X199141778Y-113739031D01*
X198502557Y-114378251D01*
X198484325Y-114310207D01*
X198418499Y-114196193D01*
X198325407Y-114103101D01*
X198211393Y-114037275D01*
X198143347Y-114019041D01*
X198782568Y-113379821D01*
X198782567Y-113379820D01*
X198730150Y-113341736D01*
X198730148Y-113341735D01*
X198539692Y-113244693D01*
X198539686Y-113244690D01*
X198336403Y-113178640D01*
X198125274Y-113145200D01*
X197911526Y-113145200D01*
X197700396Y-113178640D01*
X197497113Y-113244690D01*
X197497107Y-113244693D01*
X197306653Y-113341734D01*
X197254231Y-113379821D01*
X197254231Y-113379822D01*
X197893451Y-114019042D01*
X197825407Y-114037275D01*
X197711393Y-114103101D01*
X197618301Y-114196193D01*
X197552475Y-114310207D01*
X197534242Y-114378251D01*
X196895022Y-113739031D01*
X196895021Y-113739031D01*
X196856934Y-113791453D01*
X196759893Y-113981907D01*
X196759890Y-113981913D01*
X196693840Y-114185196D01*
X196660400Y-114396326D01*
X196660400Y-114610073D01*
X196693840Y-114821203D01*
X196759890Y-115024486D01*
X196759893Y-115024492D01*
X196856935Y-115214948D01*
X196856936Y-115214950D01*
X196895020Y-115267367D01*
X196895021Y-115267368D01*
X197534241Y-114628147D01*
X197552475Y-114696193D01*
X197618301Y-114810207D01*
X197711393Y-114903299D01*
X197825407Y-114969125D01*
X197893451Y-114987357D01*
X197254231Y-115626578D01*
X197306649Y-115664663D01*
X197306655Y-115664667D01*
X197446393Y-115735866D01*
X197498009Y-115784614D01*
X197515075Y-115853528D01*
X197492175Y-115920730D01*
X197470314Y-115944544D01*
X197461808Y-115951700D01*
X197417081Y-115977524D01*
X197346424Y-116048181D01*
X197346422Y-116048183D01*
X197342595Y-116052009D01*
X197342589Y-116052015D01*
X194682211Y-118712395D01*
X194619899Y-118746421D01*
X194593116Y-118749300D01*
X194554499Y-118749300D01*
X194489516Y-118766712D01*
X194413466Y-118787089D01*
X194287032Y-118860086D01*
X194287022Y-118860094D01*
X194183794Y-118963322D01*
X194183786Y-118963332D01*
X194110789Y-119089766D01*
X194105009Y-119111338D01*
X194073000Y-119230799D01*
X192659790Y-119230799D01*
X192656541Y-119210011D01*
X192650227Y-119177249D01*
X192651087Y-119175100D01*
X192650730Y-119172815D01*
X192664217Y-119142302D01*
X192676614Y-119111338D01*
X192679185Y-119108440D01*
X192679434Y-119107879D01*
X192680037Y-119107480D01*
X192686554Y-119100138D01*
X196158242Y-115628450D01*
X196158252Y-115628443D01*
X196239270Y-115547425D01*
X196239276Y-115547419D01*
X196289238Y-115460882D01*
X196293839Y-115443711D01*
X196315101Y-115364362D01*
X196315101Y-115264438D01*
X196315100Y-115264434D01*
X196315100Y-113645784D01*
X196335102Y-113577663D01*
X196352005Y-113556689D01*
X197392289Y-112516405D01*
X197454601Y-112482379D01*
X197481384Y-112479500D01*
X211390616Y-112479500D01*
X211458737Y-112499502D01*
X211479711Y-112516405D01*
X213891914Y-114928608D01*
X213891935Y-114928631D01*
X213966975Y-115003671D01*
X213966980Y-115003675D01*
X213966982Y-115003677D01*
X213966983Y-115003678D01*
X213966985Y-115003679D01*
X214053515Y-115053637D01*
X214053519Y-115053639D01*
X214073916Y-115059104D01*
X214150039Y-115079502D01*
X214249963Y-115079502D01*
X214249967Y-115079501D01*
X217350558Y-115079501D01*
X217418679Y-115099503D01*
X217465172Y-115153159D01*
X217472264Y-115172889D01*
X217483288Y-115214030D01*
X217556286Y-115340467D01*
X217556294Y-115340477D01*
X217659522Y-115443705D01*
X217659527Y-115443709D01*
X217659529Y-115443711D01*
X217659530Y-115443712D01*
X217659532Y-115443713D01*
X217785966Y-115516710D01*
X217785968Y-115516710D01*
X217785971Y-115516712D01*
X217926999Y-115554500D01*
X217927001Y-115554500D01*
X218072999Y-115554500D01*
X218073001Y-115554500D01*
X218214029Y-115516712D01*
X218214032Y-115516710D01*
X218214033Y-115516710D01*
X218325421Y-115452400D01*
X218340471Y-115443711D01*
X218443711Y-115340471D01*
X218485917Y-115267367D01*
X218516710Y-115214033D01*
X218516711Y-115214030D01*
X218516712Y-115214029D01*
X218554500Y-115073001D01*
X218554500Y-114926999D01*
X218516712Y-114785971D01*
X218516710Y-114785968D01*
X218516710Y-114785966D01*
X218443713Y-114659532D01*
X218443705Y-114659522D01*
X218340477Y-114556294D01*
X218340467Y-114556286D01*
X218214033Y-114483289D01*
X218197372Y-114478824D01*
X218073001Y-114445500D01*
X218072999Y-114445500D01*
X218034386Y-114445500D01*
X217971912Y-114428921D01*
X217957237Y-114420542D01*
X217933020Y-114396325D01*
X217846483Y-114346363D01*
X217826085Y-114340897D01*
X217810359Y-114336683D01*
X217749966Y-114320500D01*
X217749963Y-114320500D01*
X217650039Y-114320500D01*
X217642321Y-114320500D01*
X217642305Y-114320501D01*
X214409385Y-114320501D01*
X214341264Y-114300499D01*
X214320290Y-114283596D01*
X212151104Y-112114410D01*
X212117078Y-112052098D01*
X212122143Y-111981283D01*
X212164690Y-111924447D01*
X212220489Y-111900866D01*
X212417136Y-111869720D01*
X212626257Y-111801773D01*
X212626263Y-111801770D01*
X212822187Y-111701942D01*
X212882089Y-111658420D01*
X212882089Y-111658419D01*
X212214222Y-110990552D01*
X212282649Y-110972218D01*
X212396461Y-110906509D01*
X212489388Y-110813582D01*
X212555097Y-110699770D01*
X212573431Y-110631343D01*
X213241298Y-111299210D01*
G37*
%TD.AperFunction*%
%TA.AperFunction,Conductor*%
G36*
X170545061Y-109580624D02*
G01*
X170591554Y-109634280D01*
X170601658Y-109704554D01*
X170578876Y-109760684D01*
X170577791Y-109762176D01*
X170577787Y-109762181D01*
X170506160Y-109860767D01*
X170471991Y-109907796D01*
X170390278Y-110068167D01*
X170390275Y-110068173D01*
X170334658Y-110239345D01*
X170334657Y-110239350D01*
X170334657Y-110239351D01*
X170306500Y-110417126D01*
X170306500Y-110597116D01*
X170329564Y-110742734D01*
X170334658Y-110774896D01*
X170387036Y-110936098D01*
X170390277Y-110946073D01*
X170454950Y-111073001D01*
X170471993Y-111106449D01*
X170577788Y-111252063D01*
X170705057Y-111379332D01*
X170767512Y-111424708D01*
X170850675Y-111485130D01*
X171011048Y-111566844D01*
X171182224Y-111622462D01*
X171182225Y-111622462D01*
X171182230Y-111622464D01*
X171360005Y-111650621D01*
X171360008Y-111650621D01*
X171539992Y-111650621D01*
X171539995Y-111650621D01*
X171717770Y-111622464D01*
X171888952Y-111566844D01*
X172049325Y-111485130D01*
X172194940Y-111379334D01*
X172322213Y-111252061D01*
X172428009Y-111106446D01*
X172465799Y-111032278D01*
X172514543Y-110980667D01*
X172583457Y-110963600D01*
X172650659Y-110986500D01*
X172692773Y-111039139D01*
X172693102Y-111038972D01*
X172693913Y-111040564D01*
X172694469Y-111041259D01*
X172695346Y-111043377D01*
X172795180Y-111239312D01*
X172838698Y-111299210D01*
X172838700Y-111299210D01*
X173506568Y-110631342D01*
X173524903Y-110699770D01*
X173590612Y-110813582D01*
X173683539Y-110906509D01*
X173797351Y-110972218D01*
X173865777Y-110990552D01*
X173197909Y-111658420D01*
X173197909Y-111658421D01*
X173257808Y-111701940D01*
X173453736Y-111801770D01*
X173453742Y-111801773D01*
X173662864Y-111869720D01*
X173662860Y-111869720D01*
X173880057Y-111904121D01*
X174099943Y-111904121D01*
X174317137Y-111869720D01*
X174526257Y-111801773D01*
X174526263Y-111801770D01*
X174722187Y-111701942D01*
X174782089Y-111658420D01*
X174782089Y-111658419D01*
X174114222Y-110990552D01*
X174182649Y-110972218D01*
X174296461Y-110906509D01*
X174389388Y-110813582D01*
X174455097Y-110699770D01*
X174473431Y-110631342D01*
X175141299Y-111299210D01*
X175184821Y-111239308D01*
X175284648Y-111043386D01*
X175285524Y-111041273D01*
X175286072Y-111040592D01*
X175286898Y-111038972D01*
X175287238Y-111039145D01*
X175330069Y-110985990D01*
X175397431Y-110963565D01*
X175466223Y-110981118D01*
X175514202Y-111032281D01*
X175534950Y-111073001D01*
X175551991Y-111106446D01*
X175657788Y-111252063D01*
X175785057Y-111379332D01*
X175847512Y-111424708D01*
X175930675Y-111485130D01*
X176091048Y-111566844D01*
X176262224Y-111622462D01*
X176262225Y-111622462D01*
X176262230Y-111622464D01*
X176440005Y-111650621D01*
X176440008Y-111650621D01*
X176619992Y-111650621D01*
X176619995Y-111650621D01*
X176797770Y-111622464D01*
X176968952Y-111566844D01*
X177129325Y-111485130D01*
X177274940Y-111379334D01*
X177402213Y-111252061D01*
X177508009Y-111106446D01*
X177589723Y-110946073D01*
X177645343Y-110774891D01*
X177673500Y-110597116D01*
X177673500Y-110417126D01*
X177645343Y-110239351D01*
X177589723Y-110068169D01*
X177508009Y-109907796D01*
X177402213Y-109762181D01*
X177402208Y-109762176D01*
X177401124Y-109760684D01*
X177377266Y-109693816D01*
X177393346Y-109624664D01*
X177444259Y-109575184D01*
X177503060Y-109560622D01*
X178096940Y-109560622D01*
X178165061Y-109580624D01*
X178211554Y-109634280D01*
X178221658Y-109704554D01*
X178198876Y-109760684D01*
X178197791Y-109762176D01*
X178197787Y-109762181D01*
X178126160Y-109860767D01*
X178091991Y-109907796D01*
X178010278Y-110068167D01*
X178010275Y-110068173D01*
X177954658Y-110239345D01*
X177954657Y-110239350D01*
X177954657Y-110239351D01*
X177926500Y-110417126D01*
X177926500Y-110597116D01*
X177949564Y-110742734D01*
X177954658Y-110774896D01*
X178007036Y-110936098D01*
X178010277Y-110946073D01*
X178074950Y-111073001D01*
X178091993Y-111106449D01*
X178197788Y-111252063D01*
X178325057Y-111379332D01*
X178387512Y-111424708D01*
X178470675Y-111485130D01*
X178631048Y-111566844D01*
X178802224Y-111622462D01*
X178802225Y-111622462D01*
X178802230Y-111622464D01*
X178980005Y-111650621D01*
X178980008Y-111650621D01*
X179159992Y-111650621D01*
X179159995Y-111650621D01*
X179337770Y-111622464D01*
X179508952Y-111566844D01*
X179669325Y-111485130D01*
X179814940Y-111379334D01*
X179942213Y-111252061D01*
X180048009Y-111106446D01*
X180129723Y-110946073D01*
X180185343Y-110774891D01*
X180213500Y-110597116D01*
X180213500Y-110417126D01*
X180185343Y-110239351D01*
X180129723Y-110068169D01*
X180048009Y-109907796D01*
X179942213Y-109762181D01*
X179942208Y-109762176D01*
X179941124Y-109760684D01*
X179917266Y-109693816D01*
X179933346Y-109624664D01*
X179984259Y-109575184D01*
X180043060Y-109560622D01*
X180636940Y-109560622D01*
X180705061Y-109580624D01*
X180751554Y-109634280D01*
X180761658Y-109704554D01*
X180738876Y-109760684D01*
X180737791Y-109762176D01*
X180737787Y-109762181D01*
X180666160Y-109860767D01*
X180631991Y-109907796D01*
X180550278Y-110068167D01*
X180550275Y-110068173D01*
X180494658Y-110239345D01*
X180494657Y-110239350D01*
X180494657Y-110239351D01*
X180466500Y-110417126D01*
X180466500Y-110597116D01*
X180489564Y-110742734D01*
X180494658Y-110774896D01*
X180547036Y-110936098D01*
X180550277Y-110946073D01*
X180614950Y-111073001D01*
X180631993Y-111106449D01*
X180737788Y-111252063D01*
X180865057Y-111379332D01*
X180927512Y-111424708D01*
X181010675Y-111485130D01*
X181171048Y-111566844D01*
X181342224Y-111622462D01*
X181342225Y-111622462D01*
X181342230Y-111622464D01*
X181520005Y-111650621D01*
X181520008Y-111650621D01*
X181699992Y-111650621D01*
X181699995Y-111650621D01*
X181877770Y-111622464D01*
X182048952Y-111566844D01*
X182209325Y-111485130D01*
X182354940Y-111379334D01*
X182482213Y-111252061D01*
X182588009Y-111106446D01*
X182669723Y-110946073D01*
X182725343Y-110774891D01*
X182753500Y-110597116D01*
X182753500Y-110417126D01*
X182725343Y-110239351D01*
X182669723Y-110068169D01*
X182588009Y-109907796D01*
X182482213Y-109762181D01*
X182482208Y-109762176D01*
X182481124Y-109760684D01*
X182476824Y-109748633D01*
X182468446Y-109738964D01*
X182465119Y-109715827D01*
X182457266Y-109693816D01*
X182460163Y-109681356D01*
X182458342Y-109668690D01*
X182468052Y-109647427D01*
X182473346Y-109624664D01*
X182482521Y-109615746D01*
X182487836Y-109604110D01*
X182507496Y-109591475D01*
X182524259Y-109575184D01*
X182538228Y-109571724D01*
X182547562Y-109565726D01*
X182583060Y-109560622D01*
X182614617Y-109560622D01*
X182682738Y-109580624D01*
X182703712Y-109597527D01*
X183056298Y-109950113D01*
X183090324Y-110012425D01*
X183087036Y-110078144D01*
X183034658Y-110239345D01*
X183034657Y-110239350D01*
X183034657Y-110239351D01*
X183006500Y-110417126D01*
X183006500Y-110597116D01*
X183029564Y-110742734D01*
X183034658Y-110774896D01*
X183087036Y-110936098D01*
X183090277Y-110946073D01*
X183154950Y-111073001D01*
X183171993Y-111106449D01*
X183277788Y-111252063D01*
X183405057Y-111379332D01*
X183467512Y-111424708D01*
X183550675Y-111485130D01*
X183711048Y-111566844D01*
X183882224Y-111622462D01*
X183882225Y-111622462D01*
X183882230Y-111622464D01*
X184060005Y-111650621D01*
X184060008Y-111650621D01*
X184239992Y-111650621D01*
X184239995Y-111650621D01*
X184417770Y-111622464D01*
X184588952Y-111566844D01*
X184749325Y-111485130D01*
X184894940Y-111379334D01*
X184942196Y-111332077D01*
X184950264Y-111327672D01*
X184955775Y-111320310D01*
X184980937Y-111310923D01*
X185004506Y-111298054D01*
X185013678Y-111298709D01*
X185022294Y-111295496D01*
X185048534Y-111301202D01*
X185075321Y-111303118D01*
X185084517Y-111309027D01*
X185091669Y-111310583D01*
X185120368Y-111332066D01*
X185120380Y-111332074D01*
X185138166Y-111349858D01*
X185138166Y-111349859D01*
X185138171Y-111349863D01*
X189474143Y-115685835D01*
X189508169Y-115748147D01*
X189503104Y-115818962D01*
X189460557Y-115875798D01*
X189448049Y-115884048D01*
X189409535Y-115906284D01*
X189409522Y-115906294D01*
X189306294Y-116009522D01*
X189306286Y-116009532D01*
X189233289Y-116135966D01*
X189233288Y-116135971D01*
X189195500Y-116276999D01*
X189195500Y-116423001D01*
X189218059Y-116507194D01*
X189233287Y-116564026D01*
X189233290Y-116564033D01*
X189278619Y-116642544D01*
X189295500Y-116705544D01*
X189295500Y-118299814D01*
X189289160Y-118321403D01*
X189287556Y-118343845D01*
X189279354Y-118354801D01*
X189275498Y-118367935D01*
X189258492Y-118382670D01*
X189245010Y-118400681D01*
X189232187Y-118405463D01*
X189221842Y-118414428D01*
X189199569Y-118417630D01*
X189178490Y-118425493D01*
X189165116Y-118422583D01*
X189151568Y-118424532D01*
X189131100Y-118415184D01*
X189109116Y-118410402D01*
X189091102Y-118396917D01*
X189086988Y-118395038D01*
X189080406Y-118388911D01*
X189072781Y-118381286D01*
X189005819Y-118314324D01*
X189005816Y-118314322D01*
X183038464Y-112346970D01*
X183038452Y-112346956D01*
X182960625Y-112269129D01*
X182960615Y-112269121D01*
X182874080Y-112219161D01*
X182862721Y-112216117D01*
X182862716Y-112216116D01*
X182853684Y-112213696D01*
X182777562Y-112193299D01*
X182677638Y-112193299D01*
X182677634Y-112193300D01*
X171185063Y-112193300D01*
X171116942Y-112173298D01*
X171095968Y-112156395D01*
X170003702Y-111064129D01*
X169969676Y-111001817D01*
X169972964Y-110936098D01*
X169982578Y-110906509D01*
X170025343Y-110774891D01*
X170053500Y-110597116D01*
X170053500Y-110417126D01*
X170025343Y-110239351D01*
X169969723Y-110068169D01*
X169888009Y-109907796D01*
X169782213Y-109762181D01*
X169782208Y-109762176D01*
X169781124Y-109760684D01*
X169757266Y-109693816D01*
X169773346Y-109624664D01*
X169824259Y-109575184D01*
X169883060Y-109560622D01*
X170476940Y-109560622D01*
X170545061Y-109580624D01*
G37*
%TD.AperFunction*%
%TA.AperFunction,Conductor*%
G36*
X211624903Y-110699770D02*
G01*
X211690612Y-110813582D01*
X211783539Y-110906509D01*
X211897351Y-110972218D01*
X211965778Y-110990552D01*
X211272734Y-111683596D01*
X211210422Y-111717621D01*
X211183639Y-111720500D01*
X210211998Y-111720500D01*
X210143877Y-111700498D01*
X210097384Y-111646842D01*
X210087280Y-111576568D01*
X210116774Y-111511988D01*
X210146166Y-111487065D01*
X210149308Y-111485138D01*
X210149325Y-111485130D01*
X210294940Y-111379334D01*
X210422213Y-111252061D01*
X210528009Y-111106446D01*
X210565799Y-111032278D01*
X210614543Y-110980667D01*
X210683457Y-110963600D01*
X210750659Y-110986500D01*
X210792773Y-111039139D01*
X210793102Y-111038972D01*
X210793913Y-111040564D01*
X210794469Y-111041259D01*
X210795346Y-111043377D01*
X210895180Y-111239312D01*
X210938698Y-111299210D01*
X210938699Y-111299210D01*
X211606567Y-110631341D01*
X211624903Y-110699770D01*
G37*
%TD.AperFunction*%
%TA.AperFunction,Conductor*%
G36*
X186224903Y-108159770D02*
G01*
X186290612Y-108273582D01*
X186383539Y-108366509D01*
X186497351Y-108432218D01*
X186565777Y-108450552D01*
X185897909Y-109118420D01*
X185897909Y-109118421D01*
X185957808Y-109161940D01*
X186153742Y-109261774D01*
X186155853Y-109262648D01*
X186156531Y-109263195D01*
X186158149Y-109264019D01*
X186157975Y-109264358D01*
X186211134Y-109307195D01*
X186233556Y-109374558D01*
X186215999Y-109443350D01*
X186164839Y-109491323D01*
X186116884Y-109515758D01*
X186090671Y-109529114D01*
X185945059Y-109634908D01*
X185864646Y-109715321D01*
X185802333Y-109749346D01*
X185731518Y-109744280D01*
X185684105Y-109712906D01*
X185673871Y-109702109D01*
X185667677Y-109691381D01*
X185597020Y-109620724D01*
X185597017Y-109620722D01*
X185043585Y-109067290D01*
X185043573Y-109067276D01*
X184965746Y-108989449D01*
X184965741Y-108989445D01*
X184965740Y-108989444D01*
X184965737Y-108989442D01*
X184959188Y-108984417D01*
X184960404Y-108982831D01*
X184918902Y-108939306D01*
X184905466Y-108869592D01*
X184931852Y-108803681D01*
X184941792Y-108792481D01*
X185022213Y-108712061D01*
X185128009Y-108566446D01*
X185165799Y-108492278D01*
X185214543Y-108440667D01*
X185283457Y-108423600D01*
X185350659Y-108446500D01*
X185392773Y-108499139D01*
X185393102Y-108498972D01*
X185393913Y-108500564D01*
X185394469Y-108501259D01*
X185395346Y-108503377D01*
X185495180Y-108699312D01*
X185538698Y-108759210D01*
X185538699Y-108759210D01*
X186206567Y-108091341D01*
X186224903Y-108159770D01*
G37*
%TD.AperFunction*%
%TD*%
M02*
