%TF.GenerationSoftware,KiCad,Pcbnew,9.0.7*%
%TF.CreationDate,2026-02-16T10:45:38-05:00*%
%TF.ProjectId,mmdvm_hs-hat,6d6d6476-6d5f-4687-932d-6861742e6b69,1.6*%
%TF.SameCoordinates,Original*%
%TF.FileFunction,Soldermask,Bot*%
%TF.FilePolarity,Negative*%
%FSLAX46Y46*%
G04 Gerber Fmt 4.6, Leading zero omitted, Abs format (unit mm)*
G04 Created by KiCad (PCBNEW 9.0.7) date 2026-02-16 10:45:38*
%MOMM*%
%LPD*%
G01*
G04 APERTURE LIST*
%ADD10C,2.050000*%
%ADD11C,2.250000*%
%ADD12C,2.748280*%
%ADD13R,1.778000X1.778000*%
%ADD14C,1.778000*%
%ADD15R,1.700000X1.700000*%
%ADD16C,1.700000*%
G04 APERTURE END LIST*
D10*
%TO.C,P3*%
X166500000Y-131250000D03*
D11*
X163960000Y-128710000D03*
X163960000Y-133790000D03*
X169040000Y-128710000D03*
X169040000Y-133790000D03*
%TD*%
D12*
%TO.C,PI1*%
X158958280Y-109237121D03*
X158958280Y-132239361D03*
X216959180Y-109237121D03*
X216959180Y-132239361D03*
D13*
X163830000Y-110507121D03*
D14*
X163830000Y-107967121D03*
X166370000Y-110507121D03*
X166370000Y-107967121D03*
X168910000Y-110507121D03*
X168910000Y-107967121D03*
X171450000Y-110507121D03*
X171450000Y-107967121D03*
X173990000Y-110507121D03*
X173990000Y-107967121D03*
X176530000Y-110507121D03*
X176530000Y-107967121D03*
X179070000Y-110507121D03*
X179070000Y-107967121D03*
X181610000Y-110507121D03*
X181610000Y-107967121D03*
X184150000Y-110507121D03*
X184150000Y-107967121D03*
X186690000Y-110507121D03*
X186690000Y-107967121D03*
X189230000Y-110507121D03*
X189230000Y-107967121D03*
X191770000Y-110507121D03*
X191770000Y-107967121D03*
X194310000Y-110507121D03*
X194310000Y-107967121D03*
X196850000Y-110507121D03*
X196850000Y-107967121D03*
X199390000Y-110507121D03*
X199390000Y-107967121D03*
X201930000Y-110507121D03*
X201930000Y-107967121D03*
X204470000Y-110507121D03*
X204470000Y-107967121D03*
X207010000Y-110507121D03*
X207010000Y-107967121D03*
X209550000Y-110507121D03*
X209550000Y-107967121D03*
X212090000Y-110507121D03*
X212090000Y-107967121D03*
%TD*%
D15*
%TO.C,P1*%
X210420000Y-124418600D03*
D16*
X212960000Y-124418600D03*
X215500000Y-124418600D03*
X218040000Y-124418600D03*
%TD*%
D15*
%TO.C,P2*%
X210420000Y-128000000D03*
D16*
X212960000Y-128000000D03*
X215500000Y-128000000D03*
X218040000Y-128000000D03*
%TD*%
D15*
%TO.C,P4*%
X205638400Y-114503200D03*
D16*
X203098400Y-114503200D03*
X200558400Y-114503200D03*
X198018400Y-114503200D03*
%TD*%
M02*
