M48
; DRILL file {KiCad 9.0.7} date 2026-02-16T10:46:05-0500
; FORMAT={-:-/ absolute / metric / decimal}
; #@! TF.CreationDate,2026-02-16T10:46:05-05:00
; #@! TF.GenerationSoftware,Kicad,Pcbnew,9.0.7
; #@! TF.FileFunction,Plated,1,2,PTH
FMAT,2
METRIC
; #@! TA.AperFunction,Plated,PTH,ViaDrill
T1C0.300
; #@! TA.AperFunction,Plated,PTH,ViaDrill
T2C0.400
; #@! TA.AperFunction,Plated,PTH,ComponentDrill
T3C0.998
; #@! TA.AperFunction,Plated,PTH,ComponentDrill
T4C1.000
; #@! TA.AperFunction,Plated,PTH,ComponentDrill
T5C1.500
; #@! TA.AperFunction,Plated,PTH,ComponentDrill
T6C1.700
%
G90
G05
T1
X163.0Y-112.5
X163.0Y-114.5
X163.0Y-116.5
X163.0Y-118.5
X163.0Y-120.5
X163.0Y-122.5
X163.0Y-126.5
X164.0Y-125.25
X165.5Y-124.75
X166.0Y-122.5
X167.5Y-124.75
X167.6Y-113.0
X168.75Y-122.5
X168.75Y-125.75
X171.0Y-124.75
X171.0Y-126.25
X171.05Y-122.5
X171.25Y-131.25
X171.25Y-134.75
X174.75Y-114.5
X175.1Y-122.75
X175.75Y-127.75
X177.25Y-116.25
X179.0Y-123.0
X179.0Y-124.2
X179.0Y-125.4
X179.0Y-126.6
X180.2Y-123.0
X180.2Y-124.2
X180.2Y-125.4
X180.2Y-126.6
X181.0Y-130.0
X181.407Y-122.987
X181.407Y-124.187
X181.407Y-125.387
X181.407Y-126.587
X182.6Y-123.0
X182.6Y-124.2
X182.6Y-125.4
X182.6Y-126.6
X184.5Y-120.25
X185.0Y-112.75
X185.0Y-129.75
X185.25Y-118.25
X188.75Y-127.75
X190.45Y-112.45
X191.5Y-129.0
X194.0Y-118.5
X195.0Y-131.5
X195.0Y-135.1
X195.5Y-129.0
X197.104Y-127.5
X197.5Y-123.0
X201.05Y-117.75
X202.5Y-123.0
X202.5Y-127.25
X204.75Y-135.0
X207.416Y-114.402
X210.0Y-130.5
X213.75Y-134.75
X218.75Y-117.5
X218.75Y-119.5
T2
X169.125Y-117.1
X174.3Y-128.4
X177.1Y-120.4
X177.35Y-118.55
X180.492Y-120.142
X183.85Y-118.25
X187.452Y-127.762
X187.96Y-118.72
X188.087Y-125.0
X188.5Y-123.75
X188.75Y-126.238
X188.925Y-119.38
X189.75Y-116.35
X191.567Y-126.06
X192.024Y-122.072
X192.126Y-121.26
X192.405Y-119.761
X192.507Y-117.043
X193.75Y-129.75
X194.627Y-119.304
X197.7Y-126.2
X198.603Y-118.923
X204.7Y-118.825
X206.1Y-123.0
X206.49Y-127.695
X206.959Y-120.853
X207.1Y-119.825
X207.19Y-128.61
X207.19Y-130.8
X207.416Y-115.55
X208.794Y-121.601
X212.077Y-130.594
X213.8Y-111.0
X218.0Y-115.0
T3
X163.83Y-107.967
X163.83Y-110.507
X166.37Y-107.967
X166.37Y-110.507
X168.91Y-107.967
X168.91Y-110.507
X171.45Y-107.967
X171.45Y-110.507
X173.99Y-107.967
X173.99Y-110.507
X176.53Y-107.967
X176.53Y-110.507
X179.07Y-107.967
X179.07Y-110.507
X181.61Y-107.967
X181.61Y-110.507
X184.15Y-107.967
X184.15Y-110.507
X186.69Y-107.967
X186.69Y-110.507
X189.23Y-107.967
X189.23Y-110.507
X191.77Y-107.967
X191.77Y-110.507
X194.31Y-107.967
X194.31Y-110.507
X196.85Y-107.967
X196.85Y-110.507
X199.39Y-107.967
X199.39Y-110.507
X201.93Y-107.967
X201.93Y-110.507
X204.47Y-107.967
X204.47Y-110.507
X207.01Y-107.967
X207.01Y-110.507
X209.55Y-107.967
X209.55Y-110.507
X212.09Y-107.967
X212.09Y-110.507
T4
X198.018Y-114.503
X200.558Y-114.503
X203.098Y-114.503
X205.638Y-114.503
X210.42Y-124.419
X210.42Y-128.0
X212.96Y-124.419
X212.96Y-128.0
X215.5Y-124.419
X215.5Y-128.0
X218.04Y-124.419
X218.04Y-128.0
T5
X166.5Y-131.25
T6
X163.96Y-128.71
X163.96Y-133.79
X169.04Y-128.71
X169.04Y-133.79
M30
