%TF.GenerationSoftware,KiCad,Pcbnew,9.0.7*%
%TF.CreationDate,2026-02-16T10:45:38-05:00*%
%TF.ProjectId,mmdvm_hs-hat,6d6d6476-6d5f-4687-932d-6861742e6b69,1.6*%
%TF.SameCoordinates,Original*%
%TF.FileFunction,Legend,Bot*%
%TF.FilePolarity,Positive*%
%FSLAX46Y46*%
G04 Gerber Fmt 4.6, Leading zero omitted, Abs format (unit mm)*
G04 Created by KiCad (PCBNEW 9.0.7) date 2026-02-16 10:45:38*
%MOMM*%
%LPD*%
G01*
G04 APERTURE LIST*
%ADD10C,0.200000*%
%ADD11C,0.150000*%
%ADD12C,0.300000*%
%ADD13C,0.010000*%
G04 APERTURE END LIST*
D10*
X163779200Y-117587200D02*
X163779200Y-122087200D01*
D11*
X172110400Y-130454400D02*
X194360800Y-130454400D01*
X194360800Y-135432800D01*
X172110400Y-135432800D01*
X172110400Y-130454400D01*
G36*
X172110400Y-130454400D02*
G01*
X194360800Y-130454400D01*
X194360800Y-135432800D01*
X172110400Y-135432800D01*
X172110400Y-130454400D01*
G37*
D10*
X176326800Y-119837200D02*
X163779200Y-119837200D01*
X163779200Y-122087200D02*
X176326800Y-122087200D01*
X176326800Y-117587200D02*
X176326800Y-122087200D01*
X174193200Y-117587200D02*
X174193200Y-122087200D01*
X163779200Y-117587200D02*
X176326800Y-117587200D01*
X173214285Y-121539419D02*
X173785713Y-121539419D01*
X173499999Y-121539419D02*
X173499999Y-120539419D01*
X173499999Y-120539419D02*
X173595237Y-120682276D01*
X173595237Y-120682276D02*
X173690475Y-120777514D01*
X173690475Y-120777514D02*
X173785713Y-120825133D01*
X172357142Y-120872752D02*
X172357142Y-121539419D01*
X172595237Y-120491800D02*
X172833332Y-121206085D01*
X172833332Y-121206085D02*
X172214285Y-121206085D01*
X171833332Y-121444180D02*
X171785713Y-121491800D01*
X171785713Y-121491800D02*
X171833332Y-121539419D01*
X171833332Y-121539419D02*
X171880951Y-121491800D01*
X171880951Y-121491800D02*
X171833332Y-121444180D01*
X171833332Y-121444180D02*
X171833332Y-121539419D01*
X171452380Y-120539419D02*
X170785714Y-120539419D01*
X170785714Y-120539419D02*
X171214285Y-121539419D01*
X169976190Y-120872752D02*
X169976190Y-121539419D01*
X170214285Y-120491800D02*
X170452380Y-121206085D01*
X170452380Y-121206085D02*
X169833333Y-121206085D01*
X168976190Y-120539419D02*
X169452380Y-120539419D01*
X169452380Y-120539419D02*
X169499999Y-121015609D01*
X169499999Y-121015609D02*
X169452380Y-120967990D01*
X169452380Y-120967990D02*
X169357142Y-120920371D01*
X169357142Y-120920371D02*
X169119047Y-120920371D01*
X169119047Y-120920371D02*
X169023809Y-120967990D01*
X169023809Y-120967990D02*
X168976190Y-121015609D01*
X168976190Y-121015609D02*
X168928571Y-121110847D01*
X168928571Y-121110847D02*
X168928571Y-121348942D01*
X168928571Y-121348942D02*
X168976190Y-121444180D01*
X168976190Y-121444180D02*
X169023809Y-121491800D01*
X169023809Y-121491800D02*
X169119047Y-121539419D01*
X169119047Y-121539419D02*
X169357142Y-121539419D01*
X169357142Y-121539419D02*
X169452380Y-121491800D01*
X169452380Y-121491800D02*
X169499999Y-121444180D01*
X168071428Y-120539419D02*
X168261904Y-120539419D01*
X168261904Y-120539419D02*
X168357142Y-120587038D01*
X168357142Y-120587038D02*
X168404761Y-120634657D01*
X168404761Y-120634657D02*
X168499999Y-120777514D01*
X168499999Y-120777514D02*
X168547618Y-120967990D01*
X168547618Y-120967990D02*
X168547618Y-121348942D01*
X168547618Y-121348942D02*
X168499999Y-121444180D01*
X168499999Y-121444180D02*
X168452380Y-121491800D01*
X168452380Y-121491800D02*
X168357142Y-121539419D01*
X168357142Y-121539419D02*
X168166666Y-121539419D01*
X168166666Y-121539419D02*
X168071428Y-121491800D01*
X168071428Y-121491800D02*
X168023809Y-121444180D01*
X168023809Y-121444180D02*
X167976190Y-121348942D01*
X167976190Y-121348942D02*
X167976190Y-121110847D01*
X167976190Y-121110847D02*
X168023809Y-121015609D01*
X168023809Y-121015609D02*
X168071428Y-120967990D01*
X168071428Y-120967990D02*
X168166666Y-120920371D01*
X168166666Y-120920371D02*
X168357142Y-120920371D01*
X168357142Y-120920371D02*
X168452380Y-120967990D01*
X168452380Y-120967990D02*
X168499999Y-121015609D01*
X168499999Y-121015609D02*
X168547618Y-121110847D01*
X166785713Y-121539419D02*
X166785713Y-120539419D01*
X166785713Y-120539419D02*
X166452380Y-121253704D01*
X166452380Y-121253704D02*
X166119047Y-120539419D01*
X166119047Y-120539419D02*
X166119047Y-121539419D01*
X165642856Y-121539419D02*
X165642856Y-120539419D01*
X165642856Y-121015609D02*
X165071428Y-121015609D01*
X165071428Y-121539419D02*
X165071428Y-120539419D01*
X164690475Y-120872752D02*
X164166666Y-120872752D01*
X164166666Y-120872752D02*
X164690475Y-121539419D01*
X164690475Y-121539419D02*
X164166666Y-121539419D01*
D12*
X203942479Y-133858000D02*
X203656765Y-133953238D01*
X203656765Y-133953238D02*
X203180574Y-133953238D01*
X203180574Y-133953238D02*
X202990098Y-133858000D01*
X202990098Y-133858000D02*
X202894860Y-133762761D01*
X202894860Y-133762761D02*
X202799622Y-133572285D01*
X202799622Y-133572285D02*
X202799622Y-133381809D01*
X202799622Y-133381809D02*
X202894860Y-133191333D01*
X202894860Y-133191333D02*
X202990098Y-133096095D01*
X202990098Y-133096095D02*
X203180574Y-133000857D01*
X203180574Y-133000857D02*
X203561527Y-132905619D01*
X203561527Y-132905619D02*
X203752003Y-132810380D01*
X203752003Y-132810380D02*
X203847241Y-132715142D01*
X203847241Y-132715142D02*
X203942479Y-132524666D01*
X203942479Y-132524666D02*
X203942479Y-132334190D01*
X203942479Y-132334190D02*
X203847241Y-132143714D01*
X203847241Y-132143714D02*
X203752003Y-132048476D01*
X203752003Y-132048476D02*
X203561527Y-131953238D01*
X203561527Y-131953238D02*
X203085336Y-131953238D01*
X203085336Y-131953238D02*
X202799622Y-132048476D01*
X201180574Y-133858000D02*
X201371050Y-133953238D01*
X201371050Y-133953238D02*
X201752003Y-133953238D01*
X201752003Y-133953238D02*
X201942479Y-133858000D01*
X201942479Y-133858000D02*
X202037717Y-133667523D01*
X202037717Y-133667523D02*
X202037717Y-132905619D01*
X202037717Y-132905619D02*
X201942479Y-132715142D01*
X201942479Y-132715142D02*
X201752003Y-132619904D01*
X201752003Y-132619904D02*
X201371050Y-132619904D01*
X201371050Y-132619904D02*
X201180574Y-132715142D01*
X201180574Y-132715142D02*
X201085336Y-132905619D01*
X201085336Y-132905619D02*
X201085336Y-133096095D01*
X201085336Y-133096095D02*
X202037717Y-133286571D01*
X200228193Y-133953238D02*
X200228193Y-132619904D01*
X200228193Y-133000857D02*
X200132955Y-132810380D01*
X200132955Y-132810380D02*
X200037717Y-132715142D01*
X200037717Y-132715142D02*
X199847241Y-132619904D01*
X199847241Y-132619904D02*
X199656764Y-132619904D01*
X198990098Y-133953238D02*
X198990098Y-132619904D01*
X198990098Y-131953238D02*
X199085336Y-132048476D01*
X199085336Y-132048476D02*
X198990098Y-132143714D01*
X198990098Y-132143714D02*
X198894860Y-132048476D01*
X198894860Y-132048476D02*
X198990098Y-131953238D01*
X198990098Y-131953238D02*
X198990098Y-132143714D01*
X197180574Y-133953238D02*
X197180574Y-132905619D01*
X197180574Y-132905619D02*
X197275812Y-132715142D01*
X197275812Y-132715142D02*
X197466288Y-132619904D01*
X197466288Y-132619904D02*
X197847241Y-132619904D01*
X197847241Y-132619904D02*
X198037717Y-132715142D01*
X197180574Y-133858000D02*
X197371050Y-133953238D01*
X197371050Y-133953238D02*
X197847241Y-133953238D01*
X197847241Y-133953238D02*
X198037717Y-133858000D01*
X198037717Y-133858000D02*
X198132955Y-133667523D01*
X198132955Y-133667523D02*
X198132955Y-133477047D01*
X198132955Y-133477047D02*
X198037717Y-133286571D01*
X198037717Y-133286571D02*
X197847241Y-133191333D01*
X197847241Y-133191333D02*
X197371050Y-133191333D01*
X197371050Y-133191333D02*
X197180574Y-133096095D01*
X195942479Y-133953238D02*
X196132955Y-133858000D01*
X196132955Y-133858000D02*
X196228193Y-133667523D01*
X196228193Y-133667523D02*
X196228193Y-131953238D01*
D10*
X173214285Y-119162619D02*
X173785713Y-119162619D01*
X173499999Y-119162619D02*
X173499999Y-118162619D01*
X173499999Y-118162619D02*
X173595237Y-118305476D01*
X173595237Y-118305476D02*
X173690475Y-118400714D01*
X173690475Y-118400714D02*
X173785713Y-118448333D01*
X172833332Y-118257857D02*
X172785713Y-118210238D01*
X172785713Y-118210238D02*
X172690475Y-118162619D01*
X172690475Y-118162619D02*
X172452380Y-118162619D01*
X172452380Y-118162619D02*
X172357142Y-118210238D01*
X172357142Y-118210238D02*
X172309523Y-118257857D01*
X172309523Y-118257857D02*
X172261904Y-118353095D01*
X172261904Y-118353095D02*
X172261904Y-118448333D01*
X172261904Y-118448333D02*
X172309523Y-118591190D01*
X172309523Y-118591190D02*
X172880951Y-119162619D01*
X172880951Y-119162619D02*
X172261904Y-119162619D01*
X171833332Y-119067380D02*
X171785713Y-119115000D01*
X171785713Y-119115000D02*
X171833332Y-119162619D01*
X171833332Y-119162619D02*
X171880951Y-119115000D01*
X171880951Y-119115000D02*
X171833332Y-119067380D01*
X171833332Y-119067380D02*
X171833332Y-119162619D01*
X171404761Y-118257857D02*
X171357142Y-118210238D01*
X171357142Y-118210238D02*
X171261904Y-118162619D01*
X171261904Y-118162619D02*
X171023809Y-118162619D01*
X171023809Y-118162619D02*
X170928571Y-118210238D01*
X170928571Y-118210238D02*
X170880952Y-118257857D01*
X170880952Y-118257857D02*
X170833333Y-118353095D01*
X170833333Y-118353095D02*
X170833333Y-118448333D01*
X170833333Y-118448333D02*
X170880952Y-118591190D01*
X170880952Y-118591190D02*
X171452380Y-119162619D01*
X171452380Y-119162619D02*
X170833333Y-119162619D01*
X170261904Y-118591190D02*
X170357142Y-118543571D01*
X170357142Y-118543571D02*
X170404761Y-118495952D01*
X170404761Y-118495952D02*
X170452380Y-118400714D01*
X170452380Y-118400714D02*
X170452380Y-118353095D01*
X170452380Y-118353095D02*
X170404761Y-118257857D01*
X170404761Y-118257857D02*
X170357142Y-118210238D01*
X170357142Y-118210238D02*
X170261904Y-118162619D01*
X170261904Y-118162619D02*
X170071428Y-118162619D01*
X170071428Y-118162619D02*
X169976190Y-118210238D01*
X169976190Y-118210238D02*
X169928571Y-118257857D01*
X169928571Y-118257857D02*
X169880952Y-118353095D01*
X169880952Y-118353095D02*
X169880952Y-118400714D01*
X169880952Y-118400714D02*
X169928571Y-118495952D01*
X169928571Y-118495952D02*
X169976190Y-118543571D01*
X169976190Y-118543571D02*
X170071428Y-118591190D01*
X170071428Y-118591190D02*
X170261904Y-118591190D01*
X170261904Y-118591190D02*
X170357142Y-118638809D01*
X170357142Y-118638809D02*
X170404761Y-118686428D01*
X170404761Y-118686428D02*
X170452380Y-118781666D01*
X170452380Y-118781666D02*
X170452380Y-118972142D01*
X170452380Y-118972142D02*
X170404761Y-119067380D01*
X170404761Y-119067380D02*
X170357142Y-119115000D01*
X170357142Y-119115000D02*
X170261904Y-119162619D01*
X170261904Y-119162619D02*
X170071428Y-119162619D01*
X170071428Y-119162619D02*
X169976190Y-119115000D01*
X169976190Y-119115000D02*
X169928571Y-119067380D01*
X169928571Y-119067380D02*
X169880952Y-118972142D01*
X169880952Y-118972142D02*
X169880952Y-118781666D01*
X169880952Y-118781666D02*
X169928571Y-118686428D01*
X169928571Y-118686428D02*
X169976190Y-118638809D01*
X169976190Y-118638809D02*
X170071428Y-118591190D01*
X169309523Y-118591190D02*
X169404761Y-118543571D01*
X169404761Y-118543571D02*
X169452380Y-118495952D01*
X169452380Y-118495952D02*
X169499999Y-118400714D01*
X169499999Y-118400714D02*
X169499999Y-118353095D01*
X169499999Y-118353095D02*
X169452380Y-118257857D01*
X169452380Y-118257857D02*
X169404761Y-118210238D01*
X169404761Y-118210238D02*
X169309523Y-118162619D01*
X169309523Y-118162619D02*
X169119047Y-118162619D01*
X169119047Y-118162619D02*
X169023809Y-118210238D01*
X169023809Y-118210238D02*
X168976190Y-118257857D01*
X168976190Y-118257857D02*
X168928571Y-118353095D01*
X168928571Y-118353095D02*
X168928571Y-118400714D01*
X168928571Y-118400714D02*
X168976190Y-118495952D01*
X168976190Y-118495952D02*
X169023809Y-118543571D01*
X169023809Y-118543571D02*
X169119047Y-118591190D01*
X169119047Y-118591190D02*
X169309523Y-118591190D01*
X169309523Y-118591190D02*
X169404761Y-118638809D01*
X169404761Y-118638809D02*
X169452380Y-118686428D01*
X169452380Y-118686428D02*
X169499999Y-118781666D01*
X169499999Y-118781666D02*
X169499999Y-118972142D01*
X169499999Y-118972142D02*
X169452380Y-119067380D01*
X169452380Y-119067380D02*
X169404761Y-119115000D01*
X169404761Y-119115000D02*
X169309523Y-119162619D01*
X169309523Y-119162619D02*
X169119047Y-119162619D01*
X169119047Y-119162619D02*
X169023809Y-119115000D01*
X169023809Y-119115000D02*
X168976190Y-119067380D01*
X168976190Y-119067380D02*
X168928571Y-118972142D01*
X168928571Y-118972142D02*
X168928571Y-118781666D01*
X168928571Y-118781666D02*
X168976190Y-118686428D01*
X168976190Y-118686428D02*
X169023809Y-118638809D01*
X169023809Y-118638809D02*
X169119047Y-118591190D01*
X168309523Y-118162619D02*
X168214285Y-118162619D01*
X168214285Y-118162619D02*
X168119047Y-118210238D01*
X168119047Y-118210238D02*
X168071428Y-118257857D01*
X168071428Y-118257857D02*
X168023809Y-118353095D01*
X168023809Y-118353095D02*
X167976190Y-118543571D01*
X167976190Y-118543571D02*
X167976190Y-118781666D01*
X167976190Y-118781666D02*
X168023809Y-118972142D01*
X168023809Y-118972142D02*
X168071428Y-119067380D01*
X168071428Y-119067380D02*
X168119047Y-119115000D01*
X168119047Y-119115000D02*
X168214285Y-119162619D01*
X168214285Y-119162619D02*
X168309523Y-119162619D01*
X168309523Y-119162619D02*
X168404761Y-119115000D01*
X168404761Y-119115000D02*
X168452380Y-119067380D01*
X168452380Y-119067380D02*
X168499999Y-118972142D01*
X168499999Y-118972142D02*
X168547618Y-118781666D01*
X168547618Y-118781666D02*
X168547618Y-118543571D01*
X168547618Y-118543571D02*
X168499999Y-118353095D01*
X168499999Y-118353095D02*
X168452380Y-118257857D01*
X168452380Y-118257857D02*
X168404761Y-118210238D01*
X168404761Y-118210238D02*
X168309523Y-118162619D01*
X166785713Y-119162619D02*
X166785713Y-118162619D01*
X166785713Y-118162619D02*
X166452380Y-118876904D01*
X166452380Y-118876904D02*
X166119047Y-118162619D01*
X166119047Y-118162619D02*
X166119047Y-119162619D01*
X165642856Y-119162619D02*
X165642856Y-118162619D01*
X165642856Y-118638809D02*
X165071428Y-118638809D01*
X165071428Y-119162619D02*
X165071428Y-118162619D01*
X164690475Y-118495952D02*
X164166666Y-118495952D01*
X164166666Y-118495952D02*
X164690475Y-119162619D01*
X164690475Y-119162619D02*
X164166666Y-119162619D01*
D13*
%TO.C,REF\u002A\u002A*%
X162808704Y-125077895D02*
X162826179Y-125109255D01*
X162827015Y-125145056D01*
X162806522Y-125176494D01*
X162801856Y-125180370D01*
X162792389Y-125185836D01*
X162778707Y-125190043D01*
X162758188Y-125193155D01*
X162728208Y-125195335D01*
X162686144Y-125196746D01*
X162629372Y-125197551D01*
X162555270Y-125197915D01*
X162461213Y-125198000D01*
X162139667Y-125198000D01*
X162118087Y-125171349D01*
X162103317Y-125147636D01*
X162096507Y-125124622D01*
X162102389Y-125103616D01*
X162118087Y-125077895D01*
X162139667Y-125051244D01*
X162787124Y-125051244D01*
X162808704Y-125077895D01*
G36*
X162808704Y-125077895D02*
G01*
X162826179Y-125109255D01*
X162827015Y-125145056D01*
X162806522Y-125176494D01*
X162801856Y-125180370D01*
X162792389Y-125185836D01*
X162778707Y-125190043D01*
X162758188Y-125193155D01*
X162728208Y-125195335D01*
X162686144Y-125196746D01*
X162629372Y-125197551D01*
X162555270Y-125197915D01*
X162461213Y-125198000D01*
X162139667Y-125198000D01*
X162118087Y-125171349D01*
X162103317Y-125147636D01*
X162096507Y-125124622D01*
X162102389Y-125103616D01*
X162118087Y-125077895D01*
X162139667Y-125051244D01*
X162787124Y-125051244D01*
X162808704Y-125077895D01*
G37*
X162549007Y-117911063D02*
X162623229Y-117911321D01*
X162679981Y-117911992D01*
X162721952Y-117913270D01*
X162751829Y-117915349D01*
X162772301Y-117918423D01*
X162786054Y-117922688D01*
X162795777Y-117928338D01*
X162804157Y-117935567D01*
X162825621Y-117967031D01*
X162827387Y-118002196D01*
X162807707Y-118035200D01*
X162801838Y-118040506D01*
X162792754Y-118045956D01*
X162779413Y-118050122D01*
X162759197Y-118053176D01*
X162729489Y-118055290D01*
X162687672Y-118056636D01*
X162631129Y-118057384D01*
X162557242Y-118057708D01*
X162463396Y-118057777D01*
X162387734Y-118057738D01*
X162309825Y-118057483D01*
X162249815Y-118056839D01*
X162205088Y-118055635D01*
X162173025Y-118053698D01*
X162151011Y-118050858D01*
X162136427Y-118046943D01*
X162126658Y-118041780D01*
X162119085Y-118035200D01*
X162100063Y-118006016D01*
X162100903Y-117972885D01*
X162124216Y-117938731D01*
X162151925Y-117911022D01*
X162464977Y-117911022D01*
X162549007Y-117911063D01*
G36*
X162549007Y-117911063D02*
G01*
X162623229Y-117911321D01*
X162679981Y-117911992D01*
X162721952Y-117913270D01*
X162751829Y-117915349D01*
X162772301Y-117918423D01*
X162786054Y-117922688D01*
X162795777Y-117928338D01*
X162804157Y-117935567D01*
X162825621Y-117967031D01*
X162827387Y-118002196D01*
X162807707Y-118035200D01*
X162801838Y-118040506D01*
X162792754Y-118045956D01*
X162779413Y-118050122D01*
X162759197Y-118053176D01*
X162729489Y-118055290D01*
X162687672Y-118056636D01*
X162631129Y-118057384D01*
X162557242Y-118057708D01*
X162463396Y-118057777D01*
X162387734Y-118057738D01*
X162309825Y-118057483D01*
X162249815Y-118056839D01*
X162205088Y-118055635D01*
X162173025Y-118053698D01*
X162151011Y-118050858D01*
X162136427Y-118046943D01*
X162126658Y-118041780D01*
X162119085Y-118035200D01*
X162100063Y-118006016D01*
X162100903Y-117972885D01*
X162124216Y-117938731D01*
X162151925Y-117911022D01*
X162464977Y-117911022D01*
X162549007Y-117911063D01*
G37*
X156106629Y-117522209D02*
X156157128Y-117524995D01*
X156196528Y-117531827D01*
X156233876Y-117544410D01*
X156278221Y-117564450D01*
X156290039Y-117570248D01*
X156398249Y-117638769D01*
X156487281Y-117724949D01*
X156555045Y-117826342D01*
X156599454Y-117940503D01*
X156611846Y-117999080D01*
X156617645Y-118117915D01*
X156598882Y-118233014D01*
X156557480Y-118341002D01*
X156495363Y-118438505D01*
X156414455Y-118522146D01*
X156316680Y-118588551D01*
X156203962Y-118634345D01*
X156111719Y-118651100D01*
X156009925Y-118652609D01*
X155910908Y-118638982D01*
X155825140Y-118610869D01*
X155763821Y-118578384D01*
X155666536Y-118506067D01*
X155589755Y-118420336D01*
X155533486Y-118324341D01*
X155497738Y-118221235D01*
X155482516Y-118114172D01*
X155487829Y-118006302D01*
X155513684Y-117900778D01*
X155560089Y-117800754D01*
X155627051Y-117709380D01*
X155714576Y-117629809D01*
X155822674Y-117565194D01*
X155860754Y-117547871D01*
X155899351Y-117533837D01*
X155937937Y-117525962D01*
X155985663Y-117522511D01*
X156051681Y-117521746D01*
X156106629Y-117522209D01*
G36*
X156106629Y-117522209D02*
G01*
X156157128Y-117524995D01*
X156196528Y-117531827D01*
X156233876Y-117544410D01*
X156278221Y-117564450D01*
X156290039Y-117570248D01*
X156398249Y-117638769D01*
X156487281Y-117724949D01*
X156555045Y-117826342D01*
X156599454Y-117940503D01*
X156611846Y-117999080D01*
X156617645Y-118117915D01*
X156598882Y-118233014D01*
X156557480Y-118341002D01*
X156495363Y-118438505D01*
X156414455Y-118522146D01*
X156316680Y-118588551D01*
X156203962Y-118634345D01*
X156111719Y-118651100D01*
X156009925Y-118652609D01*
X155910908Y-118638982D01*
X155825140Y-118610869D01*
X155763821Y-118578384D01*
X155666536Y-118506067D01*
X155589755Y-118420336D01*
X155533486Y-118324341D01*
X155497738Y-118221235D01*
X155482516Y-118114172D01*
X155487829Y-118006302D01*
X155513684Y-117900778D01*
X155560089Y-117800754D01*
X155627051Y-117709380D01*
X155714576Y-117629809D01*
X155822674Y-117565194D01*
X155860754Y-117547871D01*
X155899351Y-117533837D01*
X155937937Y-117525962D01*
X155985663Y-117522511D01*
X156051681Y-117521746D01*
X156106629Y-117522209D01*
G37*
X162222618Y-125448105D02*
X162224071Y-125449465D01*
X162232432Y-125460668D01*
X162237987Y-125477770D01*
X162241280Y-125504940D01*
X162242858Y-125546344D01*
X162243262Y-125606149D01*
X162243262Y-125745511D01*
X162507029Y-125745511D01*
X162582857Y-125745586D01*
X162649523Y-125745994D01*
X162699307Y-125746976D01*
X162735224Y-125748772D01*
X162760290Y-125751623D01*
X162777521Y-125755769D01*
X162789932Y-125761451D01*
X162800540Y-125768908D01*
X162803346Y-125771198D01*
X162825988Y-125802376D01*
X162827552Y-125836756D01*
X162807707Y-125869688D01*
X162799631Y-125876667D01*
X162789033Y-125882139D01*
X162773189Y-125886159D01*
X162749213Y-125888950D01*
X162714214Y-125890734D01*
X162665304Y-125891733D01*
X162599594Y-125892170D01*
X162514196Y-125892266D01*
X162243262Y-125892266D01*
X162243262Y-126038202D01*
X162243261Y-126049302D01*
X162243036Y-126105820D01*
X162241897Y-126144664D01*
X162239097Y-126170057D01*
X162233890Y-126186218D01*
X162225529Y-126197370D01*
X162213266Y-126207733D01*
X162182578Y-126223581D01*
X162148798Y-126220479D01*
X162116262Y-126194835D01*
X162112545Y-126189893D01*
X162107709Y-126179684D01*
X162103946Y-126164258D01*
X162101123Y-126141136D01*
X162099110Y-126107839D01*
X162097773Y-126061885D01*
X162096982Y-126000794D01*
X162096603Y-125922087D01*
X162096507Y-125823282D01*
X162096508Y-125803255D01*
X162096598Y-125709132D01*
X162096938Y-125634617D01*
X162097679Y-125577211D01*
X162098975Y-125534411D01*
X162100977Y-125503718D01*
X162103836Y-125482631D01*
X162107706Y-125468649D01*
X162112738Y-125459272D01*
X162119085Y-125452000D01*
X162151802Y-125433194D01*
X162189379Y-125431747D01*
X162222618Y-125448105D01*
G36*
X162222618Y-125448105D02*
G01*
X162224071Y-125449465D01*
X162232432Y-125460668D01*
X162237987Y-125477770D01*
X162241280Y-125504940D01*
X162242858Y-125546344D01*
X162243262Y-125606149D01*
X162243262Y-125745511D01*
X162507029Y-125745511D01*
X162582857Y-125745586D01*
X162649523Y-125745994D01*
X162699307Y-125746976D01*
X162735224Y-125748772D01*
X162760290Y-125751623D01*
X162777521Y-125755769D01*
X162789932Y-125761451D01*
X162800540Y-125768908D01*
X162803346Y-125771198D01*
X162825988Y-125802376D01*
X162827552Y-125836756D01*
X162807707Y-125869688D01*
X162799631Y-125876667D01*
X162789033Y-125882139D01*
X162773189Y-125886159D01*
X162749213Y-125888950D01*
X162714214Y-125890734D01*
X162665304Y-125891733D01*
X162599594Y-125892170D01*
X162514196Y-125892266D01*
X162243262Y-125892266D01*
X162243262Y-126038202D01*
X162243261Y-126049302D01*
X162243036Y-126105820D01*
X162241897Y-126144664D01*
X162239097Y-126170057D01*
X162233890Y-126186218D01*
X162225529Y-126197370D01*
X162213266Y-126207733D01*
X162182578Y-126223581D01*
X162148798Y-126220479D01*
X162116262Y-126194835D01*
X162112545Y-126189893D01*
X162107709Y-126179684D01*
X162103946Y-126164258D01*
X162101123Y-126141136D01*
X162099110Y-126107839D01*
X162097773Y-126061885D01*
X162096982Y-126000794D01*
X162096603Y-125922087D01*
X162096507Y-125823282D01*
X162096508Y-125803255D01*
X162096598Y-125709132D01*
X162096938Y-125634617D01*
X162097679Y-125577211D01*
X162098975Y-125534411D01*
X162100977Y-125503718D01*
X162103836Y-125482631D01*
X162107706Y-125468649D01*
X162112738Y-125459272D01*
X162119085Y-125452000D01*
X162151802Y-125433194D01*
X162189379Y-125431747D01*
X162222618Y-125448105D01*
G37*
X162505071Y-126455913D02*
X162621440Y-126456397D01*
X162635615Y-126456465D01*
X162697377Y-126457051D01*
X162741060Y-126458374D01*
X162770441Y-126460919D01*
X162789295Y-126465174D01*
X162801399Y-126471626D01*
X162810529Y-126480760D01*
X162827946Y-126514218D01*
X162825044Y-126549166D01*
X162800540Y-126580069D01*
X162787337Y-126589078D01*
X162768801Y-126596530D01*
X162742773Y-126600898D01*
X162704227Y-126602953D01*
X162648140Y-126603466D01*
X162525485Y-126603466D01*
X162525485Y-127100177D01*
X162660311Y-127100177D01*
X162696102Y-127100250D01*
X162742432Y-127101013D01*
X162772966Y-127103189D01*
X162791997Y-127107486D01*
X162803814Y-127114610D01*
X162812711Y-127125267D01*
X162827781Y-127157518D01*
X162825113Y-127192805D01*
X162800540Y-127223536D01*
X162794285Y-127228191D01*
X162783761Y-127234127D01*
X162769831Y-127238658D01*
X162749757Y-127241974D01*
X162720800Y-127244263D01*
X162680220Y-127245714D01*
X162625280Y-127246517D01*
X162553239Y-127246860D01*
X162461360Y-127246933D01*
X162151925Y-127246933D01*
X162124216Y-127219224D01*
X162101973Y-127187845D01*
X162099284Y-127154616D01*
X162119085Y-127122755D01*
X162128855Y-127114469D01*
X162144747Y-127107057D01*
X162168715Y-127102720D01*
X162205588Y-127100684D01*
X162260196Y-127100177D01*
X162378729Y-127100177D01*
X162378729Y-126603466D01*
X162263216Y-126603466D01*
X162211518Y-126603028D01*
X162176994Y-126601064D01*
X162154418Y-126596548D01*
X162138566Y-126588455D01*
X162124216Y-126575757D01*
X162101973Y-126544379D01*
X162099284Y-126511150D01*
X162119085Y-126479288D01*
X162125275Y-126473656D01*
X162133481Y-126468566D01*
X162145257Y-126464479D01*
X162162716Y-126461301D01*
X162187970Y-126458935D01*
X162223130Y-126457284D01*
X162270309Y-126456253D01*
X162331617Y-126455745D01*
X162409167Y-126455663D01*
X162505071Y-126455913D01*
G36*
X162505071Y-126455913D02*
G01*
X162621440Y-126456397D01*
X162635615Y-126456465D01*
X162697377Y-126457051D01*
X162741060Y-126458374D01*
X162770441Y-126460919D01*
X162789295Y-126465174D01*
X162801399Y-126471626D01*
X162810529Y-126480760D01*
X162827946Y-126514218D01*
X162825044Y-126549166D01*
X162800540Y-126580069D01*
X162787337Y-126589078D01*
X162768801Y-126596530D01*
X162742773Y-126600898D01*
X162704227Y-126602953D01*
X162648140Y-126603466D01*
X162525485Y-126603466D01*
X162525485Y-127100177D01*
X162660311Y-127100177D01*
X162696102Y-127100250D01*
X162742432Y-127101013D01*
X162772966Y-127103189D01*
X162791997Y-127107486D01*
X162803814Y-127114610D01*
X162812711Y-127125267D01*
X162827781Y-127157518D01*
X162825113Y-127192805D01*
X162800540Y-127223536D01*
X162794285Y-127228191D01*
X162783761Y-127234127D01*
X162769831Y-127238658D01*
X162749757Y-127241974D01*
X162720800Y-127244263D01*
X162680220Y-127245714D01*
X162625280Y-127246517D01*
X162553239Y-127246860D01*
X162461360Y-127246933D01*
X162151925Y-127246933D01*
X162124216Y-127219224D01*
X162101973Y-127187845D01*
X162099284Y-127154616D01*
X162119085Y-127122755D01*
X162128855Y-127114469D01*
X162144747Y-127107057D01*
X162168715Y-127102720D01*
X162205588Y-127100684D01*
X162260196Y-127100177D01*
X162378729Y-127100177D01*
X162378729Y-126603466D01*
X162263216Y-126603466D01*
X162211518Y-126603028D01*
X162176994Y-126601064D01*
X162154418Y-126596548D01*
X162138566Y-126588455D01*
X162124216Y-126575757D01*
X162101973Y-126544379D01*
X162099284Y-126511150D01*
X162119085Y-126479288D01*
X162125275Y-126473656D01*
X162133481Y-126468566D01*
X162145257Y-126464479D01*
X162162716Y-126461301D01*
X162187970Y-126458935D01*
X162223130Y-126457284D01*
X162270309Y-126456253D01*
X162331617Y-126455745D01*
X162409167Y-126455663D01*
X162505071Y-126455913D01*
G37*
X162522966Y-121771847D02*
X162601751Y-121772072D01*
X162662461Y-121772690D01*
X162683529Y-121773247D01*
X162707836Y-121773889D01*
X162740615Y-121775859D01*
X162763535Y-121778787D01*
X162779337Y-121782864D01*
X162790759Y-121788279D01*
X162800540Y-121795219D01*
X162830285Y-121818616D01*
X162829691Y-121984308D01*
X162829393Y-122019104D01*
X162825962Y-122117587D01*
X162818279Y-122198549D01*
X162805722Y-122265643D01*
X162787667Y-122322526D01*
X162763492Y-122372853D01*
X162761575Y-122376212D01*
X162724857Y-122434024D01*
X162687891Y-122476378D01*
X162644406Y-122509194D01*
X162588129Y-122538394D01*
X162578513Y-122542676D01*
X162515327Y-122565253D01*
X162459949Y-122572225D01*
X162404923Y-122563623D01*
X162342791Y-122539481D01*
X162341098Y-122538685D01*
X162271676Y-122498234D01*
X162215078Y-122447549D01*
X162170510Y-122384824D01*
X162137181Y-122308248D01*
X162114301Y-122216013D01*
X162101076Y-122106310D01*
X162096715Y-121977331D01*
X162096710Y-121973759D01*
X162096812Y-121929866D01*
X162243262Y-121929866D01*
X162243710Y-122017355D01*
X162246186Y-122084275D01*
X162257438Y-122176673D01*
X162276977Y-122255988D01*
X162303951Y-122317962D01*
X162324680Y-122348902D01*
X162354446Y-122377022D01*
X162396874Y-122400362D01*
X162412840Y-122407489D01*
X162445342Y-122419313D01*
X162469773Y-122421743D01*
X162494501Y-122416130D01*
X162510379Y-122410404D01*
X162570287Y-122377474D01*
X162616040Y-122330136D01*
X162649176Y-122266370D01*
X162671230Y-122184161D01*
X162671732Y-122181367D01*
X162677695Y-122135082D01*
X162681923Y-122078686D01*
X162683529Y-122023748D01*
X162683529Y-121929866D01*
X162243262Y-121929866D01*
X162096812Y-121929866D01*
X162096850Y-121913739D01*
X162097886Y-121871808D01*
X162100480Y-121843694D01*
X162105293Y-121825125D01*
X162112984Y-121811828D01*
X162124216Y-121799531D01*
X162151925Y-121771822D01*
X162461360Y-121771822D01*
X162522966Y-121771847D01*
G36*
X162522966Y-121771847D02*
G01*
X162601751Y-121772072D01*
X162662461Y-121772690D01*
X162683529Y-121773247D01*
X162707836Y-121773889D01*
X162740615Y-121775859D01*
X162763535Y-121778787D01*
X162779337Y-121782864D01*
X162790759Y-121788279D01*
X162800540Y-121795219D01*
X162830285Y-121818616D01*
X162829691Y-121984308D01*
X162829393Y-122019104D01*
X162825962Y-122117587D01*
X162818279Y-122198549D01*
X162805722Y-122265643D01*
X162787667Y-122322526D01*
X162763492Y-122372853D01*
X162761575Y-122376212D01*
X162724857Y-122434024D01*
X162687891Y-122476378D01*
X162644406Y-122509194D01*
X162588129Y-122538394D01*
X162578513Y-122542676D01*
X162515327Y-122565253D01*
X162459949Y-122572225D01*
X162404923Y-122563623D01*
X162342791Y-122539481D01*
X162341098Y-122538685D01*
X162271676Y-122498234D01*
X162215078Y-122447549D01*
X162170510Y-122384824D01*
X162137181Y-122308248D01*
X162114301Y-122216013D01*
X162101076Y-122106310D01*
X162096715Y-121977331D01*
X162096710Y-121973759D01*
X162096812Y-121929866D01*
X162243262Y-121929866D01*
X162243710Y-122017355D01*
X162246186Y-122084275D01*
X162257438Y-122176673D01*
X162276977Y-122255988D01*
X162303951Y-122317962D01*
X162324680Y-122348902D01*
X162354446Y-122377022D01*
X162396874Y-122400362D01*
X162412840Y-122407489D01*
X162445342Y-122419313D01*
X162469773Y-122421743D01*
X162494501Y-122416130D01*
X162510379Y-122410404D01*
X162570287Y-122377474D01*
X162616040Y-122330136D01*
X162649176Y-122266370D01*
X162671230Y-122184161D01*
X162671732Y-122181367D01*
X162677695Y-122135082D01*
X162681923Y-122078686D01*
X162683529Y-122023748D01*
X162683529Y-121929866D01*
X162243262Y-121929866D01*
X162096812Y-121929866D01*
X162096850Y-121913739D01*
X162097886Y-121871808D01*
X162100480Y-121843694D01*
X162105293Y-121825125D01*
X162112984Y-121811828D01*
X162124216Y-121799531D01*
X162151925Y-121771822D01*
X162461360Y-121771822D01*
X162522966Y-121771847D01*
G37*
X162463396Y-114682400D02*
X162539057Y-114682439D01*
X162616966Y-114682694D01*
X162676976Y-114683338D01*
X162721704Y-114684542D01*
X162753766Y-114686479D01*
X162775780Y-114689319D01*
X162790364Y-114693234D01*
X162800134Y-114698396D01*
X162807707Y-114704977D01*
X162813941Y-114711945D01*
X162821241Y-114724943D01*
X162825994Y-114744091D01*
X162828732Y-114773494D01*
X162829985Y-114817260D01*
X162830285Y-114879494D01*
X162829909Y-114928440D01*
X162825481Y-115035300D01*
X162815393Y-115124528D01*
X162798805Y-115199326D01*
X162774875Y-115262897D01*
X162742761Y-115318443D01*
X162701622Y-115369168D01*
X162695770Y-115375156D01*
X162647261Y-115412023D01*
X162586453Y-115443123D01*
X162522209Y-115464605D01*
X162463396Y-115472622D01*
X162442179Y-115471343D01*
X162384763Y-115459031D01*
X162324853Y-115436502D01*
X162270803Y-115407272D01*
X162230972Y-115374855D01*
X162213950Y-115355314D01*
X162174762Y-115300602D01*
X162144633Y-115240299D01*
X162122672Y-115171103D01*
X162107990Y-115089711D01*
X162099699Y-114992822D01*
X162097588Y-114905355D01*
X162243248Y-114905355D01*
X162243257Y-114908383D01*
X162245222Y-114959503D01*
X162249947Y-115019606D01*
X162256475Y-115076314D01*
X162265771Y-115126272D01*
X162292040Y-115201024D01*
X162331339Y-115258533D01*
X162384373Y-115300034D01*
X162435640Y-115321251D01*
X162483466Y-115322669D01*
X162534401Y-115304387D01*
X162580318Y-115274717D01*
X162622727Y-115228020D01*
X162652530Y-115166630D01*
X162671666Y-115087484D01*
X162671904Y-115085994D01*
X162677696Y-115037023D01*
X162681836Y-114978329D01*
X162683444Y-114922288D01*
X162683529Y-114829155D01*
X162243262Y-114829155D01*
X162243248Y-114905355D01*
X162097588Y-114905355D01*
X162096907Y-114877133D01*
X162096506Y-114837651D01*
X162096093Y-114791940D01*
X162097897Y-114756139D01*
X162104179Y-114729048D01*
X162117199Y-114709466D01*
X162139218Y-114696192D01*
X162172495Y-114688024D01*
X162219291Y-114683762D01*
X162243262Y-114683165D01*
X162281867Y-114682205D01*
X162362481Y-114682152D01*
X162463396Y-114682400D01*
G36*
X162463396Y-114682400D02*
G01*
X162539057Y-114682439D01*
X162616966Y-114682694D01*
X162676976Y-114683338D01*
X162721704Y-114684542D01*
X162753766Y-114686479D01*
X162775780Y-114689319D01*
X162790364Y-114693234D01*
X162800134Y-114698396D01*
X162807707Y-114704977D01*
X162813941Y-114711945D01*
X162821241Y-114724943D01*
X162825994Y-114744091D01*
X162828732Y-114773494D01*
X162829985Y-114817260D01*
X162830285Y-114879494D01*
X162829909Y-114928440D01*
X162825481Y-115035300D01*
X162815393Y-115124528D01*
X162798805Y-115199326D01*
X162774875Y-115262897D01*
X162742761Y-115318443D01*
X162701622Y-115369168D01*
X162695770Y-115375156D01*
X162647261Y-115412023D01*
X162586453Y-115443123D01*
X162522209Y-115464605D01*
X162463396Y-115472622D01*
X162442179Y-115471343D01*
X162384763Y-115459031D01*
X162324853Y-115436502D01*
X162270803Y-115407272D01*
X162230972Y-115374855D01*
X162213950Y-115355314D01*
X162174762Y-115300602D01*
X162144633Y-115240299D01*
X162122672Y-115171103D01*
X162107990Y-115089711D01*
X162099699Y-114992822D01*
X162097588Y-114905355D01*
X162243248Y-114905355D01*
X162243257Y-114908383D01*
X162245222Y-114959503D01*
X162249947Y-115019606D01*
X162256475Y-115076314D01*
X162265771Y-115126272D01*
X162292040Y-115201024D01*
X162331339Y-115258533D01*
X162384373Y-115300034D01*
X162435640Y-115321251D01*
X162483466Y-115322669D01*
X162534401Y-115304387D01*
X162580318Y-115274717D01*
X162622727Y-115228020D01*
X162652530Y-115166630D01*
X162671666Y-115087484D01*
X162671904Y-115085994D01*
X162677696Y-115037023D01*
X162681836Y-114978329D01*
X162683444Y-114922288D01*
X162683529Y-114829155D01*
X162243262Y-114829155D01*
X162243248Y-114905355D01*
X162097588Y-114905355D01*
X162096907Y-114877133D01*
X162096506Y-114837651D01*
X162096093Y-114791940D01*
X162097897Y-114756139D01*
X162104179Y-114729048D01*
X162117199Y-114709466D01*
X162139218Y-114696192D01*
X162172495Y-114688024D01*
X162219291Y-114683762D01*
X162243262Y-114683165D01*
X162281867Y-114682205D01*
X162362481Y-114682152D01*
X162463396Y-114682400D01*
G37*
X162521926Y-119570511D02*
X162601013Y-119570730D01*
X162661956Y-119571339D01*
X162707502Y-119572530D01*
X162740403Y-119574493D01*
X162763408Y-119577419D01*
X162779266Y-119581499D01*
X162790726Y-119586925D01*
X162800540Y-119593886D01*
X162824933Y-119624314D01*
X162827812Y-119659257D01*
X162808722Y-119696238D01*
X162805247Y-119700422D01*
X162796719Y-119708598D01*
X162785168Y-119714658D01*
X162767336Y-119719041D01*
X162739964Y-119722183D01*
X162699794Y-119724520D01*
X162643568Y-119726491D01*
X162568029Y-119728533D01*
X162348898Y-119734177D01*
X162589539Y-119999466D01*
X162656315Y-120073300D01*
X162714431Y-120138480D01*
X162759389Y-120190674D01*
X162792311Y-120231749D01*
X162814319Y-120263567D01*
X162826534Y-120287996D01*
X162830079Y-120306898D01*
X162826076Y-120322139D01*
X162815647Y-120335583D01*
X162799914Y-120349095D01*
X162791431Y-120355340D01*
X162780853Y-120360972D01*
X162766695Y-120365183D01*
X162746243Y-120368135D01*
X162716782Y-120369990D01*
X162675601Y-120370909D01*
X162619984Y-120371054D01*
X162547219Y-120370587D01*
X162454591Y-120369670D01*
X162139639Y-120366355D01*
X162118073Y-120339704D01*
X162101881Y-120313639D01*
X162099110Y-120280781D01*
X162118063Y-120246250D01*
X162121648Y-120241938D01*
X162130177Y-120233806D01*
X162141769Y-120227777D01*
X162159675Y-120223416D01*
X162187146Y-120220288D01*
X162227434Y-120217959D01*
X162283791Y-120215993D01*
X162359469Y-120213955D01*
X162579318Y-120208311D01*
X162415524Y-120027688D01*
X162336891Y-119940950D01*
X162268498Y-119865179D01*
X162213148Y-119803042D01*
X162169778Y-119752944D01*
X162137321Y-119713287D01*
X162114713Y-119682474D01*
X162100888Y-119658908D01*
X162094783Y-119640992D01*
X162095332Y-119627129D01*
X162101469Y-119615721D01*
X162112131Y-119605172D01*
X162126251Y-119593886D01*
X162132212Y-119589433D01*
X162142708Y-119583434D01*
X162156533Y-119578855D01*
X162176438Y-119575503D01*
X162205172Y-119573189D01*
X162245485Y-119571721D01*
X162300127Y-119570909D01*
X162371847Y-119570562D01*
X162463396Y-119570488D01*
X162521926Y-119570511D01*
G36*
X162521926Y-119570511D02*
G01*
X162601013Y-119570730D01*
X162661956Y-119571339D01*
X162707502Y-119572530D01*
X162740403Y-119574493D01*
X162763408Y-119577419D01*
X162779266Y-119581499D01*
X162790726Y-119586925D01*
X162800540Y-119593886D01*
X162824933Y-119624314D01*
X162827812Y-119659257D01*
X162808722Y-119696238D01*
X162805247Y-119700422D01*
X162796719Y-119708598D01*
X162785168Y-119714658D01*
X162767336Y-119719041D01*
X162739964Y-119722183D01*
X162699794Y-119724520D01*
X162643568Y-119726491D01*
X162568029Y-119728533D01*
X162348898Y-119734177D01*
X162589539Y-119999466D01*
X162656315Y-120073300D01*
X162714431Y-120138480D01*
X162759389Y-120190674D01*
X162792311Y-120231749D01*
X162814319Y-120263567D01*
X162826534Y-120287996D01*
X162830079Y-120306898D01*
X162826076Y-120322139D01*
X162815647Y-120335583D01*
X162799914Y-120349095D01*
X162791431Y-120355340D01*
X162780853Y-120360972D01*
X162766695Y-120365183D01*
X162746243Y-120368135D01*
X162716782Y-120369990D01*
X162675601Y-120370909D01*
X162619984Y-120371054D01*
X162547219Y-120370587D01*
X162454591Y-120369670D01*
X162139639Y-120366355D01*
X162118073Y-120339704D01*
X162101881Y-120313639D01*
X162099110Y-120280781D01*
X162118063Y-120246250D01*
X162121648Y-120241938D01*
X162130177Y-120233806D01*
X162141769Y-120227777D01*
X162159675Y-120223416D01*
X162187146Y-120220288D01*
X162227434Y-120217959D01*
X162283791Y-120215993D01*
X162359469Y-120213955D01*
X162579318Y-120208311D01*
X162415524Y-120027688D01*
X162336891Y-119940950D01*
X162268498Y-119865179D01*
X162213148Y-119803042D01*
X162169778Y-119752944D01*
X162137321Y-119713287D01*
X162114713Y-119682474D01*
X162100888Y-119658908D01*
X162094783Y-119640992D01*
X162095332Y-119627129D01*
X162101469Y-119615721D01*
X162112131Y-119605172D01*
X162126251Y-119593886D01*
X162132212Y-119589433D01*
X162142708Y-119583434D01*
X162156533Y-119578855D01*
X162176438Y-119575503D01*
X162205172Y-119573189D01*
X162245485Y-119571721D01*
X162300127Y-119570909D01*
X162371847Y-119570562D01*
X162463396Y-119570488D01*
X162521926Y-119570511D01*
G37*
X162481699Y-118386724D02*
X162533032Y-118399665D01*
X162589558Y-118422828D01*
X162643475Y-118452720D01*
X162686979Y-118485849D01*
X162697327Y-118496045D01*
X162749102Y-118563130D01*
X162788994Y-118643256D01*
X162813396Y-118729466D01*
X162821508Y-118784430D01*
X162828113Y-118877883D01*
X162826026Y-118967664D01*
X162815780Y-119050153D01*
X162797910Y-119121736D01*
X162772948Y-119178794D01*
X162741428Y-119217711D01*
X162739452Y-119219086D01*
X162714226Y-119226174D01*
X162666975Y-119230413D01*
X162597511Y-119231822D01*
X162535278Y-119230962D01*
X162487896Y-119226242D01*
X162455793Y-119214552D01*
X162436240Y-119192783D01*
X162426510Y-119157824D01*
X162423873Y-119106566D01*
X162425601Y-119035899D01*
X162428613Y-118987279D01*
X162436806Y-118937083D01*
X162450859Y-118904589D01*
X162472094Y-118887130D01*
X162501834Y-118882039D01*
X162506376Y-118882145D01*
X162541170Y-118890847D01*
X162564587Y-118914857D01*
X162577787Y-118956122D01*
X162581929Y-119016591D01*
X162581929Y-119085066D01*
X162620281Y-119085066D01*
X162629416Y-119085016D01*
X162646667Y-119082795D01*
X162656961Y-119073528D01*
X162663899Y-119052147D01*
X162671081Y-119013586D01*
X162672015Y-119008112D01*
X162681918Y-118911162D01*
X162678999Y-118821170D01*
X162664269Y-118740262D01*
X162638739Y-118670563D01*
X162603418Y-118614198D01*
X162559319Y-118573293D01*
X162507452Y-118549971D01*
X162448828Y-118546359D01*
X162419934Y-118551877D01*
X162364044Y-118578561D01*
X162318385Y-118624749D01*
X162283548Y-118689731D01*
X162260130Y-118772793D01*
X162255681Y-118797467D01*
X162245182Y-118886796D01*
X162246411Y-118966603D01*
X162259346Y-119044696D01*
X162266136Y-119079839D01*
X162267153Y-119125277D01*
X162254622Y-119156592D01*
X162227835Y-119176745D01*
X162199588Y-119183129D01*
X162168364Y-119173643D01*
X162154939Y-119164314D01*
X162131407Y-119130079D01*
X162113535Y-119077457D01*
X162102039Y-119008941D01*
X162097632Y-118927022D01*
X162101619Y-118829872D01*
X162117934Y-118723865D01*
X162145985Y-118630053D01*
X162184892Y-118551257D01*
X162233774Y-118490303D01*
X162266635Y-118464233D01*
X162315834Y-118434725D01*
X162369692Y-118409454D01*
X162420859Y-118391804D01*
X162461984Y-118385164D01*
X162481699Y-118386724D01*
G36*
X162481699Y-118386724D02*
G01*
X162533032Y-118399665D01*
X162589558Y-118422828D01*
X162643475Y-118452720D01*
X162686979Y-118485849D01*
X162697327Y-118496045D01*
X162749102Y-118563130D01*
X162788994Y-118643256D01*
X162813396Y-118729466D01*
X162821508Y-118784430D01*
X162828113Y-118877883D01*
X162826026Y-118967664D01*
X162815780Y-119050153D01*
X162797910Y-119121736D01*
X162772948Y-119178794D01*
X162741428Y-119217711D01*
X162739452Y-119219086D01*
X162714226Y-119226174D01*
X162666975Y-119230413D01*
X162597511Y-119231822D01*
X162535278Y-119230962D01*
X162487896Y-119226242D01*
X162455793Y-119214552D01*
X162436240Y-119192783D01*
X162426510Y-119157824D01*
X162423873Y-119106566D01*
X162425601Y-119035899D01*
X162428613Y-118987279D01*
X162436806Y-118937083D01*
X162450859Y-118904589D01*
X162472094Y-118887130D01*
X162501834Y-118882039D01*
X162506376Y-118882145D01*
X162541170Y-118890847D01*
X162564587Y-118914857D01*
X162577787Y-118956122D01*
X162581929Y-119016591D01*
X162581929Y-119085066D01*
X162620281Y-119085066D01*
X162629416Y-119085016D01*
X162646667Y-119082795D01*
X162656961Y-119073528D01*
X162663899Y-119052147D01*
X162671081Y-119013586D01*
X162672015Y-119008112D01*
X162681918Y-118911162D01*
X162678999Y-118821170D01*
X162664269Y-118740262D01*
X162638739Y-118670563D01*
X162603418Y-118614198D01*
X162559319Y-118573293D01*
X162507452Y-118549971D01*
X162448828Y-118546359D01*
X162419934Y-118551877D01*
X162364044Y-118578561D01*
X162318385Y-118624749D01*
X162283548Y-118689731D01*
X162260130Y-118772793D01*
X162255681Y-118797467D01*
X162245182Y-118886796D01*
X162246411Y-118966603D01*
X162259346Y-119044696D01*
X162266136Y-119079839D01*
X162267153Y-119125277D01*
X162254622Y-119156592D01*
X162227835Y-119176745D01*
X162199588Y-119183129D01*
X162168364Y-119173643D01*
X162154939Y-119164314D01*
X162131407Y-119130079D01*
X162113535Y-119077457D01*
X162102039Y-119008941D01*
X162097632Y-118927022D01*
X162101619Y-118829872D01*
X162117934Y-118723865D01*
X162145985Y-118630053D01*
X162184892Y-118551257D01*
X162233774Y-118490303D01*
X162266635Y-118464233D01*
X162315834Y-118434725D01*
X162369692Y-118409454D01*
X162420859Y-118391804D01*
X162461984Y-118385164D01*
X162481699Y-118386724D01*
G37*
X162534351Y-120755851D02*
X162612668Y-120756083D01*
X162672936Y-120756703D01*
X162717833Y-120757896D01*
X162750042Y-120759843D01*
X162772240Y-120762728D01*
X162787109Y-120766734D01*
X162797329Y-120772043D01*
X162805578Y-120778839D01*
X162810235Y-120783354D01*
X162816722Y-120791584D01*
X162821634Y-120802944D01*
X162825189Y-120820212D01*
X162827607Y-120846167D01*
X162829107Y-120883586D01*
X162829907Y-120935249D01*
X162830227Y-121003933D01*
X162830285Y-121092416D01*
X162830278Y-121112091D01*
X162830012Y-121199116D01*
X162829246Y-121266768D01*
X162827832Y-121317723D01*
X162825620Y-121354655D01*
X162822462Y-121380239D01*
X162818209Y-121397151D01*
X162812711Y-121408065D01*
X162802725Y-121418558D01*
X162771608Y-121431819D01*
X162735720Y-121430636D01*
X162704173Y-121414472D01*
X162701897Y-121412283D01*
X162695629Y-121403595D01*
X162690963Y-121390253D01*
X162687667Y-121369270D01*
X162685508Y-121337659D01*
X162684254Y-121292432D01*
X162683671Y-121230602D01*
X162683529Y-121149183D01*
X162683529Y-120902577D01*
X162525485Y-120902577D01*
X162525485Y-121065016D01*
X162525404Y-121100684D01*
X162524607Y-121156454D01*
X162522602Y-121195592D01*
X162518961Y-121222046D01*
X162513252Y-121239763D01*
X162505047Y-121252693D01*
X162501863Y-121256336D01*
X162470888Y-121274744D01*
X162434552Y-121275378D01*
X162400933Y-121257839D01*
X162400864Y-121257777D01*
X162392238Y-121248106D01*
X162386182Y-121234813D01*
X162382251Y-121214105D01*
X162379996Y-121182194D01*
X162378971Y-121135288D01*
X162378729Y-121069598D01*
X162378729Y-120901451D01*
X162313818Y-120904836D01*
X162248907Y-120908222D01*
X162245854Y-121150299D01*
X162245526Y-121175315D01*
X162244046Y-121256935D01*
X162241662Y-121319254D01*
X162237667Y-121364868D01*
X162231353Y-121396370D01*
X162222014Y-121416355D01*
X162208943Y-121427418D01*
X162191432Y-121432153D01*
X162168775Y-121433155D01*
X162166410Y-121433149D01*
X162146379Y-121431995D01*
X162130586Y-121427198D01*
X162118530Y-121416390D01*
X162109707Y-121397205D01*
X162103615Y-121367277D01*
X162099751Y-121324239D01*
X162097614Y-121265723D01*
X162096700Y-121189365D01*
X162096507Y-121092796D01*
X162096507Y-120802616D01*
X162126251Y-120779219D01*
X162132935Y-120774270D01*
X162143506Y-120768426D01*
X162157593Y-120763965D01*
X162177918Y-120760701D01*
X162207205Y-120758448D01*
X162248177Y-120757020D01*
X162303557Y-120756230D01*
X162376068Y-120755893D01*
X162468434Y-120755822D01*
X162534351Y-120755851D01*
G36*
X162534351Y-120755851D02*
G01*
X162612668Y-120756083D01*
X162672936Y-120756703D01*
X162717833Y-120757896D01*
X162750042Y-120759843D01*
X162772240Y-120762728D01*
X162787109Y-120766734D01*
X162797329Y-120772043D01*
X162805578Y-120778839D01*
X162810235Y-120783354D01*
X162816722Y-120791584D01*
X162821634Y-120802944D01*
X162825189Y-120820212D01*
X162827607Y-120846167D01*
X162829107Y-120883586D01*
X162829907Y-120935249D01*
X162830227Y-121003933D01*
X162830285Y-121092416D01*
X162830278Y-121112091D01*
X162830012Y-121199116D01*
X162829246Y-121266768D01*
X162827832Y-121317723D01*
X162825620Y-121354655D01*
X162822462Y-121380239D01*
X162818209Y-121397151D01*
X162812711Y-121408065D01*
X162802725Y-121418558D01*
X162771608Y-121431819D01*
X162735720Y-121430636D01*
X162704173Y-121414472D01*
X162701897Y-121412283D01*
X162695629Y-121403595D01*
X162690963Y-121390253D01*
X162687667Y-121369270D01*
X162685508Y-121337659D01*
X162684254Y-121292432D01*
X162683671Y-121230602D01*
X162683529Y-121149183D01*
X162683529Y-120902577D01*
X162525485Y-120902577D01*
X162525485Y-121065016D01*
X162525404Y-121100684D01*
X162524607Y-121156454D01*
X162522602Y-121195592D01*
X162518961Y-121222046D01*
X162513252Y-121239763D01*
X162505047Y-121252693D01*
X162501863Y-121256336D01*
X162470888Y-121274744D01*
X162434552Y-121275378D01*
X162400933Y-121257839D01*
X162400864Y-121257777D01*
X162392238Y-121248106D01*
X162386182Y-121234813D01*
X162382251Y-121214105D01*
X162379996Y-121182194D01*
X162378971Y-121135288D01*
X162378729Y-121069598D01*
X162378729Y-120901451D01*
X162313818Y-120904836D01*
X162248907Y-120908222D01*
X162245854Y-121150299D01*
X162245526Y-121175315D01*
X162244046Y-121256935D01*
X162241662Y-121319254D01*
X162237667Y-121364868D01*
X162231353Y-121396370D01*
X162222014Y-121416355D01*
X162208943Y-121427418D01*
X162191432Y-121432153D01*
X162168775Y-121433155D01*
X162166410Y-121433149D01*
X162146379Y-121431995D01*
X162130586Y-121427198D01*
X162118530Y-121416390D01*
X162109707Y-121397205D01*
X162103615Y-121367277D01*
X162099751Y-121324239D01*
X162097614Y-121265723D01*
X162096700Y-121189365D01*
X162096507Y-121092796D01*
X162096507Y-120802616D01*
X162126251Y-120779219D01*
X162132935Y-120774270D01*
X162143506Y-120768426D01*
X162157593Y-120763965D01*
X162177918Y-120760701D01*
X162207205Y-120758448D01*
X162248177Y-120757020D01*
X162303557Y-120756230D01*
X162376068Y-120755893D01*
X162468434Y-120755822D01*
X162534351Y-120755851D01*
G37*
X162538153Y-115811325D02*
X162616329Y-115811574D01*
X162676543Y-115812210D01*
X162721422Y-115813407D01*
X162753592Y-115815338D01*
X162775679Y-115818176D01*
X162790310Y-115822095D01*
X162800110Y-115827267D01*
X162807707Y-115833866D01*
X162810884Y-115837200D01*
X162816994Y-115845722D01*
X162821669Y-115857724D01*
X162825099Y-115875935D01*
X162827476Y-115903082D01*
X162828992Y-115941893D01*
X162829838Y-115995098D01*
X162830205Y-116065424D01*
X162830285Y-116155600D01*
X162830273Y-116197708D01*
X162830091Y-116278855D01*
X162829538Y-116341347D01*
X162828422Y-116387913D01*
X162826553Y-116421281D01*
X162823738Y-116444178D01*
X162819786Y-116459334D01*
X162814506Y-116469476D01*
X162807707Y-116477333D01*
X162786107Y-116492059D01*
X162756907Y-116499911D01*
X162733000Y-116494412D01*
X162706107Y-116477333D01*
X162701499Y-116472354D01*
X162695212Y-116462579D01*
X162690586Y-116448463D01*
X162687370Y-116426968D01*
X162685310Y-116395054D01*
X162684152Y-116349680D01*
X162683642Y-116287809D01*
X162683529Y-116206400D01*
X162683529Y-115958044D01*
X162525485Y-115958044D01*
X162525485Y-116119221D01*
X162525339Y-116155039D01*
X162523616Y-116220663D01*
X162519181Y-116267904D01*
X162511077Y-116299639D01*
X162498346Y-116318745D01*
X162480032Y-116328099D01*
X162455178Y-116330577D01*
X162434922Y-116329780D01*
X162413096Y-116324528D01*
X162397744Y-116311734D01*
X162387749Y-116288394D01*
X162381993Y-116251505D01*
X162379359Y-116198063D01*
X162378729Y-116125064D01*
X162378729Y-115956917D01*
X162313818Y-115960303D01*
X162248907Y-115963688D01*
X162245858Y-116211405D01*
X162244979Y-116273996D01*
X162243535Y-116342457D01*
X162241604Y-116393361D01*
X162238954Y-116429614D01*
X162235350Y-116454121D01*
X162230561Y-116469787D01*
X162224353Y-116479516D01*
X162217950Y-116485531D01*
X162186268Y-116498540D01*
X162150582Y-116494979D01*
X162119524Y-116475204D01*
X162116601Y-116471953D01*
X162110250Y-116462973D01*
X162105397Y-116450869D01*
X162101843Y-116432863D01*
X162099386Y-116406175D01*
X162097825Y-116368025D01*
X162096958Y-116315636D01*
X162096586Y-116246228D01*
X162096507Y-116157021D01*
X162096523Y-116102288D01*
X162096715Y-116025191D01*
X162097300Y-115966245D01*
X162098491Y-115922658D01*
X162100504Y-115891639D01*
X162103552Y-115870397D01*
X162107849Y-115856140D01*
X162113612Y-115846077D01*
X162121052Y-115837416D01*
X162122733Y-115835631D01*
X162130272Y-115828387D01*
X162139290Y-115822745D01*
X162152424Y-115818505D01*
X162172312Y-115815466D01*
X162201591Y-115813428D01*
X162242898Y-115812192D01*
X162298871Y-115811557D01*
X162372147Y-115811322D01*
X162465363Y-115811288D01*
X162538153Y-115811325D01*
G36*
X162538153Y-115811325D02*
G01*
X162616329Y-115811574D01*
X162676543Y-115812210D01*
X162721422Y-115813407D01*
X162753592Y-115815338D01*
X162775679Y-115818176D01*
X162790310Y-115822095D01*
X162800110Y-115827267D01*
X162807707Y-115833866D01*
X162810884Y-115837200D01*
X162816994Y-115845722D01*
X162821669Y-115857724D01*
X162825099Y-115875935D01*
X162827476Y-115903082D01*
X162828992Y-115941893D01*
X162829838Y-115995098D01*
X162830205Y-116065424D01*
X162830285Y-116155600D01*
X162830273Y-116197708D01*
X162830091Y-116278855D01*
X162829538Y-116341347D01*
X162828422Y-116387913D01*
X162826553Y-116421281D01*
X162823738Y-116444178D01*
X162819786Y-116459334D01*
X162814506Y-116469476D01*
X162807707Y-116477333D01*
X162786107Y-116492059D01*
X162756907Y-116499911D01*
X162733000Y-116494412D01*
X162706107Y-116477333D01*
X162701499Y-116472354D01*
X162695212Y-116462579D01*
X162690586Y-116448463D01*
X162687370Y-116426968D01*
X162685310Y-116395054D01*
X162684152Y-116349680D01*
X162683642Y-116287809D01*
X162683529Y-116206400D01*
X162683529Y-115958044D01*
X162525485Y-115958044D01*
X162525485Y-116119221D01*
X162525339Y-116155039D01*
X162523616Y-116220663D01*
X162519181Y-116267904D01*
X162511077Y-116299639D01*
X162498346Y-116318745D01*
X162480032Y-116328099D01*
X162455178Y-116330577D01*
X162434922Y-116329780D01*
X162413096Y-116324528D01*
X162397744Y-116311734D01*
X162387749Y-116288394D01*
X162381993Y-116251505D01*
X162379359Y-116198063D01*
X162378729Y-116125064D01*
X162378729Y-115956917D01*
X162313818Y-115960303D01*
X162248907Y-115963688D01*
X162245858Y-116211405D01*
X162244979Y-116273996D01*
X162243535Y-116342457D01*
X162241604Y-116393361D01*
X162238954Y-116429614D01*
X162235350Y-116454121D01*
X162230561Y-116469787D01*
X162224353Y-116479516D01*
X162217950Y-116485531D01*
X162186268Y-116498540D01*
X162150582Y-116494979D01*
X162119524Y-116475204D01*
X162116601Y-116471953D01*
X162110250Y-116462973D01*
X162105397Y-116450869D01*
X162101843Y-116432863D01*
X162099386Y-116406175D01*
X162097825Y-116368025D01*
X162096958Y-116315636D01*
X162096586Y-116246228D01*
X162096507Y-116157021D01*
X162096523Y-116102288D01*
X162096715Y-116025191D01*
X162097300Y-115966245D01*
X162098491Y-115922658D01*
X162100504Y-115891639D01*
X162103552Y-115870397D01*
X162107849Y-115856140D01*
X162113612Y-115846077D01*
X162121052Y-115837416D01*
X162122733Y-115835631D01*
X162130272Y-115828387D01*
X162139290Y-115822745D01*
X162152424Y-115818505D01*
X162172312Y-115815466D01*
X162201591Y-115813428D01*
X162242898Y-115812192D01*
X162298871Y-115811557D01*
X162372147Y-115811322D01*
X162465363Y-115811288D01*
X162538153Y-115811325D01*
G37*
X162179355Y-123663794D02*
X162213921Y-123676658D01*
X162262266Y-123696417D01*
X162321265Y-123721641D01*
X162387795Y-123750903D01*
X162458731Y-123782772D01*
X162530947Y-123815821D01*
X162601320Y-123848621D01*
X162666725Y-123879742D01*
X162724037Y-123907757D01*
X162770132Y-123931236D01*
X162801886Y-123948750D01*
X162816173Y-123958871D01*
X162829542Y-123993279D01*
X162823181Y-124034976D01*
X162818484Y-124040341D01*
X162796333Y-124056170D01*
X162759572Y-124078372D01*
X162711855Y-124104789D01*
X162656833Y-124133262D01*
X162497590Y-124213036D01*
X162644182Y-124286223D01*
X162663472Y-124295919D01*
X162715820Y-124322897D01*
X162760610Y-124346926D01*
X162793594Y-124365690D01*
X162810529Y-124376876D01*
X162811772Y-124378022D01*
X162827059Y-124406143D01*
X162828742Y-124441205D01*
X162816173Y-124472246D01*
X162813324Y-124474672D01*
X162792699Y-124486932D01*
X162755148Y-124506670D01*
X162703320Y-124532574D01*
X162639863Y-124563337D01*
X162567425Y-124597647D01*
X162488656Y-124634197D01*
X162444533Y-124654437D01*
X162363805Y-124691210D01*
X162300127Y-124719667D01*
X162251192Y-124740691D01*
X162214697Y-124755168D01*
X162188335Y-124763983D01*
X162169801Y-124768018D01*
X162156792Y-124768160D01*
X162147001Y-124765292D01*
X162126118Y-124750635D01*
X162105817Y-124724032D01*
X162105475Y-124723277D01*
X162098474Y-124703687D01*
X162097944Y-124686232D01*
X162105918Y-124669320D01*
X162124429Y-124651359D01*
X162155511Y-124630759D01*
X162201196Y-124605927D01*
X162263518Y-124575272D01*
X162344511Y-124537202D01*
X162375894Y-124522568D01*
X162439078Y-124492819D01*
X162493684Y-124466725D01*
X162536730Y-124445730D01*
X162565233Y-124431283D01*
X162576210Y-124424831D01*
X162575629Y-124423472D01*
X162561682Y-124413480D01*
X162532144Y-124396189D01*
X162490527Y-124373592D01*
X162440343Y-124347684D01*
X162408854Y-124331711D01*
X162353501Y-124302761D01*
X162314484Y-124280273D01*
X162289006Y-124262057D01*
X162274271Y-124245926D01*
X162267482Y-124229692D01*
X162265840Y-124211165D01*
X162266315Y-124200662D01*
X162270522Y-124184546D01*
X162281386Y-124169232D01*
X162301659Y-124152634D01*
X162334094Y-124132665D01*
X162381444Y-124107239D01*
X162446462Y-124074270D01*
X162465717Y-124064537D01*
X162512386Y-124040079D01*
X162548549Y-124019844D01*
X162570937Y-124005711D01*
X162576285Y-123999562D01*
X162573013Y-123998195D01*
X162552104Y-123988820D01*
X162515165Y-123971960D01*
X162465314Y-123949043D01*
X162405666Y-123921502D01*
X162339338Y-123890767D01*
X162282117Y-123864052D01*
X162220128Y-123834429D01*
X162174389Y-123811358D01*
X162142348Y-123793379D01*
X162121454Y-123779032D01*
X162109158Y-123766856D01*
X162102906Y-123755390D01*
X162100014Y-123745980D01*
X162099865Y-123720875D01*
X162115208Y-123693732D01*
X162116193Y-123692432D01*
X162138828Y-123670348D01*
X162161053Y-123659299D01*
X162161693Y-123659253D01*
X162179355Y-123663794D01*
G36*
X162179355Y-123663794D02*
G01*
X162213921Y-123676658D01*
X162262266Y-123696417D01*
X162321265Y-123721641D01*
X162387795Y-123750903D01*
X162458731Y-123782772D01*
X162530947Y-123815821D01*
X162601320Y-123848621D01*
X162666725Y-123879742D01*
X162724037Y-123907757D01*
X162770132Y-123931236D01*
X162801886Y-123948750D01*
X162816173Y-123958871D01*
X162829542Y-123993279D01*
X162823181Y-124034976D01*
X162818484Y-124040341D01*
X162796333Y-124056170D01*
X162759572Y-124078372D01*
X162711855Y-124104789D01*
X162656833Y-124133262D01*
X162497590Y-124213036D01*
X162644182Y-124286223D01*
X162663472Y-124295919D01*
X162715820Y-124322897D01*
X162760610Y-124346926D01*
X162793594Y-124365690D01*
X162810529Y-124376876D01*
X162811772Y-124378022D01*
X162827059Y-124406143D01*
X162828742Y-124441205D01*
X162816173Y-124472246D01*
X162813324Y-124474672D01*
X162792699Y-124486932D01*
X162755148Y-124506670D01*
X162703320Y-124532574D01*
X162639863Y-124563337D01*
X162567425Y-124597647D01*
X162488656Y-124634197D01*
X162444533Y-124654437D01*
X162363805Y-124691210D01*
X162300127Y-124719667D01*
X162251192Y-124740691D01*
X162214697Y-124755168D01*
X162188335Y-124763983D01*
X162169801Y-124768018D01*
X162156792Y-124768160D01*
X162147001Y-124765292D01*
X162126118Y-124750635D01*
X162105817Y-124724032D01*
X162105475Y-124723277D01*
X162098474Y-124703687D01*
X162097944Y-124686232D01*
X162105918Y-124669320D01*
X162124429Y-124651359D01*
X162155511Y-124630759D01*
X162201196Y-124605927D01*
X162263518Y-124575272D01*
X162344511Y-124537202D01*
X162375894Y-124522568D01*
X162439078Y-124492819D01*
X162493684Y-124466725D01*
X162536730Y-124445730D01*
X162565233Y-124431283D01*
X162576210Y-124424831D01*
X162575629Y-124423472D01*
X162561682Y-124413480D01*
X162532144Y-124396189D01*
X162490527Y-124373592D01*
X162440343Y-124347684D01*
X162408854Y-124331711D01*
X162353501Y-124302761D01*
X162314484Y-124280273D01*
X162289006Y-124262057D01*
X162274271Y-124245926D01*
X162267482Y-124229692D01*
X162265840Y-124211165D01*
X162266315Y-124200662D01*
X162270522Y-124184546D01*
X162281386Y-124169232D01*
X162301659Y-124152634D01*
X162334094Y-124132665D01*
X162381444Y-124107239D01*
X162446462Y-124074270D01*
X162465717Y-124064537D01*
X162512386Y-124040079D01*
X162548549Y-124019844D01*
X162570937Y-124005711D01*
X162576285Y-123999562D01*
X162573013Y-123998195D01*
X162552104Y-123988820D01*
X162515165Y-123971960D01*
X162465314Y-123949043D01*
X162405666Y-123921502D01*
X162339338Y-123890767D01*
X162282117Y-123864052D01*
X162220128Y-123834429D01*
X162174389Y-123811358D01*
X162142348Y-123793379D01*
X162121454Y-123779032D01*
X162109158Y-123766856D01*
X162102906Y-123755390D01*
X162100014Y-123745980D01*
X162099865Y-123720875D01*
X162115208Y-123693732D01*
X162116193Y-123692432D01*
X162138828Y-123670348D01*
X162161053Y-123659299D01*
X162161693Y-123659253D01*
X162179355Y-123663794D01*
G37*
X162347672Y-116783070D02*
X162372469Y-116788862D01*
X162394139Y-116803669D01*
X162421489Y-116831642D01*
X162428818Y-116839620D01*
X162449721Y-116863330D01*
X162466691Y-116885724D01*
X162480645Y-116909757D01*
X162492496Y-116938385D01*
X162503160Y-116974562D01*
X162513551Y-117021242D01*
X162524586Y-117081381D01*
X162537178Y-117157932D01*
X162552244Y-117253851D01*
X162555278Y-117272214D01*
X162568898Y-117334544D01*
X162584632Y-117379762D01*
X162601703Y-117406046D01*
X162619337Y-117411575D01*
X162623608Y-117408954D01*
X162638673Y-117391022D01*
X162655307Y-117362896D01*
X162661297Y-117350096D01*
X162668490Y-117328798D01*
X162673267Y-117302412D01*
X162676086Y-117266568D01*
X162677404Y-117216894D01*
X162677677Y-117149022D01*
X162677604Y-117131237D01*
X162676493Y-117063616D01*
X162674268Y-116998677D01*
X162671202Y-116943052D01*
X162667567Y-116903371D01*
X162663499Y-116867860D01*
X162662716Y-116838607D01*
X162667316Y-116819707D01*
X162677991Y-116804593D01*
X162681584Y-116800937D01*
X162713358Y-116784595D01*
X162749012Y-116785915D01*
X162779630Y-116804872D01*
X162791236Y-116825242D01*
X162803931Y-116861226D01*
X162813981Y-116903650D01*
X162814580Y-116907100D01*
X162819796Y-116949770D01*
X162824170Y-117007156D01*
X162827258Y-117072173D01*
X162828617Y-117137733D01*
X162828658Y-117153965D01*
X162826181Y-117252278D01*
X162818175Y-117332330D01*
X162803643Y-117397509D01*
X162781589Y-117451205D01*
X162751016Y-117496806D01*
X162710926Y-117537699D01*
X162684699Y-117557820D01*
X162655152Y-117569446D01*
X162615435Y-117572355D01*
X162603466Y-117572214D01*
X162570785Y-117568341D01*
X162544259Y-117555957D01*
X162513411Y-117530792D01*
X162491271Y-117509580D01*
X162468725Y-117483184D01*
X162450357Y-117453467D01*
X162435101Y-117417237D01*
X162421889Y-117371305D01*
X162409654Y-117312478D01*
X162397329Y-117237566D01*
X162383846Y-117143377D01*
X162376836Y-117098065D01*
X162362277Y-117030111D01*
X162345777Y-116980975D01*
X162327879Y-116951408D01*
X162309125Y-116942158D01*
X162290055Y-116953974D01*
X162271211Y-116987606D01*
X162269997Y-116990652D01*
X162257919Y-117037011D01*
X162249719Y-117099661D01*
X162245559Y-117173095D01*
X162245601Y-117251805D01*
X162250009Y-117330283D01*
X162258945Y-117403022D01*
X162259594Y-117406949D01*
X162267301Y-117455765D01*
X162270913Y-117488017D01*
X162270316Y-117509014D01*
X162265394Y-117524068D01*
X162256036Y-117538488D01*
X162255165Y-117539658D01*
X162224791Y-117564175D01*
X162189290Y-117568968D01*
X162154709Y-117553162D01*
X162150253Y-117548616D01*
X162135113Y-117519002D01*
X162121990Y-117472020D01*
X162111190Y-117411716D01*
X162103021Y-117342134D01*
X162097791Y-117267319D01*
X162095807Y-117191316D01*
X162097376Y-117118169D01*
X162102806Y-117051922D01*
X162112404Y-116996622D01*
X162127265Y-116945739D01*
X162160398Y-116874427D01*
X162203080Y-116823270D01*
X162255145Y-116792447D01*
X162316423Y-116782133D01*
X162347672Y-116783070D01*
G36*
X162347672Y-116783070D02*
G01*
X162372469Y-116788862D01*
X162394139Y-116803669D01*
X162421489Y-116831642D01*
X162428818Y-116839620D01*
X162449721Y-116863330D01*
X162466691Y-116885724D01*
X162480645Y-116909757D01*
X162492496Y-116938385D01*
X162503160Y-116974562D01*
X162513551Y-117021242D01*
X162524586Y-117081381D01*
X162537178Y-117157932D01*
X162552244Y-117253851D01*
X162555278Y-117272214D01*
X162568898Y-117334544D01*
X162584632Y-117379762D01*
X162601703Y-117406046D01*
X162619337Y-117411575D01*
X162623608Y-117408954D01*
X162638673Y-117391022D01*
X162655307Y-117362896D01*
X162661297Y-117350096D01*
X162668490Y-117328798D01*
X162673267Y-117302412D01*
X162676086Y-117266568D01*
X162677404Y-117216894D01*
X162677677Y-117149022D01*
X162677604Y-117131237D01*
X162676493Y-117063616D01*
X162674268Y-116998677D01*
X162671202Y-116943052D01*
X162667567Y-116903371D01*
X162663499Y-116867860D01*
X162662716Y-116838607D01*
X162667316Y-116819707D01*
X162677991Y-116804593D01*
X162681584Y-116800937D01*
X162713358Y-116784595D01*
X162749012Y-116785915D01*
X162779630Y-116804872D01*
X162791236Y-116825242D01*
X162803931Y-116861226D01*
X162813981Y-116903650D01*
X162814580Y-116907100D01*
X162819796Y-116949770D01*
X162824170Y-117007156D01*
X162827258Y-117072173D01*
X162828617Y-117137733D01*
X162828658Y-117153965D01*
X162826181Y-117252278D01*
X162818175Y-117332330D01*
X162803643Y-117397509D01*
X162781589Y-117451205D01*
X162751016Y-117496806D01*
X162710926Y-117537699D01*
X162684699Y-117557820D01*
X162655152Y-117569446D01*
X162615435Y-117572355D01*
X162603466Y-117572214D01*
X162570785Y-117568341D01*
X162544259Y-117555957D01*
X162513411Y-117530792D01*
X162491271Y-117509580D01*
X162468725Y-117483184D01*
X162450357Y-117453467D01*
X162435101Y-117417237D01*
X162421889Y-117371305D01*
X162409654Y-117312478D01*
X162397329Y-117237566D01*
X162383846Y-117143377D01*
X162376836Y-117098065D01*
X162362277Y-117030111D01*
X162345777Y-116980975D01*
X162327879Y-116951408D01*
X162309125Y-116942158D01*
X162290055Y-116953974D01*
X162271211Y-116987606D01*
X162269997Y-116990652D01*
X162257919Y-117037011D01*
X162249719Y-117099661D01*
X162245559Y-117173095D01*
X162245601Y-117251805D01*
X162250009Y-117330283D01*
X162258945Y-117403022D01*
X162259594Y-117406949D01*
X162267301Y-117455765D01*
X162270913Y-117488017D01*
X162270316Y-117509014D01*
X162265394Y-117524068D01*
X162256036Y-117538488D01*
X162255165Y-117539658D01*
X162224791Y-117564175D01*
X162189290Y-117568968D01*
X162154709Y-117553162D01*
X162150253Y-117548616D01*
X162135113Y-117519002D01*
X162121990Y-117472020D01*
X162111190Y-117411716D01*
X162103021Y-117342134D01*
X162097791Y-117267319D01*
X162095807Y-117191316D01*
X162097376Y-117118169D01*
X162102806Y-117051922D01*
X162112404Y-116996622D01*
X162127265Y-116945739D01*
X162160398Y-116874427D01*
X162203080Y-116823270D01*
X162255145Y-116792447D01*
X162316423Y-116782133D01*
X162347672Y-116783070D01*
G37*
X159020891Y-119350515D02*
X159268160Y-119380070D01*
X159499631Y-119430327D01*
X159716947Y-119501737D01*
X159921750Y-119594748D01*
X160115681Y-119709810D01*
X160263842Y-119817892D01*
X160430548Y-119967130D01*
X160573337Y-120129793D01*
X160692162Y-120305809D01*
X160786977Y-120495107D01*
X160857735Y-120697617D01*
X160904390Y-120913266D01*
X160904753Y-120915727D01*
X160908397Y-120957256D01*
X160911100Y-121019926D01*
X160912735Y-121097941D01*
X160913178Y-121185506D01*
X160912300Y-121276827D01*
X160911015Y-121340830D01*
X160908038Y-121435791D01*
X160903776Y-121511886D01*
X160897774Y-121574602D01*
X160889577Y-121629429D01*
X160878730Y-121681854D01*
X160864713Y-121740837D01*
X160848751Y-121802374D01*
X160832006Y-121858028D01*
X160812516Y-121912851D01*
X160788321Y-121971892D01*
X160757458Y-122040203D01*
X160717967Y-122122836D01*
X160667887Y-122224841D01*
X160528463Y-122506962D01*
X160157315Y-122281001D01*
X160108738Y-122251418D01*
X160021537Y-122198271D01*
X159943579Y-122150700D01*
X159877706Y-122110446D01*
X159826764Y-122079246D01*
X159793595Y-122058838D01*
X159781043Y-122050962D01*
X159781418Y-122048772D01*
X159793702Y-122031126D01*
X159819195Y-122000125D01*
X159853942Y-121960667D01*
X159913977Y-121890394D01*
X160002754Y-121764943D01*
X160064642Y-121643225D01*
X160095548Y-121555269D01*
X160127133Y-121406497D01*
X160132732Y-121260325D01*
X160112725Y-121118871D01*
X160067494Y-120984256D01*
X159997421Y-120858600D01*
X159902887Y-120744021D01*
X159833259Y-120680265D01*
X159704472Y-120590447D01*
X159555021Y-120516747D01*
X159384140Y-120458813D01*
X159191065Y-120416293D01*
X159179079Y-120414363D01*
X159101391Y-120405451D01*
X159004865Y-120398817D01*
X158896097Y-120394514D01*
X158781682Y-120392595D01*
X158668216Y-120393116D01*
X158562294Y-120396129D01*
X158470511Y-120401688D01*
X158399465Y-120409847D01*
X158238528Y-120441120D01*
X158050534Y-120493740D01*
X157885948Y-120559919D01*
X157744897Y-120639567D01*
X157627508Y-120732597D01*
X157533911Y-120838920D01*
X157464230Y-120958447D01*
X157418595Y-121091090D01*
X157412931Y-121120519D01*
X157405536Y-121194270D01*
X157403122Y-121280458D01*
X157405556Y-121369430D01*
X157412708Y-121451528D01*
X157424443Y-121517097D01*
X157461809Y-121626328D01*
X157530026Y-121753087D01*
X157619798Y-121865956D01*
X157638709Y-121885877D01*
X157672166Y-121921974D01*
X157694686Y-121947485D01*
X157702176Y-121957850D01*
X157698594Y-121960401D01*
X157675971Y-121976108D01*
X157634895Y-122004482D01*
X157578084Y-122043650D01*
X157508260Y-122091736D01*
X157428141Y-122146866D01*
X157340449Y-122207165D01*
X156981650Y-122453800D01*
X156965143Y-122398703D01*
X156963272Y-122392954D01*
X156948414Y-122355529D01*
X156924456Y-122301570D01*
X156894279Y-122237412D01*
X156860765Y-122169385D01*
X156845948Y-122139742D01*
X156769449Y-121975138D01*
X156710293Y-121823424D01*
X156666966Y-121678766D01*
X156637955Y-121535328D01*
X156621747Y-121387276D01*
X156616828Y-121228773D01*
X156619326Y-121118467D01*
X156636263Y-120933966D01*
X156670422Y-120762565D01*
X156723239Y-120597887D01*
X156796153Y-120433558D01*
X156889249Y-120270890D01*
X157016162Y-120096315D01*
X157162898Y-119934426D01*
X157325824Y-119788786D01*
X157501307Y-119662962D01*
X157685716Y-119560517D01*
X157705444Y-119551218D01*
X157895861Y-119473341D01*
X158093725Y-119414166D01*
X158302818Y-119372927D01*
X158526918Y-119348862D01*
X158769807Y-119341203D01*
X159020891Y-119350515D01*
G36*
X159020891Y-119350515D02*
G01*
X159268160Y-119380070D01*
X159499631Y-119430327D01*
X159716947Y-119501737D01*
X159921750Y-119594748D01*
X160115681Y-119709810D01*
X160263842Y-119817892D01*
X160430548Y-119967130D01*
X160573337Y-120129793D01*
X160692162Y-120305809D01*
X160786977Y-120495107D01*
X160857735Y-120697617D01*
X160904390Y-120913266D01*
X160904753Y-120915727D01*
X160908397Y-120957256D01*
X160911100Y-121019926D01*
X160912735Y-121097941D01*
X160913178Y-121185506D01*
X160912300Y-121276827D01*
X160911015Y-121340830D01*
X160908038Y-121435791D01*
X160903776Y-121511886D01*
X160897774Y-121574602D01*
X160889577Y-121629429D01*
X160878730Y-121681854D01*
X160864713Y-121740837D01*
X160848751Y-121802374D01*
X160832006Y-121858028D01*
X160812516Y-121912851D01*
X160788321Y-121971892D01*
X160757458Y-122040203D01*
X160717967Y-122122836D01*
X160667887Y-122224841D01*
X160528463Y-122506962D01*
X160157315Y-122281001D01*
X160108738Y-122251418D01*
X160021537Y-122198271D01*
X159943579Y-122150700D01*
X159877706Y-122110446D01*
X159826764Y-122079246D01*
X159793595Y-122058838D01*
X159781043Y-122050962D01*
X159781418Y-122048772D01*
X159793702Y-122031126D01*
X159819195Y-122000125D01*
X159853942Y-121960667D01*
X159913977Y-121890394D01*
X160002754Y-121764943D01*
X160064642Y-121643225D01*
X160095548Y-121555269D01*
X160127133Y-121406497D01*
X160132732Y-121260325D01*
X160112725Y-121118871D01*
X160067494Y-120984256D01*
X159997421Y-120858600D01*
X159902887Y-120744021D01*
X159833259Y-120680265D01*
X159704472Y-120590447D01*
X159555021Y-120516747D01*
X159384140Y-120458813D01*
X159191065Y-120416293D01*
X159179079Y-120414363D01*
X159101391Y-120405451D01*
X159004865Y-120398817D01*
X158896097Y-120394514D01*
X158781682Y-120392595D01*
X158668216Y-120393116D01*
X158562294Y-120396129D01*
X158470511Y-120401688D01*
X158399465Y-120409847D01*
X158238528Y-120441120D01*
X158050534Y-120493740D01*
X157885948Y-120559919D01*
X157744897Y-120639567D01*
X157627508Y-120732597D01*
X157533911Y-120838920D01*
X157464230Y-120958447D01*
X157418595Y-121091090D01*
X157412931Y-121120519D01*
X157405536Y-121194270D01*
X157403122Y-121280458D01*
X157405556Y-121369430D01*
X157412708Y-121451528D01*
X157424443Y-121517097D01*
X157461809Y-121626328D01*
X157530026Y-121753087D01*
X157619798Y-121865956D01*
X157638709Y-121885877D01*
X157672166Y-121921974D01*
X157694686Y-121947485D01*
X157702176Y-121957850D01*
X157698594Y-121960401D01*
X157675971Y-121976108D01*
X157634895Y-122004482D01*
X157578084Y-122043650D01*
X157508260Y-122091736D01*
X157428141Y-122146866D01*
X157340449Y-122207165D01*
X156981650Y-122453800D01*
X156965143Y-122398703D01*
X156963272Y-122392954D01*
X156948414Y-122355529D01*
X156924456Y-122301570D01*
X156894279Y-122237412D01*
X156860765Y-122169385D01*
X156845948Y-122139742D01*
X156769449Y-121975138D01*
X156710293Y-121823424D01*
X156666966Y-121678766D01*
X156637955Y-121535328D01*
X156621747Y-121387276D01*
X156616828Y-121228773D01*
X156619326Y-121118467D01*
X156636263Y-120933966D01*
X156670422Y-120762565D01*
X156723239Y-120597887D01*
X156796153Y-120433558D01*
X156889249Y-120270890D01*
X157016162Y-120096315D01*
X157162898Y-119934426D01*
X157325824Y-119788786D01*
X157501307Y-119662962D01*
X157685716Y-119560517D01*
X157705444Y-119551218D01*
X157895861Y-119473341D01*
X158093725Y-119414166D01*
X158302818Y-119372927D01*
X158526918Y-119348862D01*
X158769807Y-119341203D01*
X159020891Y-119350515D01*
G37*
X159607305Y-125606472D02*
X159719357Y-125614802D01*
X159822500Y-125629194D01*
X159922829Y-125650293D01*
X160026438Y-125678744D01*
X160150281Y-125721886D01*
X160317464Y-125801124D01*
X160467209Y-125898321D01*
X160598100Y-126011989D01*
X160708722Y-126140642D01*
X160797660Y-126282793D01*
X160863498Y-126436955D01*
X160904822Y-126601640D01*
X160905154Y-126603622D01*
X160916734Y-126723977D01*
X160915189Y-126856215D01*
X160901470Y-126990910D01*
X160876531Y-127118630D01*
X160841325Y-127229948D01*
X160819901Y-127277463D01*
X160787338Y-127339345D01*
X160750094Y-127402934D01*
X160712269Y-127461593D01*
X160677962Y-127508688D01*
X160651272Y-127537584D01*
X160643944Y-127544217D01*
X160641383Y-127552125D01*
X160654099Y-127557411D01*
X160686147Y-127561306D01*
X160741579Y-127565043D01*
X160857086Y-127571908D01*
X160860682Y-128097745D01*
X160864279Y-128623582D01*
X160802194Y-128587198D01*
X160798524Y-128585029D01*
X160781292Y-128574449D01*
X160765941Y-128564851D01*
X160751137Y-128556183D01*
X160735547Y-128548394D01*
X160717837Y-128541432D01*
X160696672Y-128535245D01*
X160670721Y-128529783D01*
X160638648Y-128524992D01*
X160599120Y-128520822D01*
X160550805Y-128517220D01*
X160492367Y-128514136D01*
X160422474Y-128511517D01*
X160339792Y-128509312D01*
X160242987Y-128507470D01*
X160130725Y-128505938D01*
X160001673Y-128504665D01*
X159854498Y-128503599D01*
X159687866Y-128502689D01*
X159500442Y-128501883D01*
X159290894Y-128501129D01*
X159057888Y-128500376D01*
X158800090Y-128499572D01*
X158516167Y-128498665D01*
X156422383Y-128491800D01*
X156418793Y-127946043D01*
X156418552Y-127906355D01*
X156418073Y-127789584D01*
X156417975Y-127682779D01*
X156418240Y-127588856D01*
X156418847Y-127510730D01*
X156419776Y-127451316D01*
X156421007Y-127413530D01*
X156422520Y-127400287D01*
X156427317Y-127401981D01*
X156450058Y-127414620D01*
X156483129Y-127435554D01*
X156486291Y-127437642D01*
X156511825Y-127453872D01*
X156536669Y-127467481D01*
X156563382Y-127478698D01*
X156594522Y-127487755D01*
X156632650Y-127494883D01*
X156680323Y-127500311D01*
X156740101Y-127504271D01*
X156814543Y-127506994D01*
X156906208Y-127508709D01*
X157017656Y-127509649D01*
X157151444Y-127510044D01*
X157310133Y-127510125D01*
X157434029Y-127509981D01*
X157555667Y-127509540D01*
X157665959Y-127508835D01*
X157762221Y-127507897D01*
X157841767Y-127506757D01*
X157901911Y-127505449D01*
X157939966Y-127504004D01*
X157953248Y-127502455D01*
X157951187Y-127497456D01*
X157936670Y-127475483D01*
X157912829Y-127444103D01*
X157880767Y-127398610D01*
X157833527Y-127313136D01*
X157791388Y-127215442D01*
X157758618Y-127114648D01*
X157757483Y-127108895D01*
X158442043Y-127108895D01*
X158451572Y-127214839D01*
X158481820Y-127322435D01*
X158532966Y-127427746D01*
X158578230Y-127503260D01*
X160005453Y-127503260D01*
X160050481Y-127434611D01*
X160066701Y-127408211D01*
X160099105Y-127347762D01*
X160124909Y-127290449D01*
X160133646Y-127265349D01*
X160151089Y-127185483D01*
X160159996Y-127084503D01*
X160161849Y-127033155D01*
X160161427Y-126985491D01*
X160156667Y-126950010D01*
X160146262Y-126918185D01*
X160128907Y-126881491D01*
X160082417Y-126810972D01*
X160016654Y-126749879D01*
X159931906Y-126700977D01*
X159826845Y-126663799D01*
X159700143Y-126637882D01*
X159550470Y-126622758D01*
X159376500Y-126617964D01*
X159336948Y-126618197D01*
X159153692Y-126625089D01*
X158994233Y-126641826D01*
X158856891Y-126668813D01*
X158739982Y-126706459D01*
X158641825Y-126755170D01*
X158560736Y-126815353D01*
X158535988Y-126840321D01*
X158484429Y-126917701D01*
X158453055Y-127008538D01*
X158442043Y-127108895D01*
X157757483Y-127108895D01*
X157741908Y-127029962D01*
X157731257Y-126924491D01*
X157727566Y-126810343D01*
X157730842Y-126696325D01*
X157741088Y-126591247D01*
X157758308Y-126503918D01*
X157787316Y-126414997D01*
X157857637Y-126266656D01*
X157951125Y-126129304D01*
X158065625Y-126005473D01*
X158198987Y-125897699D01*
X158349056Y-125808515D01*
X158395074Y-125786374D01*
X158550296Y-125724327D01*
X158718761Y-125675818D01*
X158903440Y-125640234D01*
X159107301Y-125616961D01*
X159333315Y-125605387D01*
X159376500Y-125604849D01*
X159480249Y-125603559D01*
X159607305Y-125606472D01*
G36*
X159607305Y-125606472D02*
G01*
X159719357Y-125614802D01*
X159822500Y-125629194D01*
X159922829Y-125650293D01*
X160026438Y-125678744D01*
X160150281Y-125721886D01*
X160317464Y-125801124D01*
X160467209Y-125898321D01*
X160598100Y-126011989D01*
X160708722Y-126140642D01*
X160797660Y-126282793D01*
X160863498Y-126436955D01*
X160904822Y-126601640D01*
X160905154Y-126603622D01*
X160916734Y-126723977D01*
X160915189Y-126856215D01*
X160901470Y-126990910D01*
X160876531Y-127118630D01*
X160841325Y-127229948D01*
X160819901Y-127277463D01*
X160787338Y-127339345D01*
X160750094Y-127402934D01*
X160712269Y-127461593D01*
X160677962Y-127508688D01*
X160651272Y-127537584D01*
X160643944Y-127544217D01*
X160641383Y-127552125D01*
X160654099Y-127557411D01*
X160686147Y-127561306D01*
X160741579Y-127565043D01*
X160857086Y-127571908D01*
X160860682Y-128097745D01*
X160864279Y-128623582D01*
X160802194Y-128587198D01*
X160798524Y-128585029D01*
X160781292Y-128574449D01*
X160765941Y-128564851D01*
X160751137Y-128556183D01*
X160735547Y-128548394D01*
X160717837Y-128541432D01*
X160696672Y-128535245D01*
X160670721Y-128529783D01*
X160638648Y-128524992D01*
X160599120Y-128520822D01*
X160550805Y-128517220D01*
X160492367Y-128514136D01*
X160422474Y-128511517D01*
X160339792Y-128509312D01*
X160242987Y-128507470D01*
X160130725Y-128505938D01*
X160001673Y-128504665D01*
X159854498Y-128503599D01*
X159687866Y-128502689D01*
X159500442Y-128501883D01*
X159290894Y-128501129D01*
X159057888Y-128500376D01*
X158800090Y-128499572D01*
X158516167Y-128498665D01*
X156422383Y-128491800D01*
X156418793Y-127946043D01*
X156418552Y-127906355D01*
X156418073Y-127789584D01*
X156417975Y-127682779D01*
X156418240Y-127588856D01*
X156418847Y-127510730D01*
X156419776Y-127451316D01*
X156421007Y-127413530D01*
X156422520Y-127400287D01*
X156427317Y-127401981D01*
X156450058Y-127414620D01*
X156483129Y-127435554D01*
X156486291Y-127437642D01*
X156511825Y-127453872D01*
X156536669Y-127467481D01*
X156563382Y-127478698D01*
X156594522Y-127487755D01*
X156632650Y-127494883D01*
X156680323Y-127500311D01*
X156740101Y-127504271D01*
X156814543Y-127506994D01*
X156906208Y-127508709D01*
X157017656Y-127509649D01*
X157151444Y-127510044D01*
X157310133Y-127510125D01*
X157434029Y-127509981D01*
X157555667Y-127509540D01*
X157665959Y-127508835D01*
X157762221Y-127507897D01*
X157841767Y-127506757D01*
X157901911Y-127505449D01*
X157939966Y-127504004D01*
X157953248Y-127502455D01*
X157951187Y-127497456D01*
X157936670Y-127475483D01*
X157912829Y-127444103D01*
X157880767Y-127398610D01*
X157833527Y-127313136D01*
X157791388Y-127215442D01*
X157758618Y-127114648D01*
X157757483Y-127108895D01*
X158442043Y-127108895D01*
X158451572Y-127214839D01*
X158481820Y-127322435D01*
X158532966Y-127427746D01*
X158578230Y-127503260D01*
X160005453Y-127503260D01*
X160050481Y-127434611D01*
X160066701Y-127408211D01*
X160099105Y-127347762D01*
X160124909Y-127290449D01*
X160133646Y-127265349D01*
X160151089Y-127185483D01*
X160159996Y-127084503D01*
X160161849Y-127033155D01*
X160161427Y-126985491D01*
X160156667Y-126950010D01*
X160146262Y-126918185D01*
X160128907Y-126881491D01*
X160082417Y-126810972D01*
X160016654Y-126749879D01*
X159931906Y-126700977D01*
X159826845Y-126663799D01*
X159700143Y-126637882D01*
X159550470Y-126622758D01*
X159376500Y-126617964D01*
X159336948Y-126618197D01*
X159153692Y-126625089D01*
X158994233Y-126641826D01*
X158856891Y-126668813D01*
X158739982Y-126706459D01*
X158641825Y-126755170D01*
X158560736Y-126815353D01*
X158535988Y-126840321D01*
X158484429Y-126917701D01*
X158453055Y-127008538D01*
X158442043Y-127108895D01*
X157757483Y-127108895D01*
X157741908Y-127029962D01*
X157731257Y-126924491D01*
X157727566Y-126810343D01*
X157730842Y-126696325D01*
X157741088Y-126591247D01*
X157758308Y-126503918D01*
X157787316Y-126414997D01*
X157857637Y-126266656D01*
X157951125Y-126129304D01*
X158065625Y-126005473D01*
X158198987Y-125897699D01*
X158349056Y-125808515D01*
X158395074Y-125786374D01*
X158550296Y-125724327D01*
X158718761Y-125675818D01*
X158903440Y-125640234D01*
X159107301Y-125616961D01*
X159333315Y-125605387D01*
X159376500Y-125604849D01*
X159480249Y-125603559D01*
X159607305Y-125606472D01*
G37*
X160022984Y-122506352D02*
X160125987Y-122519679D01*
X160211789Y-122539788D01*
X160300066Y-122571874D01*
X160445547Y-122646251D01*
X160573543Y-122741320D01*
X160683181Y-122856096D01*
X160773590Y-122989595D01*
X160843896Y-123140834D01*
X160893229Y-123308827D01*
X160904356Y-123377331D01*
X160912089Y-123475221D01*
X160913828Y-123581830D01*
X160909713Y-123688249D01*
X160899885Y-123785569D01*
X160884484Y-123864881D01*
X160872358Y-123904735D01*
X160836874Y-123995251D01*
X160791823Y-124087262D01*
X160742091Y-124171276D01*
X160692564Y-124237799D01*
X160691849Y-124238617D01*
X160660940Y-124275071D01*
X160638931Y-124303118D01*
X160630546Y-124316745D01*
X160632548Y-124318235D01*
X160654174Y-124321606D01*
X160694508Y-124323949D01*
X160747248Y-124324827D01*
X160863951Y-124324827D01*
X160863951Y-124839692D01*
X160863949Y-124853398D01*
X160863748Y-124968349D01*
X160863247Y-125073850D01*
X160862485Y-125166900D01*
X160861497Y-125244497D01*
X160860322Y-125303640D01*
X160858997Y-125341328D01*
X160857559Y-125354557D01*
X160856302Y-125354249D01*
X160837749Y-125345594D01*
X160802893Y-125327451D01*
X160758018Y-125303070D01*
X160664870Y-125251584D01*
X159696924Y-125243638D01*
X159555943Y-125242457D01*
X159376141Y-125240805D01*
X159220047Y-125239071D01*
X159085453Y-125237114D01*
X158970153Y-125234795D01*
X158871937Y-125231974D01*
X158788600Y-125228510D01*
X158717933Y-125224264D01*
X158657728Y-125219094D01*
X158605779Y-125212862D01*
X158559878Y-125205427D01*
X158517817Y-125196648D01*
X158477389Y-125186387D01*
X158436385Y-125174501D01*
X158392600Y-125160853D01*
X158255333Y-125107084D01*
X158128470Y-125033449D01*
X158019856Y-124941748D01*
X157928922Y-124831139D01*
X157855101Y-124700784D01*
X157797823Y-124549843D01*
X157756521Y-124377477D01*
X157730626Y-124182845D01*
X157725477Y-124114819D01*
X157721712Y-124000252D01*
X157725102Y-123886698D01*
X157736220Y-123768841D01*
X157755636Y-123641364D01*
X157783922Y-123498951D01*
X157821651Y-123336287D01*
X157830780Y-123298687D01*
X157853244Y-123204265D01*
X157873927Y-123114771D01*
X157891609Y-123035633D01*
X157905068Y-122972278D01*
X157913081Y-122930134D01*
X157929051Y-122832900D01*
X158260366Y-122969598D01*
X158343088Y-123003791D01*
X158424144Y-123037429D01*
X158493349Y-123066291D01*
X158547316Y-123088959D01*
X158582660Y-123104017D01*
X158595994Y-123110047D01*
X158596185Y-123110995D01*
X158590232Y-123128470D01*
X158574976Y-123162831D01*
X158553131Y-123207880D01*
X158510591Y-123301512D01*
X158464078Y-123430356D01*
X158428458Y-123562228D01*
X158404626Y-123691970D01*
X158393475Y-123814425D01*
X158395902Y-123924437D01*
X158412800Y-124016849D01*
X158439612Y-124081345D01*
X158494558Y-124154594D01*
X158569100Y-124210981D01*
X158660943Y-124248893D01*
X158767795Y-124266715D01*
X158866275Y-124272991D01*
X158866922Y-124036503D01*
X159498230Y-124036503D01*
X159498231Y-124051510D01*
X159499075Y-124120625D01*
X159501114Y-124179994D01*
X159504081Y-124223714D01*
X159507709Y-124245881D01*
X159508887Y-124248432D01*
X159516283Y-124256679D01*
X159531147Y-124262520D01*
X159557475Y-124266359D01*
X159599266Y-124268601D01*
X159660518Y-124269649D01*
X159745229Y-124269908D01*
X159817888Y-124269525D01*
X159894233Y-124267670D01*
X159949416Y-124264035D01*
X159987030Y-124258356D01*
X160010669Y-124250368D01*
X160027549Y-124240092D01*
X160073565Y-124201396D01*
X160121469Y-124149549D01*
X160164152Y-124092722D01*
X160194501Y-124039089D01*
X160205637Y-124009332D01*
X160220464Y-123940815D01*
X160228044Y-123851326D01*
X160226896Y-123756976D01*
X160211304Y-123667380D01*
X160179094Y-123592596D01*
X160128815Y-123527893D01*
X160110218Y-123509692D01*
X160046794Y-123462303D01*
X159978432Y-123436662D01*
X159896173Y-123428962D01*
X159852715Y-123431048D01*
X159763253Y-123451679D01*
X159686467Y-123495019D01*
X159621491Y-123561857D01*
X159567463Y-123652983D01*
X159523518Y-123769186D01*
X159511986Y-123816033D01*
X159504090Y-123872746D01*
X159499705Y-123944119D01*
X159498230Y-124036503D01*
X158866922Y-124036503D01*
X158867172Y-123945369D01*
X158868099Y-123834882D01*
X158871389Y-123712676D01*
X158877599Y-123608279D01*
X158887332Y-123516290D01*
X158901191Y-123431310D01*
X158919781Y-123347937D01*
X158943706Y-123260773D01*
X158989244Y-123130354D01*
X159064236Y-122976954D01*
X159156095Y-122842326D01*
X159263528Y-122727798D01*
X159385243Y-122634698D01*
X159519949Y-122564353D01*
X159666353Y-122518091D01*
X159705784Y-122510846D01*
X159803381Y-122501558D01*
X159896173Y-122500388D01*
X159912282Y-122500186D01*
X160022984Y-122506352D01*
G36*
X160022984Y-122506352D02*
G01*
X160125987Y-122519679D01*
X160211789Y-122539788D01*
X160300066Y-122571874D01*
X160445547Y-122646251D01*
X160573543Y-122741320D01*
X160683181Y-122856096D01*
X160773590Y-122989595D01*
X160843896Y-123140834D01*
X160893229Y-123308827D01*
X160904356Y-123377331D01*
X160912089Y-123475221D01*
X160913828Y-123581830D01*
X160909713Y-123688249D01*
X160899885Y-123785569D01*
X160884484Y-123864881D01*
X160872358Y-123904735D01*
X160836874Y-123995251D01*
X160791823Y-124087262D01*
X160742091Y-124171276D01*
X160692564Y-124237799D01*
X160691849Y-124238617D01*
X160660940Y-124275071D01*
X160638931Y-124303118D01*
X160630546Y-124316745D01*
X160632548Y-124318235D01*
X160654174Y-124321606D01*
X160694508Y-124323949D01*
X160747248Y-124324827D01*
X160863951Y-124324827D01*
X160863951Y-124839692D01*
X160863949Y-124853398D01*
X160863748Y-124968349D01*
X160863247Y-125073850D01*
X160862485Y-125166900D01*
X160861497Y-125244497D01*
X160860322Y-125303640D01*
X160858997Y-125341328D01*
X160857559Y-125354557D01*
X160856302Y-125354249D01*
X160837749Y-125345594D01*
X160802893Y-125327451D01*
X160758018Y-125303070D01*
X160664870Y-125251584D01*
X159696924Y-125243638D01*
X159555943Y-125242457D01*
X159376141Y-125240805D01*
X159220047Y-125239071D01*
X159085453Y-125237114D01*
X158970153Y-125234795D01*
X158871937Y-125231974D01*
X158788600Y-125228510D01*
X158717933Y-125224264D01*
X158657728Y-125219094D01*
X158605779Y-125212862D01*
X158559878Y-125205427D01*
X158517817Y-125196648D01*
X158477389Y-125186387D01*
X158436385Y-125174501D01*
X158392600Y-125160853D01*
X158255333Y-125107084D01*
X158128470Y-125033449D01*
X158019856Y-124941748D01*
X157928922Y-124831139D01*
X157855101Y-124700784D01*
X157797823Y-124549843D01*
X157756521Y-124377477D01*
X157730626Y-124182845D01*
X157725477Y-124114819D01*
X157721712Y-124000252D01*
X157725102Y-123886698D01*
X157736220Y-123768841D01*
X157755636Y-123641364D01*
X157783922Y-123498951D01*
X157821651Y-123336287D01*
X157830780Y-123298687D01*
X157853244Y-123204265D01*
X157873927Y-123114771D01*
X157891609Y-123035633D01*
X157905068Y-122972278D01*
X157913081Y-122930134D01*
X157929051Y-122832900D01*
X158260366Y-122969598D01*
X158343088Y-123003791D01*
X158424144Y-123037429D01*
X158493349Y-123066291D01*
X158547316Y-123088959D01*
X158582660Y-123104017D01*
X158595994Y-123110047D01*
X158596185Y-123110995D01*
X158590232Y-123128470D01*
X158574976Y-123162831D01*
X158553131Y-123207880D01*
X158510591Y-123301512D01*
X158464078Y-123430356D01*
X158428458Y-123562228D01*
X158404626Y-123691970D01*
X158393475Y-123814425D01*
X158395902Y-123924437D01*
X158412800Y-124016849D01*
X158439612Y-124081345D01*
X158494558Y-124154594D01*
X158569100Y-124210981D01*
X158660943Y-124248893D01*
X158767795Y-124266715D01*
X158866275Y-124272991D01*
X158866922Y-124036503D01*
X159498230Y-124036503D01*
X159498231Y-124051510D01*
X159499075Y-124120625D01*
X159501114Y-124179994D01*
X159504081Y-124223714D01*
X159507709Y-124245881D01*
X159508887Y-124248432D01*
X159516283Y-124256679D01*
X159531147Y-124262520D01*
X159557475Y-124266359D01*
X159599266Y-124268601D01*
X159660518Y-124269649D01*
X159745229Y-124269908D01*
X159817888Y-124269525D01*
X159894233Y-124267670D01*
X159949416Y-124264035D01*
X159987030Y-124258356D01*
X160010669Y-124250368D01*
X160027549Y-124240092D01*
X160073565Y-124201396D01*
X160121469Y-124149549D01*
X160164152Y-124092722D01*
X160194501Y-124039089D01*
X160205637Y-124009332D01*
X160220464Y-123940815D01*
X160228044Y-123851326D01*
X160226896Y-123756976D01*
X160211304Y-123667380D01*
X160179094Y-123592596D01*
X160128815Y-123527893D01*
X160110218Y-123509692D01*
X160046794Y-123462303D01*
X159978432Y-123436662D01*
X159896173Y-123428962D01*
X159852715Y-123431048D01*
X159763253Y-123451679D01*
X159686467Y-123495019D01*
X159621491Y-123561857D01*
X159567463Y-123652983D01*
X159523518Y-123769186D01*
X159511986Y-123816033D01*
X159504090Y-123872746D01*
X159499705Y-123944119D01*
X159498230Y-124036503D01*
X158866922Y-124036503D01*
X158867172Y-123945369D01*
X158868099Y-123834882D01*
X158871389Y-123712676D01*
X158877599Y-123608279D01*
X158887332Y-123516290D01*
X158901191Y-123431310D01*
X158919781Y-123347937D01*
X158943706Y-123260773D01*
X158989244Y-123130354D01*
X159064236Y-122976954D01*
X159156095Y-122842326D01*
X159263528Y-122727798D01*
X159385243Y-122634698D01*
X159519949Y-122564353D01*
X159666353Y-122518091D01*
X159705784Y-122510846D01*
X159803381Y-122501558D01*
X159896173Y-122500388D01*
X159912282Y-122500186D01*
X160022984Y-122506352D01*
G37*
X159878808Y-113286047D02*
X160097658Y-113286164D01*
X160294939Y-113286409D01*
X160471787Y-113286816D01*
X160629338Y-113287421D01*
X160768727Y-113288260D01*
X160850221Y-113288999D01*
X160891088Y-113289369D01*
X160997558Y-113290782D01*
X161089272Y-113292537D01*
X161167365Y-113294668D01*
X161232972Y-113297212D01*
X161287229Y-113300203D01*
X161331271Y-113303679D01*
X161366233Y-113307674D01*
X161393251Y-113312225D01*
X161413460Y-113317367D01*
X161427995Y-113323135D01*
X161437992Y-113329566D01*
X161444586Y-113336695D01*
X161448913Y-113344559D01*
X161452107Y-113353192D01*
X161455304Y-113362630D01*
X161459639Y-113372910D01*
X161461811Y-113378694D01*
X161464184Y-113389304D01*
X161466358Y-113405069D01*
X161468341Y-113427104D01*
X161470144Y-113456524D01*
X161471773Y-113494445D01*
X161473239Y-113541982D01*
X161474549Y-113600250D01*
X161475713Y-113670364D01*
X161476739Y-113753440D01*
X161477636Y-113850593D01*
X161478413Y-113962938D01*
X161479078Y-114091589D01*
X161479640Y-114237664D01*
X161480108Y-114402276D01*
X161480490Y-114586541D01*
X161480796Y-114791574D01*
X161481033Y-115018490D01*
X161481211Y-115268405D01*
X161481339Y-115542433D01*
X161481424Y-115841691D01*
X161481476Y-116167293D01*
X161481486Y-116270475D01*
X161481493Y-116589011D01*
X161481453Y-116881527D01*
X161481358Y-117149126D01*
X161481201Y-117392910D01*
X161480973Y-117613982D01*
X161480667Y-117813442D01*
X161480273Y-117992393D01*
X161479786Y-118151938D01*
X161479195Y-118293178D01*
X161478495Y-118417215D01*
X161477675Y-118525151D01*
X161476729Y-118618088D01*
X161475648Y-118697129D01*
X161474425Y-118763375D01*
X161473051Y-118817929D01*
X161471519Y-118861892D01*
X161469820Y-118896367D01*
X161467946Y-118922455D01*
X161465890Y-118941258D01*
X161463644Y-118953879D01*
X161461198Y-118961420D01*
X161460110Y-118963819D01*
X161456535Y-118973641D01*
X161453924Y-118982648D01*
X161451141Y-118990877D01*
X161447048Y-118998364D01*
X161440508Y-119005146D01*
X161430385Y-119011259D01*
X161415541Y-119016739D01*
X161394839Y-119021624D01*
X161367143Y-119025950D01*
X161331316Y-119029753D01*
X161286221Y-119033070D01*
X161230720Y-119035938D01*
X161163677Y-119038392D01*
X161083955Y-119040470D01*
X160990418Y-119042207D01*
X160881927Y-119043641D01*
X160757346Y-119044808D01*
X160615538Y-119045744D01*
X160455367Y-119046486D01*
X160275695Y-119047071D01*
X160075385Y-119047535D01*
X159853300Y-119047914D01*
X159608304Y-119048245D01*
X159339260Y-119048565D01*
X159045030Y-119048910D01*
X158724478Y-119049316D01*
X158685672Y-119049369D01*
X158367151Y-119049822D01*
X158074820Y-119050255D01*
X157807541Y-119050637D01*
X157564177Y-119050934D01*
X157343590Y-119051116D01*
X157144643Y-119051149D01*
X156966198Y-119051003D01*
X156807119Y-119050644D01*
X156666267Y-119050040D01*
X156542505Y-119049160D01*
X156434695Y-119047972D01*
X156341701Y-119046443D01*
X156262385Y-119044542D01*
X156195608Y-119042236D01*
X156140235Y-119039493D01*
X156095127Y-119036282D01*
X156059147Y-119032569D01*
X156031157Y-119028324D01*
X156010020Y-119023513D01*
X155994599Y-119018106D01*
X155983756Y-119012069D01*
X155976354Y-119005371D01*
X155971255Y-118997979D01*
X155967321Y-118989863D01*
X155963416Y-118980989D01*
X155958402Y-118971325D01*
X155956804Y-118968497D01*
X155941337Y-118925710D01*
X155934980Y-118878871D01*
X155934982Y-118826070D01*
X156055115Y-118825190D01*
X156068940Y-118824967D01*
X156209463Y-118808185D01*
X156341683Y-118765441D01*
X156464200Y-118697331D01*
X156575611Y-118604446D01*
X156621051Y-118554602D01*
X156696368Y-118443619D01*
X156748891Y-118322526D01*
X156778590Y-118194849D01*
X156785438Y-118064117D01*
X156769407Y-117933854D01*
X156730469Y-117807589D01*
X156668596Y-117688848D01*
X156583759Y-117581157D01*
X156553850Y-117551220D01*
X156474654Y-117487941D01*
X157788492Y-117487941D01*
X157788492Y-118571103D01*
X160637410Y-118578935D01*
X160719416Y-118617333D01*
X160760063Y-118637578D01*
X160800780Y-118660501D01*
X160825822Y-118677813D01*
X160825870Y-118677856D01*
X160831688Y-118682059D01*
X160836499Y-118681662D01*
X160840398Y-118674379D01*
X160843480Y-118657925D01*
X160845842Y-118630013D01*
X160847578Y-118588357D01*
X160848784Y-118530672D01*
X160849556Y-118454672D01*
X160849989Y-118358070D01*
X160850179Y-118238580D01*
X160850221Y-118093918D01*
X160850221Y-117487941D01*
X160757546Y-117539168D01*
X160664870Y-117590395D01*
X157973843Y-117590395D01*
X157881167Y-117539168D01*
X157788492Y-117487941D01*
X156474654Y-117487941D01*
X156443110Y-117462737D01*
X156322932Y-117399950D01*
X156192539Y-117362525D01*
X156051158Y-117350125D01*
X155934978Y-117350125D01*
X155934978Y-115379226D01*
X155934973Y-115256094D01*
X155934937Y-114991571D01*
X155934911Y-114752612D01*
X155934947Y-114537896D01*
X155935097Y-114346101D01*
X155935165Y-114309400D01*
X156676383Y-114309400D01*
X156676383Y-114963592D01*
X156717358Y-114929114D01*
X156745501Y-114909132D01*
X156811856Y-114875871D01*
X156894383Y-114846723D01*
X156985927Y-114824476D01*
X156994617Y-114823058D01*
X157040431Y-114818840D01*
X157111237Y-114815645D01*
X157207523Y-114813465D01*
X157329780Y-114812293D01*
X157478499Y-114812119D01*
X157654170Y-114812936D01*
X158240660Y-114816989D01*
X157711107Y-115235746D01*
X157695938Y-115247740D01*
X157561503Y-115353933D01*
X157446372Y-115444593D01*
X157348587Y-115521163D01*
X157266191Y-115585087D01*
X157197226Y-115637807D01*
X157139734Y-115680765D01*
X157091758Y-115715405D01*
X157051341Y-115743169D01*
X157016524Y-115765500D01*
X156985351Y-115783842D01*
X156955863Y-115799636D01*
X156926103Y-115814326D01*
X156873425Y-115836924D01*
X156817854Y-115851523D01*
X156757914Y-115855406D01*
X156676383Y-115855016D01*
X156676383Y-117244407D01*
X156719847Y-117183995D01*
X156760696Y-117132904D01*
X156827324Y-117060911D01*
X156910828Y-116979254D01*
X157008026Y-116891024D01*
X157115735Y-116799314D01*
X157144538Y-116775697D01*
X157193940Y-116735487D01*
X157258753Y-116682927D01*
X157336814Y-116619758D01*
X157425959Y-116547722D01*
X157524026Y-116468560D01*
X157628852Y-116384012D01*
X157738272Y-116295821D01*
X157788492Y-116255370D01*
X157850124Y-116205728D01*
X157962245Y-116115474D01*
X158072472Y-116026799D01*
X158178640Y-115941446D01*
X158278588Y-115861156D01*
X158370151Y-115787670D01*
X158451167Y-115722729D01*
X158519472Y-115668074D01*
X158572903Y-115625448D01*
X158609296Y-115596590D01*
X158626490Y-115583243D01*
X158632951Y-115582141D01*
X158645240Y-115585806D01*
X158664573Y-115595301D01*
X158692322Y-115611576D01*
X158729858Y-115635578D01*
X158778552Y-115668254D01*
X158839777Y-115710553D01*
X158914902Y-115763423D01*
X159005300Y-115827811D01*
X159112342Y-115904666D01*
X159237400Y-115994934D01*
X159381844Y-116099565D01*
X159547046Y-116219505D01*
X159678545Y-116315072D01*
X159838853Y-116431666D01*
X159979635Y-116534226D01*
X160102452Y-116623945D01*
X160208867Y-116702014D01*
X160300443Y-116769626D01*
X160378742Y-116827976D01*
X160445327Y-116878254D01*
X160501759Y-116921653D01*
X160549602Y-116959368D01*
X160590417Y-116992589D01*
X160625768Y-117022511D01*
X160657216Y-117050325D01*
X160686324Y-117077224D01*
X160714654Y-117104401D01*
X160743770Y-117133049D01*
X160850221Y-117238622D01*
X160850279Y-115819260D01*
X160764267Y-115823719D01*
X160759945Y-115823935D01*
X160725561Y-115824782D01*
X160692616Y-115823177D01*
X160659306Y-115818048D01*
X160623826Y-115808321D01*
X160584373Y-115792923D01*
X160539141Y-115770780D01*
X160486325Y-115740819D01*
X160424122Y-115701966D01*
X160350725Y-115653148D01*
X160264332Y-115593292D01*
X160163138Y-115521324D01*
X160045336Y-115436171D01*
X159909124Y-115336760D01*
X159752697Y-115222016D01*
X159201289Y-114816989D01*
X159840630Y-114813421D01*
X159900268Y-114813105D01*
X160060905Y-114812547D01*
X160197537Y-114812801D01*
X160312750Y-114814164D01*
X160409131Y-114816937D01*
X160489264Y-114821416D01*
X160555735Y-114827901D01*
X160611131Y-114836691D01*
X160658036Y-114848084D01*
X160699036Y-114862379D01*
X160736717Y-114879874D01*
X160773665Y-114900867D01*
X160812465Y-114925659D01*
X160850221Y-114950580D01*
X160850221Y-113655430D01*
X160805600Y-113688885D01*
X160798541Y-113694124D01*
X160733842Y-113736012D01*
X160668438Y-113764887D01*
X160593496Y-113783848D01*
X160500181Y-113795993D01*
X160496113Y-113796327D01*
X160457623Y-113798089D01*
X160393404Y-113799681D01*
X160304924Y-113801094D01*
X160193651Y-113802322D01*
X160061051Y-113803358D01*
X159908593Y-113804196D01*
X159737744Y-113804828D01*
X159549970Y-113805247D01*
X159346741Y-113805446D01*
X159129522Y-113805419D01*
X158899783Y-113805159D01*
X158658989Y-113804659D01*
X158442996Y-113804129D01*
X158207883Y-113803562D01*
X157997527Y-113803003D01*
X157810454Y-113802384D01*
X157645190Y-113801633D01*
X157500261Y-113800680D01*
X157374195Y-113799456D01*
X157265516Y-113797891D01*
X157172752Y-113795913D01*
X157094428Y-113793454D01*
X157029070Y-113790443D01*
X156975206Y-113786810D01*
X156931361Y-113782485D01*
X156896061Y-113777398D01*
X156867833Y-113771479D01*
X156845203Y-113764657D01*
X156826697Y-113756863D01*
X156810842Y-113748026D01*
X156796163Y-113738077D01*
X156781188Y-113726945D01*
X156764441Y-113714560D01*
X156747660Y-113702582D01*
X156714479Y-113679429D01*
X156693546Y-113665561D01*
X156692669Y-113665226D01*
X156688710Y-113670068D01*
X156685407Y-113687157D01*
X156682709Y-113718393D01*
X156680565Y-113765679D01*
X156678924Y-113830916D01*
X156677737Y-113916004D01*
X156676951Y-114022847D01*
X156676517Y-114153345D01*
X156676383Y-114309400D01*
X155935165Y-114309400D01*
X155935414Y-114175907D01*
X155935950Y-114025991D01*
X155936756Y-113895032D01*
X155937886Y-113781709D01*
X155939392Y-113684700D01*
X155941325Y-113602685D01*
X155943739Y-113534340D01*
X155946684Y-113478346D01*
X155950214Y-113433381D01*
X155954381Y-113398123D01*
X155959237Y-113371251D01*
X155964834Y-113351443D01*
X155971224Y-113337379D01*
X155978460Y-113327736D01*
X155986594Y-113321193D01*
X155995679Y-113316429D01*
X156005766Y-113312122D01*
X156016907Y-113306951D01*
X156017089Y-113306859D01*
X156024382Y-113304348D01*
X156036595Y-113302046D01*
X156054853Y-113299942D01*
X156080285Y-113298028D01*
X156114017Y-113296296D01*
X156157176Y-113294736D01*
X156210889Y-113293341D01*
X156276283Y-113292101D01*
X156354486Y-113291007D01*
X156446624Y-113290051D01*
X156553824Y-113289224D01*
X156677214Y-113288517D01*
X156817919Y-113287921D01*
X156977068Y-113287429D01*
X157155788Y-113287030D01*
X157355205Y-113286717D01*
X157576446Y-113286481D01*
X157820638Y-113286312D01*
X158088909Y-113286202D01*
X158382385Y-113286142D01*
X158702194Y-113286125D01*
X158765021Y-113286124D01*
X159081497Y-113286094D01*
X159371863Y-113286047D01*
X159637255Y-113286019D01*
X159878808Y-113286047D01*
G36*
X159878808Y-113286047D02*
G01*
X160097658Y-113286164D01*
X160294939Y-113286409D01*
X160471787Y-113286816D01*
X160629338Y-113287421D01*
X160768727Y-113288260D01*
X160850221Y-113288999D01*
X160891088Y-113289369D01*
X160997558Y-113290782D01*
X161089272Y-113292537D01*
X161167365Y-113294668D01*
X161232972Y-113297212D01*
X161287229Y-113300203D01*
X161331271Y-113303679D01*
X161366233Y-113307674D01*
X161393251Y-113312225D01*
X161413460Y-113317367D01*
X161427995Y-113323135D01*
X161437992Y-113329566D01*
X161444586Y-113336695D01*
X161448913Y-113344559D01*
X161452107Y-113353192D01*
X161455304Y-113362630D01*
X161459639Y-113372910D01*
X161461811Y-113378694D01*
X161464184Y-113389304D01*
X161466358Y-113405069D01*
X161468341Y-113427104D01*
X161470144Y-113456524D01*
X161471773Y-113494445D01*
X161473239Y-113541982D01*
X161474549Y-113600250D01*
X161475713Y-113670364D01*
X161476739Y-113753440D01*
X161477636Y-113850593D01*
X161478413Y-113962938D01*
X161479078Y-114091589D01*
X161479640Y-114237664D01*
X161480108Y-114402276D01*
X161480490Y-114586541D01*
X161480796Y-114791574D01*
X161481033Y-115018490D01*
X161481211Y-115268405D01*
X161481339Y-115542433D01*
X161481424Y-115841691D01*
X161481476Y-116167293D01*
X161481486Y-116270475D01*
X161481493Y-116589011D01*
X161481453Y-116881527D01*
X161481358Y-117149126D01*
X161481201Y-117392910D01*
X161480973Y-117613982D01*
X161480667Y-117813442D01*
X161480273Y-117992393D01*
X161479786Y-118151938D01*
X161479195Y-118293178D01*
X161478495Y-118417215D01*
X161477675Y-118525151D01*
X161476729Y-118618088D01*
X161475648Y-118697129D01*
X161474425Y-118763375D01*
X161473051Y-118817929D01*
X161471519Y-118861892D01*
X161469820Y-118896367D01*
X161467946Y-118922455D01*
X161465890Y-118941258D01*
X161463644Y-118953879D01*
X161461198Y-118961420D01*
X161460110Y-118963819D01*
X161456535Y-118973641D01*
X161453924Y-118982648D01*
X161451141Y-118990877D01*
X161447048Y-118998364D01*
X161440508Y-119005146D01*
X161430385Y-119011259D01*
X161415541Y-119016739D01*
X161394839Y-119021624D01*
X161367143Y-119025950D01*
X161331316Y-119029753D01*
X161286221Y-119033070D01*
X161230720Y-119035938D01*
X161163677Y-119038392D01*
X161083955Y-119040470D01*
X160990418Y-119042207D01*
X160881927Y-119043641D01*
X160757346Y-119044808D01*
X160615538Y-119045744D01*
X160455367Y-119046486D01*
X160275695Y-119047071D01*
X160075385Y-119047535D01*
X159853300Y-119047914D01*
X159608304Y-119048245D01*
X159339260Y-119048565D01*
X159045030Y-119048910D01*
X158724478Y-119049316D01*
X158685672Y-119049369D01*
X158367151Y-119049822D01*
X158074820Y-119050255D01*
X157807541Y-119050637D01*
X157564177Y-119050934D01*
X157343590Y-119051116D01*
X157144643Y-119051149D01*
X156966198Y-119051003D01*
X156807119Y-119050644D01*
X156666267Y-119050040D01*
X156542505Y-119049160D01*
X156434695Y-119047972D01*
X156341701Y-119046443D01*
X156262385Y-119044542D01*
X156195608Y-119042236D01*
X156140235Y-119039493D01*
X156095127Y-119036282D01*
X156059147Y-119032569D01*
X156031157Y-119028324D01*
X156010020Y-119023513D01*
X155994599Y-119018106D01*
X155983756Y-119012069D01*
X155976354Y-119005371D01*
X155971255Y-118997979D01*
X155967321Y-118989863D01*
X155963416Y-118980989D01*
X155958402Y-118971325D01*
X155956804Y-118968497D01*
X155941337Y-118925710D01*
X155934980Y-118878871D01*
X155934982Y-118826070D01*
X156055115Y-118825190D01*
X156068940Y-118824967D01*
X156209463Y-118808185D01*
X156341683Y-118765441D01*
X156464200Y-118697331D01*
X156575611Y-118604446D01*
X156621051Y-118554602D01*
X156696368Y-118443619D01*
X156748891Y-118322526D01*
X156778590Y-118194849D01*
X156785438Y-118064117D01*
X156769407Y-117933854D01*
X156730469Y-117807589D01*
X156668596Y-117688848D01*
X156583759Y-117581157D01*
X156553850Y-117551220D01*
X156474654Y-117487941D01*
X157788492Y-117487941D01*
X157788492Y-118571103D01*
X160637410Y-118578935D01*
X160719416Y-118617333D01*
X160760063Y-118637578D01*
X160800780Y-118660501D01*
X160825822Y-118677813D01*
X160825870Y-118677856D01*
X160831688Y-118682059D01*
X160836499Y-118681662D01*
X160840398Y-118674379D01*
X160843480Y-118657925D01*
X160845842Y-118630013D01*
X160847578Y-118588357D01*
X160848784Y-118530672D01*
X160849556Y-118454672D01*
X160849989Y-118358070D01*
X160850179Y-118238580D01*
X160850221Y-118093918D01*
X160850221Y-117487941D01*
X160757546Y-117539168D01*
X160664870Y-117590395D01*
X157973843Y-117590395D01*
X157881167Y-117539168D01*
X157788492Y-117487941D01*
X156474654Y-117487941D01*
X156443110Y-117462737D01*
X156322932Y-117399950D01*
X156192539Y-117362525D01*
X156051158Y-117350125D01*
X155934978Y-117350125D01*
X155934978Y-115379226D01*
X155934973Y-115256094D01*
X155934937Y-114991571D01*
X155934911Y-114752612D01*
X155934947Y-114537896D01*
X155935097Y-114346101D01*
X155935165Y-114309400D01*
X156676383Y-114309400D01*
X156676383Y-114963592D01*
X156717358Y-114929114D01*
X156745501Y-114909132D01*
X156811856Y-114875871D01*
X156894383Y-114846723D01*
X156985927Y-114824476D01*
X156994617Y-114823058D01*
X157040431Y-114818840D01*
X157111237Y-114815645D01*
X157207523Y-114813465D01*
X157329780Y-114812293D01*
X157478499Y-114812119D01*
X157654170Y-114812936D01*
X158240660Y-114816989D01*
X157711107Y-115235746D01*
X157695938Y-115247740D01*
X157561503Y-115353933D01*
X157446372Y-115444593D01*
X157348587Y-115521163D01*
X157266191Y-115585087D01*
X157197226Y-115637807D01*
X157139734Y-115680765D01*
X157091758Y-115715405D01*
X157051341Y-115743169D01*
X157016524Y-115765500D01*
X156985351Y-115783842D01*
X156955863Y-115799636D01*
X156926103Y-115814326D01*
X156873425Y-115836924D01*
X156817854Y-115851523D01*
X156757914Y-115855406D01*
X156676383Y-115855016D01*
X156676383Y-117244407D01*
X156719847Y-117183995D01*
X156760696Y-117132904D01*
X156827324Y-117060911D01*
X156910828Y-116979254D01*
X157008026Y-116891024D01*
X157115735Y-116799314D01*
X157144538Y-116775697D01*
X157193940Y-116735487D01*
X157258753Y-116682927D01*
X157336814Y-116619758D01*
X157425959Y-116547722D01*
X157524026Y-116468560D01*
X157628852Y-116384012D01*
X157738272Y-116295821D01*
X157788492Y-116255370D01*
X157850124Y-116205728D01*
X157962245Y-116115474D01*
X158072472Y-116026799D01*
X158178640Y-115941446D01*
X158278588Y-115861156D01*
X158370151Y-115787670D01*
X158451167Y-115722729D01*
X158519472Y-115668074D01*
X158572903Y-115625448D01*
X158609296Y-115596590D01*
X158626490Y-115583243D01*
X158632951Y-115582141D01*
X158645240Y-115585806D01*
X158664573Y-115595301D01*
X158692322Y-115611576D01*
X158729858Y-115635578D01*
X158778552Y-115668254D01*
X158839777Y-115710553D01*
X158914902Y-115763423D01*
X159005300Y-115827811D01*
X159112342Y-115904666D01*
X159237400Y-115994934D01*
X159381844Y-116099565D01*
X159547046Y-116219505D01*
X159678545Y-116315072D01*
X159838853Y-116431666D01*
X159979635Y-116534226D01*
X160102452Y-116623945D01*
X160208867Y-116702014D01*
X160300443Y-116769626D01*
X160378742Y-116827976D01*
X160445327Y-116878254D01*
X160501759Y-116921653D01*
X160549602Y-116959368D01*
X160590417Y-116992589D01*
X160625768Y-117022511D01*
X160657216Y-117050325D01*
X160686324Y-117077224D01*
X160714654Y-117104401D01*
X160743770Y-117133049D01*
X160850221Y-117238622D01*
X160850279Y-115819260D01*
X160764267Y-115823719D01*
X160759945Y-115823935D01*
X160725561Y-115824782D01*
X160692616Y-115823177D01*
X160659306Y-115818048D01*
X160623826Y-115808321D01*
X160584373Y-115792923D01*
X160539141Y-115770780D01*
X160486325Y-115740819D01*
X160424122Y-115701966D01*
X160350725Y-115653148D01*
X160264332Y-115593292D01*
X160163138Y-115521324D01*
X160045336Y-115436171D01*
X159909124Y-115336760D01*
X159752697Y-115222016D01*
X159201289Y-114816989D01*
X159840630Y-114813421D01*
X159900268Y-114813105D01*
X160060905Y-114812547D01*
X160197537Y-114812801D01*
X160312750Y-114814164D01*
X160409131Y-114816937D01*
X160489264Y-114821416D01*
X160555735Y-114827901D01*
X160611131Y-114836691D01*
X160658036Y-114848084D01*
X160699036Y-114862379D01*
X160736717Y-114879874D01*
X160773665Y-114900867D01*
X160812465Y-114925659D01*
X160850221Y-114950580D01*
X160850221Y-113655430D01*
X160805600Y-113688885D01*
X160798541Y-113694124D01*
X160733842Y-113736012D01*
X160668438Y-113764887D01*
X160593496Y-113783848D01*
X160500181Y-113795993D01*
X160496113Y-113796327D01*
X160457623Y-113798089D01*
X160393404Y-113799681D01*
X160304924Y-113801094D01*
X160193651Y-113802322D01*
X160061051Y-113803358D01*
X159908593Y-113804196D01*
X159737744Y-113804828D01*
X159549970Y-113805247D01*
X159346741Y-113805446D01*
X159129522Y-113805419D01*
X158899783Y-113805159D01*
X158658989Y-113804659D01*
X158442996Y-113804129D01*
X158207883Y-113803562D01*
X157997527Y-113803003D01*
X157810454Y-113802384D01*
X157645190Y-113801633D01*
X157500261Y-113800680D01*
X157374195Y-113799456D01*
X157265516Y-113797891D01*
X157172752Y-113795913D01*
X157094428Y-113793454D01*
X157029070Y-113790443D01*
X156975206Y-113786810D01*
X156931361Y-113782485D01*
X156896061Y-113777398D01*
X156867833Y-113771479D01*
X156845203Y-113764657D01*
X156826697Y-113756863D01*
X156810842Y-113748026D01*
X156796163Y-113738077D01*
X156781188Y-113726945D01*
X156764441Y-113714560D01*
X156747660Y-113702582D01*
X156714479Y-113679429D01*
X156693546Y-113665561D01*
X156692669Y-113665226D01*
X156688710Y-113670068D01*
X156685407Y-113687157D01*
X156682709Y-113718393D01*
X156680565Y-113765679D01*
X156678924Y-113830916D01*
X156677737Y-113916004D01*
X156676951Y-114022847D01*
X156676517Y-114153345D01*
X156676383Y-114309400D01*
X155935165Y-114309400D01*
X155935414Y-114175907D01*
X155935950Y-114025991D01*
X155936756Y-113895032D01*
X155937886Y-113781709D01*
X155939392Y-113684700D01*
X155941325Y-113602685D01*
X155943739Y-113534340D01*
X155946684Y-113478346D01*
X155950214Y-113433381D01*
X155954381Y-113398123D01*
X155959237Y-113371251D01*
X155964834Y-113351443D01*
X155971224Y-113337379D01*
X155978460Y-113327736D01*
X155986594Y-113321193D01*
X155995679Y-113316429D01*
X156005766Y-113312122D01*
X156016907Y-113306951D01*
X156017089Y-113306859D01*
X156024382Y-113304348D01*
X156036595Y-113302046D01*
X156054853Y-113299942D01*
X156080285Y-113298028D01*
X156114017Y-113296296D01*
X156157176Y-113294736D01*
X156210889Y-113293341D01*
X156276283Y-113292101D01*
X156354486Y-113291007D01*
X156446624Y-113290051D01*
X156553824Y-113289224D01*
X156677214Y-113288517D01*
X156817919Y-113287921D01*
X156977068Y-113287429D01*
X157155788Y-113287030D01*
X157355205Y-113286717D01*
X157576446Y-113286481D01*
X157820638Y-113286312D01*
X158088909Y-113286202D01*
X158382385Y-113286142D01*
X158702194Y-113286125D01*
X158765021Y-113286124D01*
X159081497Y-113286094D01*
X159371863Y-113286047D01*
X159637255Y-113286019D01*
X159878808Y-113286047D01*
G37*
%TD*%
M02*
